Geist Italic.glyphspackage
{
color = 4;
glyphname = dollar;
layers = (
{
background = {
shapes = (
{
closed = 1;
nodes = (
(339,-91,l),
(339,805,l),
(307,805,l),
(307,-91,l)
);
},
{
pos = (5,0);
ref = S;
}
);
};
layerId = "EE2FFE84-06F1-4AFB-BBEC-60D09A436D14";
shapes = (
{
closed = 1;
nodes = (
(232,-90,l),
(422,800,l),
(392,800,l),
(202,-90,l)
);
},
{
pos = (1,0);
ref = S;
scale = (0.98,0.98);
}
);
width = 601;
},
{
background = {
shapes = (
{
closed = 1;
nodes = (
(387,-91,l),
(387,805,l),
(301,805,l),
(301,-91,l)
);
},
{
alignment = -1;
pos = (-13,0);
ref = S;
}
);
};
layerId = "3507EE3D-0D92-4546-A145-3A991F0A2B71";
shapes = (
{
closed = 1;
nodes = (
(306,-90,l),
(496,800,l),
(410,800,l),
(220,-90,l)
);
},
{
alignment = -1;
pos = (2,8);
ref = S;
scale = (0.98,0.98);
}
);
width = 686;
},
{
background = {
shapes = (
{
closed = 1;
nodes = (
(367,-91,l),
(367,805,l),
(292,805,l),
(292,-91,l)
);
},
{
alignment = -1;
pos = (-3,0);
ref = S;
}
);
};
layerId = "6C190511-B94A-4F5A-B519-D6E9DB0E7B93";
shapes = (
{
closed = 1;
nodes = (
(263,-90,l),
(453,800,l),
(379,800,l),
(189,-90,l)
);
},
{
alignment = -1;
ref = S;
scale = (0.98,0.98);
}
);
width = 618;
}
);
metricLeft = S;
metricRight = S;
unicode = 36;
}
{
color = 4;
glyphname = parenleft;
kernLeft = parenleft;
kernRight = parenleft;
layers = (
{
background = {
shapes = (
{
closed = 1;
nodes = (
(110,-110,l),
(70,34,o),
(66,177,o),
(96,320,cs),
(126,463,o),
(192,607,o),
(292,750,c),
(267,750,l),
(161,607,o),
(92,463,o),
(62,320,cs),
(32,177,o),
(39,34,o),
(85,-110,c)
);
}
);
};
layerId = "EE2FFE84-06F1-4AFB-BBEC-60D09A436D14";
shapes = (
{
closed = 1;
nodes = (
(110,-110,l),
(87,-29,o),
(76,53,o),
(76,136,cs),
(76,348,o),
(158,558,o),
(292,750,c),
(267,750,l),
(128,562,o),
(44,364,o),
(44,148,cs),
(44,60,o),
(57,-24,o),
(85,-110,c)
);
}
);
width = 210;
},
{
background = {
shapes = (
{
closed = 1;
nodes = (
(265,-110,l),
(217,34,o),
(209,177,o),
(239,320,cs),
(269,463,o),
(339,607,o),
(447,750,c),
(275,750,l),
(157,608,o),
(82,464,o),
(51,320,cs),
(20,176,o),
(35,32,o),
(93,-110,c)
);
}
);
};
layerId = "3507EE3D-0D92-4546-A145-3A991F0A2B71";
shapes = (
{
closed = 1;
nodes = (
(265,-110,l),
(236,-22,o),
(221,64,o),
(221,152,cs),
(221,362,o),
(303,559,o),
(447,750,c),
(275,750,l),
(127,572,o),
(35,378,o),
(35,173,cs),
(35,77,o),
(55,-16,o),
(93,-110,c)
);
}
);
width = 356;
},
{
background = {
shapes = (
{
closed = 1;
nodes = (
(180,-110,l),
(126,34,o),
(114,177,o),
(144,320,cs),
(174,463,o),
(248,607,o),
(362,750,c),
(287,750,l),
(166,612,o),
(88,466,o),
(57,320,cs),
(26,174,o),
(42,28,o),
(105,-110,c)
);
}
);
};
layerId = "6C190511-B94A-4F5A-B519-D6E9DB0E7B93";
shapes = (
{
closed = 1;
nodes = (
(180,-110,l),
(145,-17,o),
(128,73,o),
(128,167,cs),
(128,377,o),
(213,563,o),
(362,750,c),
(287,750,l),
(131,572,o),
(42,384,o),
(42,176,cs),
(42,76,o),
(63,-18,o),
(105,-110,c)
);
}
);
width = 275;
}
);
metricLeft = O;
metricRight = X;
unicode = 40;
}
{
color = 4;
glyphname = asterisk;
kernLeft = asterisk;
kernRight = asterisk;
layers = (
{
guides = (
{
pos = (300,706);
},
{
pos = (287,378);
},
{
angle = 270;
pos = (444,608);
},
{
angle = 270;
pos = (123,598);
},
{
pos = (226,706);
}
);
layerId = "EE2FFE84-06F1-4AFB-BBEC-60D09A436D14";
shapes = (
{
closed = 1;
nodes = (
(279,528,l),
(326,398,l),
(354,414,l),
(304,539,l),
(450,539,l),
(456,569,l),
(313,569,l),
(416,694,l),
(391,710,l),
(287,580,l),
(240,710,l),
(212,694,l),
(262,569,l),
(115,569,l),
(109,539,l),
(253,539,l),
(150,414,l),
(175,398,l)
);
}
);
width = 442;
},
{
associatedMasterId = "EE2FFE84-06F1-4AFB-BBEC-60D09A436D14";
guides = (
{
pos = (228,706);
},
{
pos = (215,378);
},
{
angle = 270;
pos = (372,608);
},
{
angle = 270;
pos = (51,598);
},
{
pos = (154,706);
}
);
layerId = "5C64FE3B-FF75-41D6-99E9-254AEB2DE07B";
name = "24 de feb. de 23 13:25";
shapes = (
{
closed = 1;
nodes = (
(40,562,l),
(40,532,l),
(382,532,l),
(382,562,l)
);
},
{
closed = 1;
nodes = (
(138,703,l),
(113,688,l),
(284,391,l),
(309,406,l)
);
},
{
closed = 1;
nodes = (
(138,391,l),
(309,688,l),
(284,703,l),
(113,406,l)
);
}
);
width = 422;
},
{
layerId = "3507EE3D-0D92-4546-A145-3A991F0A2B71";
shapes = (
{
closed = 1;
nodes = (
(244,432,l),
(276,351,l),
(378,403,l),
(338,479,l),
(428,477,l),
(454,601,l),
(364,599,l),
(430,675,l),
(344,727,l),
(286,644,l),
(258,727,l),
(154,675,l),
(192,599,l),
(102,601,l),
(76,477,l),
(166,479,l),
(102,403,l),
(190,351,l)
);
}
);
width = 416;
},
{
layerId = "6C190511-B94A-4F5A-B519-D6E9DB0E7B93";
shapes = (
{
closed = 1;
nodes = (
(268,488,l),
(307,382,l),
(367,416,l),
(320,518,l),
(439,518,l),
(453,582,l),
(334,582,l),
(423,684,l),
(373,718,l),
(287,611,l),
(246,718,l),
(186,684,l),
(232,582,l),
(112,582,l),
(98,518,l),
(218,518,l),
(130,416,l),
(178,382,l)
);
}
);
width = 430;
}
);
metricLeft = o;
metricRight = o;
unicode = 42;
}
{
color = 4;
glyphname = plus;
kernLeft = plus;
kernRight = plus;
layers = (
{
background = {
shapes = (
{
closed = 1;
nodes = (
(246,46,l),
(348,524,l),
(320,524,l),
(218,46,l)
);
},
{
closed = 1;
nodes = (
(519,271,l),
(525,299,l),
(47,299,l),
(41,271,l)
);
}
);
};
layerId = "EE2FFE84-06F1-4AFB-BBEC-60D09A436D14";
shapes = (
{
closed = 1;
nodes = (
(247,46,l),
(349,524,l),
(319,524,l),
(217,46,l)
);
},
{
closed = 1;
nodes = (
(519,271,l),
(525,299,l),
(47,299,l),
(41,271,l)
);
}
);
width = 558;
},
{
background = {
shapes = (
{
closed = 1;
nodes = (
(313,32,l),
(419,530,l),
(269,530,l),
(163,32,l)
);
},
{
closed = 1;
nodes = (
(524,206,l),
(556,356,l),
(58,356,l),
(26,206,l)
);
}
);
};
layerId = "3507EE3D-0D92-4546-A145-3A991F0A2B71";
shapes = (
{
closed = 1;
nodes = (
(317,32,l),
(423,530,l),
(265,530,l),
(159,32,l)
);
},
{
closed = 1;
nodes = (
(524,206,l),
(556,356,l),
(58,356,l),
(26,206,l)
);
}
);
width = 578;
},
{
background = {
shapes = (
{
closed = 1;
nodes = (
(274,56,l),
(376,534,l),
(298,534,l),
(196,56,l)
);
},
{
closed = 1;
nodes = (
(517,256,l),
(533,334,l),
(55,334,l),
(39,256,l)
);
}
);
};
layerId = "6C190511-B94A-4F5A-B519-D6E9DB0E7B93";
shapes = (
{
closed = 1;
nodes = (
(276,56,l),
(378,534,l),
(296,534,l),
(194,56,l)
);
},
{
closed = 1;
nodes = (
(517,256,l),
(533,334,l),
(55,334,l),
(39,256,l)
);
}
);
width = 559;
}
);
metricLeft = "=40";
metricRight = "=40";
unicode = 43;
}
{
color = 3;
glyphname = comma;
kernLeft = period;
kernRight = period;
layers = (
{
background = {
shapes = (
{
closed = 1;
nodes = (
(29,-125,l),
(69,0,l),
(37,0,l),
(7,-125,l)
);
},
{
closed = 1;
nodes = (
(69,0,l),
(69,65,l),
(10,65,l),
(10,0,l)
);
}
);
};
layerId = "EE2FFE84-06F1-4AFB-BBEC-60D09A436D14";
shapes = (
{
closed = 1;
nodes = (
(-11,-125,l),
(57,8,l),
(69,65,l),
(10,65,l),
(-4,0,l),
(25,0,l),
(-33,-125,l)
);
}
);
width = 162;
},
{
background = {
shapes = (
{
closed = 1;
nodes = (
(134,-160,l),
(210,0,l),
(80,0,l),
(31,-160,l)
);
},
{
closed = 1;
nodes = (
(210,0,l),
(210,180,l),
(14,180,l),
(14,0,l)
);
}
);
};
layerId = "3507EE3D-0D92-4546-A145-3A991F0A2B71";
shapes = (
{
closed = 1;
nodes = (
(61,-160,l),
(175,18,l),
(209,180,l),
(13,180,l),
(-25,0,l),
(50,0,l),
(-42,-160,l)
);
}
);
width = 261;
},
{
background = {
shapes = (
{
closed = 1;
nodes = (
(73,-154,l),
(130,0,l),
(63,0,l),
(24,-154,l)
);
},
{
closed = 1;
nodes = (
(130,0,l),
(130,113,l),
(17,113,l),
(17,0,l)
);
}
);
};
layerId = "6C190511-B94A-4F5A-B519-D6E9DB0E7B93";
shapes = (
{
closed = 1;
nodes = (
(10,-156,l),
(106,14,l),
(127,113,l),
(14,113,l),
(-10,0,l),
(41,0,l),
(-40,-156,l)
);
}
);
width = 204;
}
);
metricLeft = o;
metricRight = o;
unicode = 44;
}
{
color = 4;
glyphname = zero;
kernLeft = O;
kernRight = O;
layers = (
{
background = {
shapes = (
{
closed = 1;
nodes = (
(422,-16,o),
(555,127,o),
(603,354,cs),
(651,583,o),
(580,726,o),
(418,726,cs),
(256,726,o),
(123,583,o),
(75,354,cs),
(27,127,o),
(98,-16,o),
(260,-16,cs)
);
},
{
closed = 1;
nodes = (
(125,16,o),
(64,142,o),
(109,354,cs),
(154,566,o),
(269,694,o),
(411,694,cs),
(553,694,o),
(614,566,o),
(569,354,cs),
(524,142,o),
(409,16,o),
(267,16,cs)
);
}
);
};
layerId = "EE2FFE84-06F1-4AFB-BBEC-60D09A436D14";
shapes = (
{
closed = 1;
nodes = (
(504,-16,o),
(618,290,o),
(618,484,cs),
(618,636,o),
(547,726,o),
(418,726,cs),
(173,726,o),
(60,419,o),
(60,225,cs),
(60,74,o),
(131,-16,o),
(260,-16,cs)
);
},
{
closed = 1;
nodes = (
(156,16,o),
(94,93,o),
(94,228,cs),
(94,396,o),
(191,694,o),
(411,694,cs),
(522,694,o),
(584,616,o),
(584,480,cs),
(584,312,o),
(487,16,o),
(267,16,cs)
);
}
);
width = 640;
},
{
background = {
shapes = (
{
closed = 1;
nodes = (
(501,-16,o),
(651,125,o),
(700,354,cs),
(749,584,o),
(658,726,o),
(463,726,cs),
(267,726,o),
(116,584,o),
(67,354,cs),
(18,124,o),
(108,-16,o),
(305,-16,cs)
);
},
{
closed = 1;
nodes = (
(263,141,o),
(237,209,o),
(268,354,cs),
(299,499,o),
(353,569,o),
(429,569,cs),
(504,569,o),
(530,499,o),
(499,354,cs),
(468,209,o),
(414,141,o),
(339,141,cs)
);
}
);
};
layerId = "3507EE3D-0D92-4546-A145-3A991F0A2B71";
shapes = (
{
closed = 1;
nodes = (
(549,-16,o),
(713,177,o),
(713,469,cs),
(713,632,o),
(621,726,o),
(463,726,cs),
(219,726,o),
(54,531,o),
(54,239,cs),
(54,76,o),
(145,-16,o),
(305,-16,cs)
);
},
{
closed = 1;
nodes = (
(283,141,o),
(255,178,o),
(255,251,cs),
(255,431,o),
(340,569,o),
(432,569,cs),
(484,569,o),
(512,531,o),
(512,457,cs),
(512,277,o),
(428,141,o),
(336,141,cs)
);
}
);
width = 732;
},
{
background = {
shapes = (
{
closed = 1;
nodes = (
(445,-16,o),
(585,127,o),
(633,354,cs),
(681,583,o),
(603,726,o),
(430,726,cs),
(258,726,o),
(118,582,o),
(70,354,cs),
(22,127,o),
(100,-16,o),
(272,-16,cs)
);
},
{
closed = 1;
nodes = (
(168,68,o),
(121,171,o),
(160,354,cs),
(199,538,o),
(290,642,o),
(412,642,cs),
(535,642,o),
(582,538,o),
(543,354,cs),
(504,171,o),
(413,68,o),
(290,68,cs)
);
}
);
};
layerId = "6C190511-B94A-4F5A-B519-D6E9DB0E7B93";
shapes = (
{
closed = 1;
nodes = (
(475,-16,o),
(647,211,o),
(647,478,cs),
(647,636,o),
(567,726,o),
(430,726,cs),
(229,726,o),
(56,497,o),
(56,231,cs),
(56,73,o),
(136,-16,o),
(272,-16,cs)
);
},
{
closed = 1;
nodes = (
(197,68,o),
(147,127,o),
(147,241,cs),
(147,461,o),
(268,642,o),
(412,642,cs),
(506,642,o),
(556,582,o),
(556,468,cs),
(556,248,o),
(435,68,o),
(290,68,cs)
);
}
);
width = 666;
}
);
metricLeft = "=O+5";
metricRight = "=O+5";
unicode = 48;
}
{
color = 4;
glyphname = three;
kernLeft = three;
kernRight = three;
layers = (
{
background = {
shapes = (
{
closed = 1;
nodes = (
(368,-16,o),
(488,69,o),
(515,195,cs),
(537,299,o),
(474,374,o),
(348,392,c),
(344,376,l),
(466,389,o),
(546,452,o),
(565,543,cs),
(589,654,o),
(517,726,o),
(387,726,cs),
(267,726,o),
(174,663,o),
(134,564,c),
(168,561,l),
(201,643,o),
(282,694,o),
(380,694,cs),
(492,694,o),
(551,635,o),
(531,543,cs),
(512,454,o),
(427,397,o),
(307,397,cs),
(240,397,l),
(234,367,l),
(301,367,ls),
(432,367,o),
(503,300,o),
(482,199,cs),
(458,85,o),
(357,16,o),
(232,16,cs),
(109,16,o),
(43,80,o),
(53,177,c),
(22,174,l),
(7,60,o),
(84,-16,o),
(225,-16,cs)
);
}
);
};
layerId = "EE2FFE84-06F1-4AFB-BBEC-60D09A436D14";
shapes = (
{
closed = 1;
nodes = (
(401,-16,o),
(520,76,o),
(520,228,cs),
(520,313,o),
(457,376,o),
(348,392,c),
(344,376,l),
(469,389,o),
(570,450,o),
(570,578,cs),
(570,673,o),
(507,726,o),
(387,726,cs),
(257,726,o),
(174,663,o),
(134,564,c),
(168,561,l),
(201,643,o),
(278,694,o),
(380,694,cs),
(492,694,o),
(536,650,o),
(536,570,cs),
(536,459,o),
(432,397,o),
(307,397,cs),
(240,397,l),
(234,367,l),
(301,367,ls),
(417,367,o),
(486,311,o),
(486,225,cs),
(486,85,o),
(372,16,o),
(234,16,cs),
(114,16,o),
(63,64,o),
(63,177,c),
(32,174,l),
(32,43,o),
(101,-16,o),
(231,-16,cs)
);
}
);
width = 609;
},
{
background = {
shapes = (
{
closed = 1;
nodes = (
(444,-16,o),
(573,66,o),
(601,200,cs),
(622,299,o),
(572,360,o),
(458,380,c),
(455,364,l),
(559,382,o),
(630,441,o),
(647,522,cs),
(674,648,o),
(596,726,o),
(412,726,cs),
(244,726,o),
(121,643,o),
(80,513,c),
(274,504,l),
(287,540,o),
(320,569,o),
(378,569,cs),
(435,569,o),
(451,539,o),
(442,498,cs),
(432,449,o),
(392,429,o),
(347,429,cs),
(278,429,l),
(250,297,l),
(319,297,ls),
(383,297,o),
(415,268,o),
(404,218,cs),
(394,172,o),
(351,141,o),
(294,141,cs),
(233,141,o),
(206,171,o),
(213,231,c),
(12,225,l),
(-13,73,o),
(72,-16,o),
(260,-16,cs)
);
}
);
};
layerId = "3507EE3D-0D92-4546-A145-3A991F0A2B71";
shapes = (
{
closed = 1;
nodes = (
(472,-16,o),
(606,72,o),
(606,232,cs),
(606,316,o),
(555,361,o),
(458,378,c),
(455,362,l),
(566,381,o),
(650,434,o),
(650,544,cs),
(650,644,o),
(578,726,o),
(410,726,cs),
(200,726,o),
(123,643,o),
(84,513,c),
(278,504,l),
(288,540,o),
(318,569,o),
(378,569,cs),
(425,569,o),
(450,550,o),
(450,506,cs),
(450,459,o),
(412,429,o),
(347,429,cs),
(278,429,l),
(250,297,l),
(319,297,ls),
(375,297,o),
(406,280,o),
(406,230,cs),
(406,168,o),
(360,141,o),
(296,141,cs),
(235,141,o),
(213,161,o),
(213,231,c),
(12,225,l),
(12,59,o),
(74,-16,o),
(272,-16,cs)
);
}
);
width = 674;
},
{
background = {
shapes = (
{
closed = 1;
nodes = (
(376,-16,o),
(501,62,o),
(530,198,cs),
(552,302,o),
(494,376,o),
(381,390,c),
(378,372,l),
(490,392,o),
(557,446,o),
(576,534,cs),
(601,652,o),
(529,726,o),
(385,726,cs),
(243,726,o),
(144,653,o),
(109,547,c),
(198,541,l),
(220,604,o),
(273,642,o),
(367,642,cs),
(461,642,o),
(501,603,o),
(485,530,cs),
(468,449,o),
(400,419,o),
(316,419,cs),
(260,419,l),
(242,335,l),
(298,335,ls),
(400,335,o),
(460,292,o),
(440,198,cs),
(419,102,o),
(332,68,o),
(240,68,cs),
(151,68,o),
(93,102,o),
(104,189,c),
(13,183,l),
(-5,66,o),
(64,-16,o),
(222,-16,cs)
);
}
);
};
layerId = "6C190511-B94A-4F5A-B519-D6E9DB0E7B93";
shapes = (
{
closed = 1;
nodes = (
(398,-16,o),
(534,72,o),
(534,240,cs),
(534,322,o),
(478,374,o),
(381,386,c),
(378,368,l),
(501,390,o),
(578,442,o),
(578,558,cs),
(578,660,o),
(514,726,o),
(384,726,cs),
(221,726,o),
(144,653,o),
(109,547,c),
(198,541,l),
(220,604,o),
(264,642,o),
(370,642,cs),
(451,642,o),
(488,613,o),
(488,548,cs),
(488,458,o),
(415,419,o),
(316,419,cs),
(260,419,l),
(242,335,l),
(298,335,ls),
(387,335,o),
(444,302,o),
(444,232,cs),
(444,111,o),
(340,68,o),
(246,68,cs),
(152,68,o),
(110,95,o),
(110,189,c),
(19,183,l),
(19,53,o),
(88,-16,o),
(232,-16,cs)
);
}
);
width = 613;
}
);
unicode = 51;
}
{
color = 4;
glyphname = four;
kernLeft = four;
kernRight = four;
layers = (
{
background = {
shapes = (
{
closed = 1;
nodes = (
(394,0,l),
(431,175,l),
(521,175,l),
(527,205,l),
(437,205,l),
(544,710,l),
(512,710,l),
(26,201,l),
(21,175,l),
(399,175,l),
(362,0,l)
);
},
{
closed = 1;
nodes = (
(501,657,l),
(405,205,l),
(69,205,l)
);
}
);
};
layerId = "EE2FFE84-06F1-4AFB-BBEC-60D09A436D14";
shapes = (
{
closed = 1;
nodes = (
(394,0,l),
(431,175,l),
(521,175,l),
(527,205,l),
(437,205,l),
(544,710,l),
(512,710,l),
(26,201,l),
(21,175,l),
(399,175,l),
(362,0,l)
);
},
{
closed = 1;
nodes = (
(501,657,l),
(405,205,l),
(69,205,l)
);
}
);
width = 600;
},
{
background = {
shapes = (
{
closed = 1;
nodes = (
(507,0,l),
(533,123,l),
(613,123,l),
(646,280,l),
(566,280,l),
(657,710,l),
(417,710,l),
(20,272,l),
(-11,123,l),
(337,123,l),
(311,0,l)
);
},
{
closed = 1;
nodes = (
(414,486,l),
(370,280,l),
(221,280,l)
);
}
);
};
layerId = "3507EE3D-0D92-4546-A145-3A991F0A2B71";
shapes = (
{
closed = 1;
nodes = (
(507,0,l),
(533,123,l),
(613,123,l),
(646,280,l),
(566,280,l),
(657,710,l),
(417,710,l),
(20,272,l),
(-11,123,l),
(337,123,l),
(311,0,l)
);
},
{
closed = 1;
nodes = (
(414,486,l),
(370,280,l),
(221,280,l)
);
}
);
width = 684;
},
{
background = {
shapes = (
{
closed = 1;
nodes = (
(421,0,l),
(453,154,l),
(541,154,l),
(559,238,l),
(471,238,l),
(571,710,l),
(479,710,l),
(23,232,l),
(6,154,l),
(367,154,l),
(335,0,l)
);
},
{
closed = 1;
nodes = (
(457,578,l),
(385,238,l),
(128,238,l)
);
}
);
};
layerId = "6C190511-B94A-4F5A-B519-D6E9DB0E7B93";
shapes = (
{
closed = 1;
nodes = (
(421,0,l),
(453,154,l),
(541,154,l),
(559,238,l),
(471,238,l),
(571,710,l),
(479,710,l),
(23,232,l),
(6,154,l),
(367,154,l),
(335,0,l)
);
},
{
closed = 1;
nodes = (
(457,578,l),
(385,238,l),
(128,238,l)
);
}
);
width = 615;
}
);
unicode = 52;
}
{
color = 4;
glyphname = five;
kernLeft = five;
kernRight = five;
layers = (
{
background = {
shapes = (
{
closed = 1;
nodes = (
(369,-16,o),
(486,80,o),
(518,228,cs),
(547,365,o),
(485,471,o),
(334,471,cs),
(244,471,o),
(146,418,o),
(103,344,c),
(110,336,l),
(223,680,l),
(569,680,l),
(575,710,l),
(201,710,l),
(76,327,l),
(115,327,l),
(161,395,o),
(246,439,o),
(328,439,cs),
(460,439,o),
(509,347,o),
(484,228,cs),
(455,95,o),
(359,16,o),
(239,16,cs),
(121,16,o),
(58,76,o),
(66,176,c),
(33,173,l),
(22,63,o),
(94,-16,o),
(232,-16,cs)
);
}
);
};
layerId = "EE2FFE84-06F1-4AFB-BBEC-60D09A436D14";
shapes = (
{
closed = 1;
nodes = (
(414,-16,o),
(524,118,o),
(524,290,cs),
(524,395,o),
(461,471,o),
(334,471,cs),
(234,471,o),
(145,420,o),
(103,344,c),
(110,336,l),
(223,680,l),
(569,680,l),
(575,710,l),
(201,710,l),
(76,327,l),
(115,327,l),
(161,395,o),
(246,439,o),
(328,439,cs),
(442,439,o),
(490,376,o),
(490,286,cs),
(490,136,o),
(386,16,o),
(234,16,cs),
(114,16,o),
(66,60,o),
(66,176,c),
(33,173,l),
(33,43,o),
(94,-16,o),
(230,-16,cs)
);
}
);
width = 613;
},
{
background = {
shapes = (
{
closed = 1;
nodes = (
(455,-16,o),
(591,79,o),
(626,242,cs),
(654,373,o),
(587,474,o),
(437,474,cs),
(351,474,o),
(286,442,o),
(242,396,c),
(257,382,l),
(316,553,l),
(643,553,l),
(676,710,l),
(186,710,l),
(45,284,l),
(237,284,l),
(256,315,o),
(295,342,o),
(347,342,cs),
(408,342,o),
(438,300,o),
(426,242,cs),
(412,178,o),
(368,142,o),
(304,142,cs),
(249,142,o),
(223,164,o),
(221,212,c),
(23,204,l),
(6,69,o),
(81,-16,o),
(271,-16,cs)
);
}
);
};
layerId = "3507EE3D-0D92-4546-A145-3A991F0A2B71";
shapes = (
{
closed = 1;
nodes = (
(482,-16,o),
(625,98,o),
(625,293,cs),
(625,403,o),
(561,474,o),
(433,474,cs),
(347,474,o),
(290,442,o),
(248,396,c),
(263,382,l),
(322,553,l),
(643,553,l),
(676,710,l),
(192,710,l),
(51,284,l),
(243,284,l),
(260,315,o),
(295,342,o),
(347,342,cs),
(399,342,o),
(425,314,o),
(425,266,cs),
(425,188,o),
(374,142,o),
(300,142,cs),
(255,142,o),
(227,164,o),
(227,212,c),
(29,204,l),
(29,36,o),
(111,-16,o),
(272,-16,cs)
);
}
);
width = 701;
},
{
background = {
shapes = (
{
closed = 1;
nodes = (
(384,-16,o),
(509,85,o),
(540,228,cs),
(570,370,o),
(495,473,o),
(353,473,cs),
(277,473,o),
(201,441,o),
(157,380,c),
(170,364,l),
(257,626,l),
(576,626,l),
(594,710,l),
(196,710,l),
(64,311,l),
(156,311,l),
(190,361,o),
(253,391,o),
(319,391,cs),
(423,391,o),
(471,328,o),
(450,228,cs),
(428,128,o),
(353,68,o),
(253,68,cs),
(163,68,o),
(109,109,o),
(116,189,c),
(25,183,l),
(10,65,o),
(85,-16,o),
(235,-16,cs)
);
}
);
};
layerId = "6C190511-B94A-4F5A-B519-D6E9DB0E7B93";
shapes = (
{
closed = 1;
nodes = (
(426,-16,o),
(546,116,o),
(546,288,cs),
(546,398,o),
(474,473,o),
(353,473,cs),
(267,473,o),
(201,441,o),
(157,380,c),
(170,364,l),
(257,626,l),
(576,626,l),
(594,710,l),
(196,710,l),
(64,311,l),
(156,311,l),
(190,361,o),
(253,391,o),
(319,391,cs),
(407,391,o),
(456,348,o),
(456,278,cs),
(456,150,o),
(375,68,o),
(248,68,cs),
(154,68,o),
(116,101,o),
(116,189,c),
(25,183,l),
(25,41,o),
(93,-16,o),
(232,-16,cs)
);
}
);
width = 626;
}
);
unicode = 53;
}
{
color = 4;
glyphname = six;
kernLeft = O;
kernRight = six;
layers = (
{
background = {
shapes = (
{
closed = 1;
nodes = (
(374,-16,o),
(490,84,o),
(522,234,cs),
(552,376,o),
(482,472,o),
(342,472,cs),
(226,472,o),
(124,404,o),
(79,302,c),
(88,298,l),
(151,568,o),
(271,694,o),
(403,694,cs),
(504,694,o),
(544,633,o),
(548,559,c),
(582,563,l),
(573,659,o),
(524,726,o),
(410,726,cs),
(227,726,o),
(108,533,o),
(58,298,cs),
(11,78,o),
(93,-16,o),
(238,-16,cs)
);
},
{
closed = 1;
nodes = (
(115,16,o),
(57,113,o),
(84,242,cs),
(109,362,o),
(218,441,o),
(335,441,cs),
(455,441,o),
(514,357,o),
(488,234,cs),
(459,96,o),
(361,16,o),
(245,16,cs)
);
}
);
};
layerId = "EE2FFE84-06F1-4AFB-BBEC-60D09A436D14";
shapes = (
{
closed = 1;
nodes = (
(411,-16,o),
(522,105,o),
(522,296,cs),
(522,403,o),
(460,472,o),
(341,472,cs),
(213,472,o),
(122,404,o),
(78,302,c),
(87,298,l),
(116,556,o),
(255,694,o),
(401,694,cs),
(509,694,o),
(541,637,o),
(547,559,c),
(581,563,l),
(573,661,o),
(523,726,o),
(409,726,cs),
(205,726,o),
(45,518,o),
(45,194,cs),
(45,48,o),
(120,-16,o),
(237,-16,cs)
);
},
{
closed = 1;
nodes = (
(135,16,o),
(79,66,o),
(79,194,cs),
(79,331,o),
(193,441,o),
(335,441,cs),
(436,441,o),
(488,382,o),
(488,290,cs),
(488,122,o),
(393,16,o),
(243,16,cs)
);
}
);
width = 618;
},
{
background = {
shapes = (
{
closed = 1;
nodes = (
(438,-16,o),
(572,71,o),
(606,232,cs),
(635,368,o),
(558,458,o),
(410,458,cs),
(310,458,o),
(246,412,o),
(216,364,c),
(238,360,l),
(276,508,o),
(334,573,o),
(412,573,cs),
(462,573,o),
(480,553,o),
(488,516,c),
(665,528,l),
(666,652,o),
(591,726,o),
(446,726,cs),
(242,726,o),
(97,561,o),
(46,321,cs),
(1,111,o),
(68,-16,o),
(267,-16,cs)
);
},
{
closed = 1;
nodes = (
(236,130,o),
(206,170,o),
(218,230,cs),
(231,290,o),
(280,332,o),
(340,332,cs),
(397,332,o),
(426,289,o),
(413,230,cs),
(401,170,o),
(353,130,o),
(295,130,cs)
);
}
);
};
layerId = "3507EE3D-0D92-4546-A145-3A991F0A2B71";
shapes = (
{
closed = 1;
nodes = (
(476,-16,o),
(604,98,o),
(604,284,cs),
(604,389,o),
(537,458,o),
(410,458,cs),
(310,458,o),
(246,412,o),
(216,364,c),
(238,360,l),
(266,504,o),
(330,573,o),
(410,573,cs),
(462,573,o),
(482,554,o),
(488,516,c),
(665,528,l),
(659,654,o),
(587,726,o),
(436,726,cs),
(175,726,o),
(32,519,o),
(32,220,cs),
(32,70,o),
(108,-16,o),
(272,-16,cs)
);
},
{
closed = 1;
nodes = (
(245,130,o),
(226,160,o),
(226,206,cs),
(226,280,o),
(267,332,o),
(340,332,cs),
(384,332,o),
(408,303,o),
(408,258,cs),
(408,183,o),
(361,130,o),
(295,130,cs)
);
}
);
width = 685;
},
{
background = {
shapes = (
{
closed = 1;
nodes = (
(380,-16,o),
(505,80,o),
(538,236,cs),
(569,382,o),
(494,478,o),
(354,478,cs),
(252,478,o),
(165,416,o),
(128,344,c),
(145,340,l),
(192,542,o),
(283,642,o),
(401,642,cs),
(479,642,o),
(507,606,o),
(511,550,c),
(603,558,l),
(596,658,o),
(545,726,o),
(419,726,cs),
(209,726,o),
(98,534,o),
(48,300,cs),
(5,97,o),
(73,-16,o),
(233,-16,cs)
);
},
{
closed = 1;
nodes = (
(155,68,o),
(108,138,o),
(129,236,cs),
(150,334,o),
(235,396,o),
(331,396,cs),
(420,396,o),
(469,334,o),
(448,236,cs),
(425,130,o),
(346,68,o),
(253,68,cs)
);
}
);
};
layerId = "6C190511-B94A-4F5A-B519-D6E9DB0E7B93";
shapes = (
{
closed = 1;
nodes = (
(423,-16,o),
(537,131,o),
(536,298,cs),
(536,409,o),
(473,478,o),
(354,478,cs),
(236,478,o),
(165,416,o),
(128,344,c),
(146,340,l),
(190,542,o),
(283,642,o),
(402,642,cs),
(479,642,o),
(509,606,o),
(511,550,c),
(603,558,l),
(599,658,o),
(546,726,o),
(420,726,cs),
(196,726,o),
(36,503,o),
(36,192,cs),
(36,54,o),
(105,-16,o),
(233,-16,cs)
);
},
{
closed = 1;
nodes = (
(169,68,o),
(126,108,o),
(126,192,cs),
(126,317,o),
(223,396,o),
(331,396,cs),
(406,396,o),
(446,353,o),
(446,280,cs),
(447,175,o),
(372,68,o),
(252,68,cs)
);
}
);
width = 624;
}
);
unicode = 54;
}
{
color = 4;
glyphname = seven;
kernLeft = T;
kernRight = seven;
layers = (
{
background = {
shapes = (
{
closed = 1;
nodes = (
(173,0,l),
(227,258,o),
(394,508,o),
(579,682,c),
(584,710,l),
(115,710,l),
(109,680,l),
(541,680,l),
(350,500,o),
(190,240,o),
(139,0,c)
);
}
);
};
layerId = "EE2FFE84-06F1-4AFB-BBEC-60D09A436D14";
shapes = (
{
closed = 1;
nodes = (
(173,0,l),
(227,258,o),
(394,508,o),
(568,682,c),
(573,710,l),
(115,710,l),
(109,680,l),
(530,680,l),
(350,500,o),
(190,240,o),
(139,0,c)
);
}
);
width = 479;
},
{
background = {
shapes = (
{
closed = 1;
nodes = (
(268,0,l),
(323,260,o),
(432,419,o),
(592,563,c),
(623,710,l),
(85,710,l),
(52,553,l),
(395,553,l),
(242,407,o),
(116,220,o),
(70,0,c)
);
}
);
};
layerId = "3507EE3D-0D92-4546-A145-3A991F0A2B71";
shapes = (
{
closed = 1;
nodes = (
(297,0,l),
(352,260,o),
(461,419,o),
(610,563,c),
(641,710,l),
(114,710,l),
(81,553,l),
(413,553,l),
(271,407,o),
(145,220,o),
(99,0,c)
);
}
);
width = 548;
},
{
background = {
shapes = (
{
closed = 1;
nodes = (
(211,0,l),
(262,240,o),
(381,428,o),
(603,632,c),
(619,710,l),
(115,710,l),
(98,626,l),
(508,626,l),
(311,444,o),
(169,220,o),
(123,0,c)
);
}
);
};
layerId = "6C190511-B94A-4F5A-B519-D6E9DB0E7B93";
shapes = (
{
closed = 1;
nodes = (
(211,0,l),
(262,240,o),
(380,428,o),
(592,632,c),
(608,710,l),
(115,710,l),
(98,626,l),
(497,626,l),
(310,444,o),
(169,220,o),
(123,0,c)
);
}
);
width = 514;
}
);
metricLeft = "=20";
metricRight = "=0";
unicode = 55;
}
{
color = 4;
glyphname = nine;
kernLeft = nine;
kernRight = O;
layers = (
{
background = {
shapes = (
{
closed = 1;
nodes = (
(405,-16,o),
(510,176,o),
(561,416,cs),
(602,608,o),
(542,726,o),
(380,726,cs),
(244,726,o),
(127,622,o),
(95,474,cs),
(66,334,o),
(140,238,o),
(276,238,cs),
(384,238,o),
(483,300,o),
(539,401,c),
(529,415,l),
(473,153,o),
(366,16,o),
(222,16,cs),
(138,16,o),
(87,56,o),
(80,126,c),
(46,122,l),
(55,37,o),
(117,-16,o),
(215,-16,cs)
);
},
{
closed = 1;
nodes = (
(167,270,o),
(104,353,o),
(129,474,cs),
(157,603,o),
(257,694,o),
(373,694,cs),
(501,694,o),
(563,593,o),
(536,470,cs),
(511,352,o),
(403,270,o),
(283,270,cs)
);
}
);
};
layerId = "EE2FFE84-06F1-4AFB-BBEC-60D09A436D14";
shapes = (
{
closed = 1;
nodes = (
(425,-16,o),
(574,212,o),
(574,524,cs),
(574,652,o),
(518,726,o),
(380,726,cs),
(189,726,o),
(94,584,o),
(94,416,cs),
(94,308,o),
(160,238,o),
(276,238,cs),
(410,238,o),
(490,303,o),
(546,404,c),
(534,418,l),
(508,198,o),
(382,16,o),
(214,16,cs),
(138,16,o),
(86,54,o),
(80,126,c),
(46,122,l),
(56,34,o),
(117,-16,o),
(207,-16,cs)
);
},
{
closed = 1;
nodes = (
(175,270,o),
(128,329,o),
(128,422,cs),
(128,568,o),
(217,694,o),
(373,694,cs),
(501,694,o),
(541,621,o),
(540,524,cs),
(538,371,o),
(413,270,o),
(283,270,cs)
);
}
);
width = 618;
},
{
background = {
shapes = (
{
closed = 1;
nodes = (
(453,-16,o),
(588,114,o),
(642,368,cs),
(692,606,o),
(615,726,o),
(411,726,cs),
(240,726,o),
(110,625,o),
(77,466,cs),
(47,326,o),
(121,234,o),
(264,234,cs),
(353,234,o),
(414,260,o),
(463,320,c),
(447,331,l),
(417,190,o),
(373,137,o),
(286,137,cs),
(244,137,o),
(220,153,o),
(214,185,c),
(30,175,l),
(40,44,o),
(111,-16,o),
(253,-16,cs)
);
},
{
closed = 1;
nodes = (
(284,360,o),
(257,402,o),
(271,470,cs),
(286,540,o),
(332,580,o),
(389,580,cs),
(449,580,o),
(474,540,o),
(459,470,cs),
(445,402,o),
(401,360,o),
(342,360,cs)
);
}
);
};
layerId = "3507EE3D-0D92-4546-A145-3A991F0A2B71";
shapes = (
{
closed = 1;
nodes = (
(501,-16,o),
(658,144,o),
(658,490,cs),
(658,656,o),
(570,726,o),
(402,726,cs),
(184,726,o),
(76,594,o),
(76,418,cs),
(76,308,o),
(142,234,o),
(264,234,cs),
(353,234,o),
(427,260,o),
(476,320,c),
(448,334,l),
(418,170,o),
(358,137,o),
(286,137,cs),
(238,137,o),
(218,151,o),
(214,185,c),
(30,175,l),
(38,41,o),
(114,-16,o),
(260,-16,cs)
);
},
{
closed = 1;
nodes = (
(296,360,o),
(272,392,o),
(272,440,cs),
(272,528,o),
(311,580,o),
(384,580,cs),
(432,580,o),
(458,554,o),
(458,498,cs),
(458,412,o),
(417,360,o),
(342,360,cs)
);
}
);
width = 692;
},
{
background = {
shapes = (
{
closed = 1;
nodes = (
(416,-16,o),
(521,159,o),
(572,397,cs),
(614,596,o),
(564,726,o),
(386,726,cs),
(243,726,o),
(118,629,o),
(85,474,cs),
(54,326,o),
(131,226,o),
(269,226,cs),
(361,226,o),
(443,277,o),
(496,366,c),
(476,370,l),
(429,158,o),
(345,68,o),
(227,68,cs),
(157,68,o),
(121,96,o),
(115,144,c),
(23,137,l),
(30,49,o),
(91,-16,o),
(209,-16,cs)
);
},
{
closed = 1;
nodes = (
(203,311,o),
(154,374,o),
(175,474,cs),
(196,572,o),
(270,642,o),
(368,642,cs),
(468,642,o),
(514,570,o),
(493,472,cs),
(471,370,o),
(390,311,o),
(293,311,cs)
);
}
);
};
layerId = "6C190511-B94A-4F5A-B519-D6E9DB0E7B93";
shapes = (
{
closed = 1;
nodes = (
(450,-16,o),
(586,186,o),
(586,512,cs),
(586,652,o),
(526,726,o),
(386,726,cs),
(192,726,o),
(87,593,o),
(87,416,cs),
(87,304,o),
(151,226,o),
(269,226,cs),
(361,226,o),
(455,277,o),
(508,368,c),
(490,374,l),
(460,164,o),
(365,68,o),
(220,68,cs),
(150,68,o),
(124,96,o),
(118,144,c),
(26,137,l),
(32,43,o),
(89,-16,o),
(209,-16,cs)
);
},
{
closed = 1;
nodes = (
(213,311,o),
(177,345,o),
(177,424,cs),
(177,552,o),
(254,642,o),
(368,642,cs),
(461,642,o),
(498,591,o),
(498,510,cs),
(498,403,o),
(423,311,o),
(293,311,cs)
);
}
);
width = 624;
}
);
unicode = 57;
}
{
color = 4;
glyphname = question;
kernLeft = question;
kernRight = question;
layers = (
{
anchors = (
{
name = top;
pos = (300,530);
}
);
associatedMasterId = "EE2FFE84-06F1-4AFB-BBEC-60D09A436D14";
layerId = "AA39E20D-F874-4972-B780-940C54564949";
name = "25 de ene. de 23 10:43";
shapes = (
{
closed = 1;
nodes = (
(342,-6,o),
(367,18,o),
(367,51,cs),
(367,84,o),
(342,108,o),
(309,108,cs),
(276,108,o),
(251,84,o),
(251,51,cs),
(251,18,o),
(276,-6,o),
(309,-6,cs)
);
},
{
closed = 1;
nodes = (
(350,204,l),
(350,278,o),
(369,317,o),
(419,351,cs),
(510,413,o),
(547,458,o),
(547,527,cs),
(547,649,o),
(455,726,o),
(309,726,cs),
(175,726,o),
(71,613,o),
(73,469,c),
(30,503,l),
(213,491,l),
(163,458,l),
(162,562,o),
(222,640,o),
(314,640,cs),
(400,640,o),
(456,593,o),
(455,527,cs),
(455,461,o),
(407,450,o),
(352,405,cs),
(289,352,o),
(266,297,o),
(266,204,c)
);
}
);
width = 617;
},
{
background = {
shapes = (
{
closed = 1;
nodes = (
(249,216,l),
(264,288,o),
(293,322,o),
(346,356,cs),
(460,429,o),
(497,464,o),
(515,552,cs),
(535,642,o),
(482,726,o),
(356,726,cs),
(223,726,o),
(126,639,o),
(88,499,c),
(120,497,l),
(154,619,o),
(234,694,o),
(350,694,cs),
(454,694,o),
(500,630,o),
(483,552,cs),
(467,474,o),
(445,450,o),
(337,380,cs),
(270,336,o),
(234,294,o),
(217,216,c)
);
}
);
};
layerId = "EE2FFE84-06F1-4AFB-BBEC-60D09A436D14";
name = Regular;
shapes = (
{
closed = 1;
nodes = (
(249,216,l),
(263,290,o),
(295,325,o),
(348,356,cs),
(460,422,o),
(518,464,o),
(518,576,cs),
(518,658,o),
(470,726,o),
(356,726,cs),
(212,726,o),
(128,643,o),
(100,499,c),
(132,497,l),
(154,627,o),
(232,694,o),
(350,694,cs),
(450,694,o),
(486,648,o),
(486,574,cs),
(486,486,o),
(444,444,o),
(334,380,cs),
(267,341,o),
(233,296,o),
(217,216,c)
);
},
{
pos = (168,0);
ref = period;
}
);
width = 508;
},
{
background = {
shapes = (
{
closed = 1;
nodes = (
(390,240,l),
(402,298,o),
(424,320,o),
(475,344,cs),
(577,392,o),
(615,426,o),
(634,516,cs),
(659,634,o),
(594,726,o),
(412,726,cs),
(236,726,o),
(121,631,o),
(81,501,c),
(280,493,l),
(298,549,o),
(332,576,o),
(380,576,cs),
(426,576,o),
(445,552,o),
(438,516,cs),
(430,480,o),
(417,464,o),
(340,434,cs),
(261,403,o),
(224,354,o),
(200,240,c)
);
}
);
};
layerId = "3507EE3D-0D92-4546-A145-3A991F0A2B71";
name = Regular;
shapes = (
{
closed = 1;
nodes = (
(390,240,l),
(402,298,o),
(424,322,o),
(475,344,cs),
(590,394,o),
(640,438,o),
(640,546,cs),
(640,648,o),
(572,726,o),
(406,726,cs),
(204,726,o),
(121,631,o),
(81,501,c),
(280,493,l),
(298,549,o),
(330,576,o),
(382,576,cs),
(422,576,o),
(440,560,o),
(440,526,cs),
(440,486,o),
(424,468,o),
(340,434,cs),
(263,403,o),
(224,356,o),
(200,240,c)
);
},
{
alignment = -1;
pos = (176,0);
ref = period;
}
);
width = 620;
},
{
background = {
shapes = (
{
closed = 1;
nodes = (
(296,201,l),
(311,271,o),
(333,303,o),
(394,338,cs),
(492,394,o),
(541,438,o),
(559,522,cs),
(585,641,o),
(513,726,o),
(383,726,cs),
(237,726,o),
(124,632,o),
(84,500,c),
(172,494,l),
(203,590,o),
(266,642,o),
(365,642,cs),
(446,642,o),
(484,591,o),
(469,522,cs),
(456,462,o),
(435,438,o),
(347,390,cs),
(269,347,o),
(230,297,o),
(210,201,c)
);
}
);
};
layerId = "6C190511-B94A-4F5A-B519-D6E9DB0E7B93";
name = Regular;
shapes = (
{
closed = 1;
nodes = (
(296,201,l),
(311,271,o),
(333,306,o),
(394,338,cs),
(502,394,o),
(562,444,o),
(562,560,cs),
(562,656,o),
(506,726,o),
(376,726,cs),
(208,726,o),
(128,632,o),
(94,500,c),
(182,494,l),
(207,590,o),
(264,642,o),
(364,642,cs),
(438,642,o),
(472,609,o),
(472,548,cs),
(472,470,o),
(444,442,o),
(346,392,cs),
(267,352,o),
(230,297,o),
(210,201,c)
);
},
{
alignment = -1;
pos = (170,0);
ref = period;
}
);
width = 550;
}
);
metricLeft = o;
metricRight = o;
unicode = 63;
}
{
color = 4;
glyphname = A;
kernLeft = A;
kernRight = A;
layers = (
{
anchors = (
{
name = bottom;
pos = (243,0);
},
{
name = ogonek;
pos = (520,0);
},
{
name = top;
pos = (393,710);
}
);
background = {
shapes = (
{
closed = 1;
nodes = (
(-6,0,l),
(129,235,l),
(455,235,l),
(492,0,l),
(525,0,l),
(412,710,l),
(374,710,l),
(-39,0,l)
);
},
{
closed = 1;
nodes = (
(387,678,l),
(451,265,l),
(147,265,l)
);
}
);
};
layerId = "EE2FFE84-06F1-4AFB-BBEC-60D09A436D14";
shapes = (
{
closed = 1;
nodes = (
(3,0,l),
(388,678,l),
(489,0,l),
(520,0,l),
(412,710,l),
(374,710,l),
(-32,0,l)
);
},
{
closed = 1;
nodes = (
(463,235,l),
(459,265,l),
(138,265,l),
(120,235,l)
);
}
);
width = 600;
},
{
anchors = (
{
name = bottom;
pos = (352,0);
},
{
name = ogonek;
pos = (634,0);
},
{
name = top;
pos = (352,710);
}
);
associatedMasterId = "EE2FFE84-06F1-4AFB-BBEC-60D09A436D14";
background = {
shapes = (
{
closed = 1;
nodes = (
(133,0,l),
(216,239,l),
(360,655,l),
(345,655,l),
(485,247,l),
(571,0,l),
(667,0,l),
(411,710,l),
(293,710,l),
(37,0,l)
);
},
{
closed = 1;
nodes = (
(180,201,l),
(535,201,l),
(535,287,l),
(180,287,l)
);
}
);
};
layerId = "B79994D4-476F-4D20-B932-F759658767FF";
name = "22 Feb 23 16:32";
shapes = (
{
closed = 1;
nodes = (
(103,0,l),
(352,678,l),
(601,0,l),
(634,0,l),
(371,710,l),
(333,710,l),
(70,0,l)
);
},
{
closed = 1;
nodes = (
(180,235,l),
(528,235,l),
(528,265,l),
(180,265,l)
);
}
);
width = 704;
},
{
anchors = (
{
name = bottom;
pos = (322,0);
},
{
name = ogonek;
pos = (685,0);
},
{
name = top;
pos = (472,710);
}
);
background = {
shapes = (
{
closed = 1;
nodes = (
(153,0,l),
(217,117,l),
(473,117,l),
(489,0,l),
(689,0,l),
(583,710,l),
(360,710,l),
(-46,0,l)
);
},
{
closed = 1;
nodes = (
(427,494,l),
(455,269,l),
(302,269,l)
);
}
);
};
layerId = "3507EE3D-0D92-4546-A145-3A991F0A2B71";
shapes = (
{
closed = 1;
nodes = (
(165,0,l),
(431,494,l),
(489,0,l),
(685,0,l),
(583,710,l),
(360,710,l),
(-39,0,l)
);
},
{
closed = 1;
nodes = (
(489,117,l),
(471,269,l),
(286,269,l),
(201,117,l)
);
}
);
width = 760;
},
{
anchors = (
{
name = bottom;
pos = (272,0);
},
{
name = ogonek;
pos = (582,0);
},
{
name = top;
pos = (422,710);
}
);
background = {
shapes = (
{
closed = 1;
nodes = (
(52,0,l),
(165,202,l),
(463,202,l),
(492,0,l),
(586,0,l),
(480,710,l),
(364,710,l),
(-42,0,l)
);
},
{
closed = 1;
nodes = (
(407,635,l),
(452,286,l),
(212,286,l)
);
}
);
};
layerId = "6C190511-B94A-4F5A-B519-D6E9DB0E7B93";
shapes = (
{
closed = 1;
nodes = (
(62,0,l),
(411,635,l),
(492,0,l),
(582,0,l),
(480,710,l),
(364,710,l),
(-36,0,l)
);
},
{
closed = 1;
nodes = (
(479,202,l),
(468,286,l),
(196,286,l),
(149,202,l)
);
}
);
width = 658;
}
);
metricLeft = V;
metricRight = V;
unicode = 65;
}
{
color = 3;
glyphname = B;
kernLeft = b;
kernRight = B;
layers = (
{
anchors = (
{
name = bottom;
pos = (256,0);
},
{
name = top;
pos = (406,710);
}
);
background = {
anchors = (
{
name = bottom;
pos = (256,0);
},
{
name = top;
pos = (406,710);
}
);
shapes = (
{
closed = 1;
nodes = (
(290,0,ls),
(444,0,o),
(533,63,o),
(560,189,cs),
(582,294,o),
(517,360,o),
(391,360,c),
(390,354,l),
(493,354,o),
(579,423,o),
(600,520,cs),
(627,647,o),
(560,710,o),
(400,710,cs),
(183,710,l),
(33,0,l)
);
},
{
closed = 1;
nodes = (
(137,339,l),
(362,339,ls),
(482,339,o),
(545,281,o),
(526,189,cs),
(503,81,o),
(427,30,o),
(296,30,cs),
(71,30,l)
);
},
{
closed = 1;
nodes = (
(209,680,l),
(394,680,ls),
(532,680,o),
(589,627,o),
(566,520,cs),
(545,423,o),
(460,369,o),
(328,369,cs),
(143,369,l)
);
}
);
};
layerId = "EE2FFE84-06F1-4AFB-BBEC-60D09A436D14";
shapes = (
{
closed = 1;
nodes = (
(290,0,ls),
(454,0,o),
(562,60,o),
(562,216,cs),
(562,302,o),
(501,360,o),
(391,360,c),
(390,354,l),
(516,354,o),
(604,443,o),
(604,564,cs),
(604,656,o),
(544,710,o),
(400,710,cs),
(191,710,l),
(41,0,l)
);
},
{
closed = 1;
nodes = (
(145,339,l),
(362,339,ls),
(476,339,o),
(528,297,o),
(528,210,cs),
(528,80,o),
(442,30,o),
(296,30,cs),
(79,30,l)
);
},
{
closed = 1;
nodes = (
(217,680,l),
(394,680,ls),
(523,680,o),
(570,640,o),
(570,560,cs),
(570,421,o),
(468,369,o),
(328,369,cs),
(151,369,l)
);
}
);
width = 634;
},
{
anchors = (
{
name = bottom;
pos = (303,0);
},
{
name = top;
pos = (453,710);
}
);
background = {
anchors = (
{
name = bottom;
pos = (303,0);
},
{
name = top;
pos = (453,710);
}
);
shapes = (
{
closed = 1;
nodes = (
(334,0,ls),
(517,0,o),
(632,63,o),
(660,196,cs),
(681,295,o),
(636,354,o),
(519,366,c),
(520,368,l),
(618,380,o),
(680,430,o),
(698,516,cs),
(727,650,o),
(635,710,o),
(454,710,cs),
(156,710,l),
(6,0,l)
);
},
{
closed = 1;
nodes = (
(265,297,l),
(384,297,ls),
(442,297,o),
(481,274,o),
(470,223,cs),
(459,172,o),
(409,150,o),
(352,150,cs),
(233,150,l)
);
},
{
closed = 1;
nodes = (
(321,560,l),
(415,560,ls),
(472,560,o),
(507,540,o),
(497,492,cs),
(487,446,o),
(442,425,o),
(386,425,cs),
(292,425,l)
);
}
);
};
layerId = "3507EE3D-0D92-4546-A145-3A991F0A2B71";
shapes = (
{
closed = 1;
nodes = (
(334,0,ls),
(538,0,o),
(668,66,o),
(668,238,cs),
(668,312,o),
(618,356,o),
(519,366,c),
(520,368,l),
(633,382,o),
(699,439,o),
(699,546,cs),
(699,655,o),
(618,710,o),
(454,710,cs),
(162,710,l),
(12,0,l)
);
},
{
closed = 1;
nodes = (
(271,297,l),
(384,297,ls),
(442,297,o),
(466,272,o),
(467,232,cs),
(468,175,o),
(426,150,o),
(352,150,cs),
(239,150,l)
);
},
{
closed = 1;
nodes = (
(327,560,l),
(415,560,ls),
(472,560,o),
(498,546,o),
(498,504,cs),
(498,450,o),
(454,425,o),
(386,425,cs),
(298,425,l)
);
}
);
width = 724;
},
{
anchors = (
{
name = bottom;
pos = (273,0);
},
{
name = top;
pos = (423,710);
}
);
background = {
anchors = (
{
name = bottom;
pos = (273,0);
},
{
name = top;
pos = (423,710);
}
);
shapes = (
{
closed = 1;
nodes = (
(309,0,ls),
(464,0,o),
(565,66,o),
(592,195,cs),
(614,299,o),
(554,370,o),
(433,370,c),
(433,364,l),
(535,364,o),
(611,427,o),
(631,519,cs),
(659,651,o),
(587,710,o),
(419,710,cs),
(175,710,l),
(25,0,l)
);
},
{
closed = 1;
nodes = (
(178,319,l),
(376,319,ls),
(473,319,o),
(519,275,o),
(503,200,cs),
(487,125,o),
(423,84,o),
(326,84,cs),
(128,84,l)
);
},
{
closed = 1;
nodes = (
(244,626,l),
(402,626,ls),
(510,626,o),
(556,590,o),
(540,515,cs),
(525,444,o),
(458,403,o),
(354,403,cs),
(196,403,l)
);
}
);
};
layerId = "6C190511-B94A-4F5A-B519-D6E9DB0E7B93";
shapes = (
{
closed = 1;
nodes = (
(310,0,ls),
(486,0,o),
(596,74,o),
(596,228,cs),
(596,316,o),
(535,370,o),
(434,370,c),
(434,362,l),
(552,362,o),
(632,432,o),
(632,550,cs),
(632,652,o),
(566,710,o),
(419,710,cs),
(187,710,l),
(37,0,l)
);
},
{
closed = 1;
nodes = (
(190,319,l),
(376,319,ls),
(473,319,o),
(506,284,o),
(506,216,cs),
(506,128,o),
(435,84,o),
(326,84,cs),
(140,84,l)
);
},
{
closed = 1;
nodes = (
(256,626,l),
(402,626,ls),
(502,626,o),
(542,597,o),
(542,532,cs),
(542,446,o),
(470,403,o),
(354,403,cs),
(208,403,l)
);
}
);
width = 672;
}
);
metricLeft = H;
metricRight = R;
unicode = 66;
}
{
color = 4;
glyphname = F;
kernLeft = b;
kernRight = F;
layers = (
{
background = {
shapes = (
{
closed = 1;
nodes = (
(73,0,l),
(147,350,l),
(138,339,l),
(514,339,l),
(520,369,l),
(144,369,l),
(146,344,l),
(219,689,l),
(210,680,l),
(604,680,l),
(610,710,l),
(191,710,l),
(41,0,l)
);
}
);
};
layerId = "EE2FFE84-06F1-4AFB-BBEC-60D09A436D14";
shapes = (
{
closed = 1;
nodes = (
(73,0,l),
(147,350,l),
(138,339,l),
(514,339,l),
(520,369,l),
(144,369,l),
(146,344,l),
(219,689,l),
(210,680,l),
(604,680,l),
(610,710,l),
(191,710,l),
(41,0,l)
);
}
);
width = 561;
},
{
background = {
shapes = (
{
closed = 1;
nodes = (
(208,0,l),
(282,350,l),
(153,269,l),
(570,269,l),
(603,425,l),
(186,425,l),
(281,344,l),
(350,669,l),
(213,553,l),
(648,553,l),
(681,710,l),
(162,710,l),
(12,0,l)
);
}
);
};
layerId = "3507EE3D-0D92-4546-A145-3A991F0A2B71";
shapes = (
{
closed = 1;
nodes = (
(208,0,l),
(282,350,l),
(153,269,l),
(570,269,l),
(603,425,l),
(186,425,l),
(281,344,l),
(350,669,l),
(213,553,l),
(648,553,l),
(681,710,l),
(162,710,l),
(12,0,l)
);
}
);
width = 621;
},
{
background = {
shapes = (
{
closed = 1;
nodes = (
(123,0,l),
(197,350,l),
(145,306,l),
(530,306,l),
(547,388,l),
(162,388,l),
(196,344,l),
(265,670,l),
(213,626,l),
(616,626,l),
(633,710,l),
(187,710,l),
(37,0,l)
);
}
);
};
layerId = "6C190511-B94A-4F5A-B519-D6E9DB0E7B93";
shapes = (
{
closed = 1;
nodes = (
(123,0,l),
(197,350,l),
(145,306,l),
(530,306,l),
(547,388,l),
(162,388,l),
(196,344,l),
(265,670,l),
(213,626,l),
(616,626,l),
(633,710,l),
(187,710,l),
(37,0,l)
);
}
);
width = 591;
}
);
metricLeft = H;
metricRight = "=E-5";
unicode = 70;
}
{
color = 3;
glyphname = I;
kernLeft = b;
kernRight = d;
layers = (
{
anchors = (
{
name = bottom;
pos = (57,0);
},
{
name = ogonek;
pos = (73,0);
},
{
name = top;
pos = (207,710);
}
);
background = {
anchors = (
{
name = bottom;
pos = (57,0);
},
{
name = ogonek;
pos = (73,0);
},
{
name = top;
pos = (207,710);
}
);
shapes = (
{
closed = 1;
nodes = (
(73,0,l),
(223,710,l),
(191,710,l),
(41,0,l)
);
}
);
};
layerId = "EE2FFE84-06F1-4AFB-BBEC-60D09A436D14";
shapes = (
{
closed = 1;
nodes = (
(73,0,l),
(223,710,l),
(191,710,l),
(41,0,l)
);
}
);
width = 225;
},
{
anchors = (
{
name = bottom;
pos = (110,0);
},
{
name = ogonek;
pos = (208,0);
},
{
name = top;
pos = (260,710);
}
);
background = {
anchors = (
{
name = bottom;
pos = (110,0);
},
{
name = ogonek;
pos = (208,0);
},
{
name = top;
pos = (260,710);
}
);
shapes = (
{
closed = 1;
nodes = (
(208,0,l),
(358,710,l),
(162,710,l),
(12,0,l)
);
}
);
};
layerId = "3507EE3D-0D92-4546-A145-3A991F0A2B71";
shapes = (
{
closed = 1;
nodes = (
(208,0,l),
(358,710,l),
(162,710,l),
(12,0,l)
);
}
);
width = 333;
},
{
anchors = (
{
name = bottom;
pos = (80,0);
},
{
name = ogonek;
pos = (123,0);
},
{
name = top;
pos = (230,710);
}
);
background = {
anchors = (
{
name = bottom;
pos = (80,0);
},
{
name = ogonek;
pos = (123,0);
},
{
name = top;
pos = (230,710);
}
);
shapes = (
{
closed = 1;
nodes = (
(123,0,l),
(273,710,l),
(187,710,l),
(37,0,l)
);
}
);
};
layerId = "6C190511-B94A-4F5A-B519-D6E9DB0E7B93";
shapes = (
{
closed = 1;
nodes = (
(123,0,l),
(273,710,l),
(187,710,l),
(37,0,l)
);
}
);
width = 271;
}
);
metricLeft = H;
metricRight = H;
unicode = 73;
}
{
color = 3;
glyphname = J;
kernLeft = J;
kernRight = U;
layers = (
{
anchors = (
{
name = top;
pos = (545,710);
}
);
background = {
anchors = (
{
name = top;
pos = (545,710);
}
);
shapes = (
{
closed = 1;
nodes = (
(324,-16,o),
(426,76,o),
(463,248,cs),
(561,710,l),
(529,710,l),
(431,248,ls),
(398,93,o),
(313,16,o),
(204,16,cs),
(101,16,o),
(48,92,o),
(76,236,c),
(42,233,l),
(10,76,o),
(75,-16,o),
(197,-16,cs)
);
}
);
};
layerId = "EE2FFE84-06F1-4AFB-BBEC-60D09A436D14";
shapes = (
{
closed = 1;
nodes = (
(336,-16,o),
(423,60,o),
(463,248,cs),
(561,710,l),
(529,710,l),
(431,250,ls),
(397,90,o),
(322,16,o),
(210,16,cs),
(136,16,o),
(89,46,o),
(89,146,cs),
(89,174,o),
(94,214,o),
(98,236,c),
(64,233,l),
(59,206,o),
(55,173,o),
(55,146,cs),
(55,38,o),
(109,-16,o),
(206,-16,cs)
);
}
);
width = 548;
},
{
anchors = (
{
name = top;
pos = (596,710);
}
);
background = {
anchors = (
{
name = top;
pos = (596,710);
}
);
shapes = (
{
closed = 1;
nodes = (
(426,-16,o),
(563,92,o),
(599,260,cs),
(694,710,l),
(498,710,l),
(403,260,ls),
(384,175,o),
(345,141,o),
(293,141,cs),
(240,141,o),
(216,179,o),
(235,275,c),
(37,267,l),
(5,105,o),
(72,-16,o),
(260,-16,cs)
);
}
);
};
layerId = "3507EE3D-0D92-4546-A145-3A991F0A2B71";
shapes = (
{
closed = 1;
nodes = (
(441,-16,o),
(557,62,o),
(599,260,cs),
(694,710,l),
(498,710,l),
(404,266,ls),
(386,180,o),
(346,141,o),
(286,141,cs),
(254,141,o),
(232,158,o),
(232,208,cs),
(232,228,o),
(235,255,o),
(241,275,c),
(43,267,l),
(37,245,o),
(33,214,o),
(33,188,cs),
(33,66,o),
(108,-16,o),
(263,-16,cs)
);
}
);
width = 654;
},
{
anchors = (
{
name = top;
pos = (567,710);
}
);
background = {
anchors = (
{
name = top;
pos = (567,710);
}
);
shapes = (
{
closed = 1;
nodes = (
(367,-16,o),
(477,86,o),
(511,248,cs),
(609,710,l),
(523,710,l),
(425,248,ls),
(401,133,o),
(336,68,o),
(246,68,cs),
(159,68,o),
(122,129,o),
(144,238,c),
(55,232,l),
(25,86,o),
(96,-16,o),
(228,-16,cs)
);
}
);
};
layerId = "6C190511-B94A-4F5A-B519-D6E9DB0E7B93";
shapes = (
{
closed = 1;
nodes = (
(371,-16,o),
(472,64,o),
(511,248,cs),
(609,710,l),
(523,710,l),
(425,248,ls),
(399,126,o),
(334,68,o),
(240,68,cs),
(176,68,o),
(142,93,o),
(142,166,cs),
(142,190,o),
(146,224,o),
(150,238,c),
(60,232,l),
(56,216,o),
(52,186,o),
(52,160,cs),
(52,42,o),
(121,-16,o),
(234,-16,cs)
);
}
);
width = 592;
}
);
metricLeft = "=U-10";
metricRight = U;
unicode = 74;
}
{
color = 3;
glyphname = M;
kernLeft = b;
kernRight = d;
layers = (
{
anchors = (
{
name = bottom;
pos = (366,0);
},
{
name = top;
pos = (516,710);
}
);
background = {
anchors = (
{
name = bottom;
pos = (366,0);
},
{
name = top;
pos = (516,710);
}
);
shapes = (
{
closed = 1;
nodes = (
(69,0,l),
(213,680,l),
(348,0,l),
(384,0,l),
(807,680,l),
(663,0,l),
(695,0,l),
(845,710,l),
(791,710,l),
(373,34,l),
(241,710,l),
(187,710,l),
(37,0,l)
);
}
);
};
layerId = "EE2FFE84-06F1-4AFB-BBEC-60D09A436D14";
shapes = (
{
closed = 1;
nodes = (
(73,0,l),
(217,680,l),
(348,0,l),
(384,0,l),
(802,680,l),
(658,0,l),
(690,0,l),
(840,710,l),
(786,710,l),
(372,34,l),
(245,710,l),
(191,710,l),
(41,0,l)
);
}
);
width = 842;
},
{
associatedMasterId = "EE2FFE84-06F1-4AFB-BBEC-60D09A436D14";
background = {
shapes = (
{
closed = 1;
nodes = (
(70,0,l),
(158,0,l),
(158,710,l),
(70,710,l)
);
},
{
closed = 1;
nodes = (
(363,0,l),
(471,0,l),
(737,710,l),
(642,710,l),
(404,62,l),
(429,62,l),
(192,710,l),
(97,710,l)
);
},
{
closed = 1;
nodes = (
(676,0,l),
(764,0,l),
(764,710,l),
(676,710,l)
);
}
);
};
layerId = "1FB2E68D-DD9B-4BCB-982F-D48DBDE51AF6";
name = "5 de feb. de 23 02:23";
shapes = (
{
closed = 1;
nodes = (
(88,0,l),
(120,0,l),
(120,656,l),
(401,0,l),
(435,0,l),
(714,678,l),
(714,0,l),
(746,0,l),
(746,710,l),
(692,710,l),
(417,34,l),
(192,710,l),
(88,710,l)
);
}
);
width = 600;
},
{
anchors = (
{
name = bottom;
pos = (417,0);
},
{
name = top;
pos = (567,710);
}
);
background = {
anchors = (
{
name = bottom;
pos = (417,0);
},
{
name = top;
pos = (567,710);
}
);
shapes = (
{
closed = 1;
nodes = (
(205,0,l),
(290,400,l),
(347,3,l),
(486,3,l),
(714,400,l),
(629,0,l),
(825,0,l),
(975,710,l),
(717,710,l),
(472,259,l),
(417,710,l),
(159,710,l),
(9,0,l)
);
}
);
};
layerId = "3507EE3D-0D92-4546-A145-3A991F0A2B71";
shapes = (
{
closed = 1;
nodes = (
(208,0,l),
(293,400,l),
(347,3,l),
(486,3,l),
(710,400,l),
(625,0,l),
(821,0,l),
(971,710,l),
(705,710,l),
(466,259,l),
(412,710,l),
(162,710,l),
(12,0,l)
);
}
);
width = 946;
},
{
anchors = (
{
name = bottom;
pos = (380,0);
},
{
name = top;
pos = (530,710);
}
);
background = {
anchors = (
{
name = bottom;
pos = (380,0);
},
{
name = top;
pos = (530,710);
}
);
shapes = (
{
closed = 1;
nodes = (
(119,0,l),
(235,550,l),
(322,0,l),
(437,0,l),
(756,550,l),
(640,0,l),
(726,0,l),
(876,710,l),
(756,710,l),
(400,94,l),
(303,710,l),
(183,710,l),
(33,0,l)
);
}
);
};
layerId = "6C190511-B94A-4F5A-B519-D6E9DB0E7B93";
shapes = (
{
closed = 1;
nodes = (
(123,0,l),
(239,550,l),
(322,0,l),
(437,0,l),
(752,550,l),
(636,0,l),
(722,0,l),
(872,710,l),
(750,710,l),
(394,94,l),
(305,710,l),
(187,710,l),
(37,0,l)
);
}
);
width = 870;
}
);
metricLeft = H;
metricRight = H;
unicode = 77;
}
{
color = 4;
glyphname = N;
kernLeft = b;
kernRight = d;
layers = (
{
anchors = (
{
name = bottom;
pos = (297,0);
},
{
name = top;
pos = (447,710);
}
);
background = {
anchors = (
{
name = bottom;
pos = (297,0);
},
{
name = top;
pos = (447,710);
}
);
shapes = (
{
closed = 1;
nodes = (
(69,0,l),
(213,680,l),
(509,0,l),
(556,0,l),
(706,710,l),
(674,710,l),
(530,30,l),
(234,710,l),
(187,710,l),
(37,0,l)
);
}
);
};
layerId = "EE2FFE84-06F1-4AFB-BBEC-60D09A436D14";
shapes = (
{
closed = 1;
nodes = (
(73,0,l),
(217,680,l),
(505,0,l),
(552,0,l),
(702,710,l),
(670,710,l),
(526,30,l),
(238,710,l),
(191,710,l),
(41,0,l)
);
}
);
width = 704;
},
{
anchors = (
{
name = bottom;
pos = (319,0);
},
{
name = top;
pos = (474,710);
}
);
background = {
anchors = (
{
name = bottom;
pos = (319,0);
},
{
name = top;
pos = (474,710);
}
);
shapes = (
{
closed = 1;
nodes = (
(204,0,l),
(284,380,l),
(441,0,l),
(639,0,l),
(789,710,l),
(593,710,l),
(508,310,l),
(356,710,l),
(158,710,l),
(8,0,l)
);
}
);
};
layerId = "3507EE3D-0D92-4546-A145-3A991F0A2B71";
shapes = (
{
closed = 1;
nodes = (
(208,0,l),
(288,380,l),
(437,0,l),
(635,0,l),
(785,710,l),
(589,710,l),
(504,310,l),
(360,710,l),
(162,710,l),
(12,0,l)
);
}
);
width = 760;
},
{
anchors = (
{
name = bottom;
pos = (314,0);
},
{
name = top;
pos = (477,710);
}
);
background = {
anchors = (
{
name = bottom;
pos = (314,0);
},
{
name = top;
pos = (477,710);
}
);
shapes = (
{
closed = 1;
nodes = (
(119,0,l),
(249,612,l),
(464,0,l),
(592,0,l),
(742,710,l),
(656,710,l),
(524,86,l),
(305,710,l),
(183,710,l),
(33,0,l)
);
}
);
};
layerId = "6C190511-B94A-4F5A-B519-D6E9DB0E7B93";
shapes = (
{
closed = 1;
nodes = (
(123,0,l),
(253,612,l),
(460,0,l),
(588,0,l),
(738,710,l),
(652,710,l),
(520,86,l),
(309,710,l),
(187,710,l),
(37,0,l)
);
}
);
width = 736;
}
);
metricLeft = H;
metricRight = H;
unicode = 78;
}
{
color = 3;
glyphname = P;
kernLeft = b;
kernRight = P;
layers = (
{
anchors = (
{
name = bottom;
pos = (250,0);
},
{
name = top;
pos = (400,710);
}
);
background = {
anchors = (
{
name = bottom;
pos = (250,0);
},
{
name = top;
pos = (400,710);
}
);
shapes = (
{
closed = 1;
nodes = (
(69,0,l),
(133,305,l),
(338,305,ls),
(488,305,o),
(595,382,o),
(621,505,cs),
(648,631,o),
(574,710,o),
(424,710,cs),
(187,710,l),
(37,0,l)
);
},
{
closed = 1;
nodes = (
(213,680,l),
(418,680,ls),
(550,680,o),
(611,617,o),
(587,505,cs),
(564,396,o),
(477,335,o),
(345,335,cs),
(140,335,l)
);
}
);
};
layerId = "EE2FFE84-06F1-4AFB-BBEC-60D09A436D14";
shapes = (
{
closed = 1;
nodes = (
(73,0,l),
(137,305,l),
(334,305,ls),
(516,305,o),
(618,404,o),
(618,554,cs),
(618,652,o),
(548,710,o),
(420,710,cs),
(191,710,l),
(41,0,l)
);
},
{
closed = 1;
nodes = (
(217,680,l),
(414,680,ls),
(527,680,o),
(584,632,o),
(584,550,cs),
(584,420,o),
(498,335,o),
(341,335,cs),
(144,335,l)
);
}
);
width = 608;
},
{
anchors = (
{
name = bottom;
pos = (285,0);
},
{
name = top;
pos = (435,710);
}
);
background = {
anchors = (
{
name = bottom;
pos = (285,0);
},
{
name = top;
pos = (435,710);
}
);
shapes = (
{
closed = 1;
nodes = (
(200,0,l),
(247,225,l),
(355,225,ls),
(533,225,o),
(662,318,o),
(694,467,cs),
(726,617,o),
(636,710,o),
(458,710,cs),
(154,710,l),
(4,0,l)
);
},
{
closed = 1;
nodes = (
(317,553,l),
(410,553,ls),
(472,553,o),
(506,523,o),
(494,467,cs),
(482,411,o),
(435,382,o),
(374,382,cs),
(281,382,l)
);
}
);
};
layerId = "3507EE3D-0D92-4546-A145-3A991F0A2B71";
shapes = (
{
closed = 1;
nodes = (
(208,0,l),
(255,225,l),
(355,225,ls),
(556,225,o),
(696,328,o),
(696,508,cs),
(696,644,o),
(606,710,o),
(454,710,cs),
(162,710,l),
(12,0,l)
);
},
{
closed = 1;
nodes = (
(325,553,l),
(410,553,ls),
(465,553,o),
(495,530,o),
(495,484,cs),
(495,414,o),
(447,382,o),
(374,382,cs),
(289,382,l)
);
}
);
width = 686;
},
{
anchors = (
{
name = bottom;
pos = (264,0);
},
{
name = top;
pos = (414,710);
}
);
background = {
anchors = (
{
name = bottom;
pos = (264,0);
},
{
name = top;
pos = (414,710);
}
);
shapes = (
{
closed = 1;
nodes = (
(117,0,l),
(175,276,l),
(344,276,ls),
(502,276,o),
(613,358,o),
(642,495,cs),
(670,630,o),
(594,710,o),
(436,710,cs),
(181,710,l),
(31,0,l)
);
},
{
closed = 1;
nodes = (
(250,626,l),
(419,626,ls),
(526,626,o),
(570,582,o),
(552,495,cs),
(533,406,o),
(469,360,o),
(362,360,cs),
(193,360,l)
);
}
);
};
layerId = "6C190511-B94A-4F5A-B519-D6E9DB0E7B93";
shapes = (
{
closed = 1;
nodes = (
(123,0,l),
(181,276,l),
(344,276,ls),
(528,276,o),
(645,376,o),
(645,536,cs),
(645,646,o),
(574,710,o),
(436,710,cs),
(187,710,l),
(37,0,l)
);
},
{
closed = 1;
nodes = (
(256,626,l),
(419,626,ls),
(519,626,o),
(555,596,o),
(555,528,cs),
(555,416,o),
(480,360,o),
(362,360,cs),
(199,360,l)
);
}
);
width = 646;
}
);
metricLeft = H;
metricRight = F;
unicode = 80;
}
{
color = 4;
glyphname = Q;
kernLeft = O;
kernRight = O;
layers = (
{
anchors = (
{
name = bottom;
pos = (284,0);
},
{
name = top;
pos = (435,710);
}
);
background = {
anchors = (
{
name = bottom;
pos = (284,0);
},
{
name = top;
pos = (435,710);
}
);
shapes = (
{
closed = 1;
nodes = (
(524,-69,l),
(462,37,l),
(559,99,o),
(632,206,o),
(663,354,cs),
(711,579,o),
(622,726,o),
(438,726,cs),
(254,726,o),
(103,579,o),
(55,354,cs),
(8,131,o),
(98,-16,o),
(281,-16,cs),
(336,-16,o),
(388,-3,o),
(435,22,c),
(486,-69,l)
);
},
{
closed = 1;
nodes = (
(122,16,o),
(45,146,o),
(89,354,cs),
(134,563,o),
(266,694,o),
(432,694,cs),
(598,694,o),
(674,563,o),
(629,354,cs),
(601,220,o),
(535,117,o),
(448,62,c),
(366,208,l),
(328,208,l),
(421,47,l),
(380,27,o),
(336,16,o),
(288,16,cs)
);
}
);
};
layerId = "EE2FFE84-06F1-4AFB-BBEC-60D09A436D14";
shapes = (
{
closed = 1;
nodes = (
(524,-69,l),
(366,208,l),
(328,208,l),
(486,-69,l)
);
},
{
ref = O;
}
);
width = 695;
},
{
associatedMasterId = "EE2FFE84-06F1-4AFB-BBEC-60D09A436D14";
background = {
shapes = (
{
closed = 1;
nodes = (
(567,-16,o),
(684,149,o),
(684,354,cs),
(684,560,o),
(568,726,o),
(362,726,cs),
(156,726,o),
(40,560,o),
(40,354,cs),
(40,149,o),
(157,-16,o),
(362,-16,cs)
);
},
{
closed = 1;
nodes = (
(208,70,o),
(132,200,o),
(132,354,cs),
(132,509,o),
(207,640,o),
(362,640,cs),
(517,640,o),
(592,509,o),
(592,354,cs),
(592,200,o),
(516,70,o),
(362,70,cs)
);
},
{
closed = 1;
nodes = (
(420,208,l),
(328,208,l),
(542,-69,l),
(634,-69,l)
);
}
);
};
layerId = "57B8AADA-883A-4D88-865F-303C17FF5ECC";
name = "24 de feb. de 23 09:24";
shapes = (
{
ref = O;
},
{
closed = 1;
nodes = (
(402,208,l),
(366,208,l),
(580,-69,l),
(616,-69,l)
);
}
);
width = 728;
},
{
associatedMasterId = "EE2FFE84-06F1-4AFB-BBEC-60D09A436D14";
background = {
shapes = (
{
closed = 1;
nodes = (
(567,-16,o),
(684,149,o),
(684,354,cs),
(684,560,o),
(568,726,o),
(362,726,cs),
(156,726,o),
(40,560,o),
(40,354,cs),
(40,149,o),
(157,-16,o),
(362,-16,cs)
);
},
{
closed = 1;
nodes = (
(208,70,o),
(132,200,o),
(132,354,cs),
(132,509,o),
(207,640,o),
(362,640,cs),
(517,640,o),
(592,509,o),
(592,354,cs),
(592,200,o),
(516,70,o),
(362,70,cs)
);
},
{
closed = 1;
nodes = (
(420,208,l),
(328,208,l),
(542,-69,l),
(634,-69,l)
);
}
);
};
layerId = "64775533-39F8-426A-91C6-DD7A69A21DE2";
name = "24 de feb. de 23 09:25";
shapes = (
{
ref = O;
},
{
closed = 1;
nodes = (
(402,208,l),
(366,208,l),
(580,-69,l),
(616,-69,l)
);
}
);
width = 728;
},
{
anchors = (
{
name = bottom;
pos = (333,0);
},
{
name = top;
pos = (484,710);
}
);
background = {
anchors = (
{
name = bottom;
pos = (333,0);
},
{
name = top;
pos = (484,710);
}
);
shapes = (
{
closed = 1;
nodes = (
(651,-57,l),
(579,64,l),
(671,130,o),
(736,222,o),
(764,354,cs),
(810,568,o),
(719,726,o),
(487,726,cs),
(254,726,o),
(97,568,o),
(51,354,cs),
(4,131,o),
(115,-16,o),
(329,-16,cs),
(385,-16,o),
(431,-8,o),
(464,7,c),
(503,-57,l)
);
},
{
closed = 1;
nodes = (
(252,141,o),
(229,243,o),
(252,354,cs),
(276,466,o),
(342,569,o),
(454,569,cs),
(565,569,o),
(587,466,o),
(563,354,cs),
(547,280,o),
(524,241,o),
(496,213,c),
(470,261,l),
(322,261,l),
(393,145,l),
(383,142,o),
(373,141,o),
(363,141,cs)
);
}
);
};
layerId = "3507EE3D-0D92-4546-A145-3A991F0A2B71";
shapes = (
{
closed = 1;
nodes = (
(651,-57,l),
(470,261,l),
(322,261,l),
(503,-57,l)
);
},
{
ref = O;
}
);
width = 783;
},
{
anchors = (
{
name = bottom;
pos = (306,0);
},
{
name = top;
pos = (457,710);
}
);
background = {
anchors = (
{
name = bottom;
pos = (306,0);
},
{
name = top;
pos = (457,710);
}
);
shapes = (
{
closed = 1;
nodes = (
(566,-69,l),
(501,42,l),
(603,108,o),
(676,223,o),
(703,354,cs),
(747,561,o),
(668,726,o),
(460,726,cs),
(255,726,o),
(104,561,o),
(60,354,cs),
(17,148,o),
(99,-16,o),
(303,-16,cs),
(349,-16,o),
(396,-7,o),
(431,7,c),
(474,-69,l)
);
},
{
closed = 1;
nodes = (
(167,68,o),
(117,198,o),
(150,354,cs),
(184,511,o),
(287,642,o),
(443,642,cs),
(599,642,o),
(647,511,o),
(613,354,cs),
(590,244,o),
(539,160,o),
(463,108,c),
(408,208,l),
(316,208,l),
(392,79,l),
(373,71,o),
(350,68,o),
(321,68,cs)
);
}
);
};
layerId = "6C190511-B94A-4F5A-B519-D6E9DB0E7B93";
shapes = (
{
closed = 1;
nodes = (
(566,-69,l),
(408,208,l),
(316,208,l),
(474,-69,l)
);
},
{
ref = O;
}
);
width = 728;
}
);
metricLeft = O;
metricRight = O;
unicode = 81;
}
{
color = 4;
glyphname = R;
kernLeft = b;
kernRight = R;
layers = (
{
associatedMasterId = "EE2FFE84-06F1-4AFB-BBEC-60D09A436D14";
layerId = "9EE13298-BF92-4B00-8E5D-8782EE099A36";
name = "26 de feb. de 23 23:27";
shapes = (
{
closed = 1;
nodes = (
(517,631,o),
(424,710,o),
(277,710,cs),
(70,710,l),
(70,0,l),
(102,0,l),
(102,311,l),
(277,311,ls),
(518,311,o),
(442,146,o),
(503,0,c),
(536,0,l),
(484,144,o),
(525,285,o),
(379,327,c),
(463,350,o),
(517,415,o),
(517,505,cs)
);
},
{
closed = 1;
nodes = (
(102,680,l),
(277,680,ls),
(409,680,o),
(483,617,o),
(483,505,cs),
(483,400,o),
(409,341,o),
(277,341,cs),
(102,341,l)
);
}
);
width = 606;
},
{
anchors = (
{
name = bottom;
pos = (306,0);
},
{
name = top;
pos = (312,710);
}
);
associatedMasterId = "EE2FFE84-06F1-4AFB-BBEC-60D09A436D14";
background = {
shapes = (
{
closed = 1;
nodes = (
(96,0,l),
(128,0,l),
(128,305,l),
(333,305,l),
(480,305,o),
(573,382,o),
(573,505,cs),
(573,631,o),
(480,710,o),
(333,710,c),
(96,710,l)
);
},
{
closed = 1;
nodes = (
(128,680,l),
(333,680,l),
(465,680,o),
(539,617,o),
(539,505,cs),
(539,396,o),
(465,335,o),
(333,335,cs),
(128,335,l)
);
}
);
};
layerId = "A962C063-6C0C-461E-9F2C-0D2D3C0B8A7D";
name = "16 de may. de 23 13:25";
shapes = (
{
closed = 1;
nodes = (
(96,0,l),
(128,0,l),
(128,311,l),
(333,311,ls),
(594,311,o),
(494,146,o),
(555,0,c),
(588,0,l),
(536,144,o),
(601,285,o),
(435,327,c),
(519,350,o),
(573,415,o),
(573,505,cs),
(573,636,o),
(487,710,o),
(333,710,cs),
(96,710,l)
);
},
{
closed = 1;
nodes = (
(128,680,l),
(333,680,ls),
(471,680,o),
(539,622,o),
(539,505,cs),
(539,400,o),
(465,341,o),
(333,341,cs),
(128,341,l)
);
}
);
width = 643;
},
{
anchors = (
{
name = bottom;
pos = (255,0);
},
{
name = top;
pos = (411,710);
}
);
background = {
anchors = (
{
name = bottom;
pos = (255,0);
},
{
name = top;
pos = (411,710);
}
);
shapes = (
{
closed = 1;
nodes = (
(65,0,l),
(131,311,l),
(367,311,ls),
(475,311,o),
(516,274,o),
(505,194,cs),
(479,0,l),
(512,0,l),
(537,195,ls),
(549,285,o),
(505,333,o),
(399,333,c),
(402,323,l),
(511,335,o),
(597,404,o),
(619,507,cs),
(647,636,o),
(578,710,o),
(424,710,cs),
(183,710,l),
(33,0,l)
);
},
{
closed = 1;
nodes = (
(209,680,l),
(416,680,ls),
(554,680,o),
(610,622,o),
(585,507,cs),
(563,400,o),
(476,341,o),
(357,341,cs),
(137,341,l)
);
}
);
};
layerId = "EE2FFE84-06F1-4AFB-BBEC-60D09A436D14";
name = Thin;
shapes = (
{
closed = 1;
nodes = (
(73,0,l),
(139,311,l),
(367,311,ls),
(470,311,o),
(506,277,o),
(506,226,cs),
(506,190,o),
(499,143,o),
(493,102,cs),
(478,0,l),
(511,0,l),
(524,97,ls),
(530,140,o),
(538,197,o),
(538,230,cs),
(538,289,o),
(493,332,o),
(398,332,c),
(402,322,l),
(531,336,o),
(621,422,o),
(621,554,cs),
(621,656,o),
(556,710,o),
(424,710,cs),
(191,710,l),
(41,0,l)
);
},
{
closed = 1;
nodes = (
(217,680,l),
(416,680,ls),
(544,680,o),
(587,639,o),
(587,552,cs),
(587,432,o),
(509,341,o),
(357,341,cs),
(145,341,l)
);
}
);
width = 622;
},
{
anchors = (
{
name = bottom;
pos = (310,0);
},
{
name = top;
pos = (443,710);
}
);
background = {
anchors = (
{
name = bottom;
pos = (310,0);
},
{
name = top;
pos = (443,710);
}
);
shapes = (
{
closed = 1;
nodes = (
(201,0,l),
(252,242,l),
(367,242,ls),
(431,242,o),
(447,218,o),
(439,166,cs),
(414,0,l),
(614,0,l),
(640,200,ls),
(651,281,o),
(613,324,o),
(513,324,c),
(513,314,l),
(619,332,o),
(693,400,o),
(714,500,cs),
(741,627,o),
(654,710,o),
(494,710,cs),
(155,710,l),
(5,0,l)
);
},
{
closed = 1;
nodes = (
(318,553,l),
(425,553,ls),
(490,553,o),
(520,528,o),
(509,477,cs),
(499,428,o),
(457,399,o),
(392,399,cs),
(285,399,l)
);
}
);
};
layerId = "3507EE3D-0D92-4546-A145-3A991F0A2B71";
name = "Ultra Black";
shapes = (
{
closed = 1;
nodes = (
(208,0,l),
(259,242,l),
(377,242,ls),
(423,242,o),
(441,222,o),
(441,198,cs),
(441,177,o),
(434,136,o),
(429,100,cs),
(414,0,l),
(614,0,l),
(627,97,ls),
(634,149,o),
(641,196,o),
(641,232,cs),
(641,293,o),
(602,324,o),
(513,328,c),
(513,318,l),
(636,335,o),
(713,408,o),
(713,530,cs),
(713,646,o),
(635,710,o),
(494,710,cs),
(162,710,l),
(12,0,l)
);
},
{
closed = 1;
nodes = (
(325,553,l),
(425,553,ls),
(481,553,o),
(511,535,o),
(511,490,cs),
(511,426,o),
(468,399,o),
(392,399,cs),
(292,399,l)
);
}
);
width = 714;
},
{
anchors = (
{
name = bottom;
pos = (286,0);
},
{
name = top;
pos = (423,710);
}
);
background = {
anchors = (
{
name = bottom;
pos = (286,0);
},
{
name = top;
pos = (423,710);
}
);
shapes = (
{
closed = 1;
nodes = (
(114,0,l),
(174,286,l),
(380,286,ls),
(462,286,o),
(491,259,o),
(483,200,cs),
(459,0,l),
(546,0,l),
(570,209,ls),
(581,297,o),
(537,335,o),
(451,335,c),
(455,326,l),
(531,330,o),
(623,399,o),
(644,495,cs),
(672,627,o),
(596,710,o),
(447,710,cs),
(178,710,l),
(28,0,l)
);
},
{
closed = 1;
nodes = (
(247,626,l),
(430,626,ls),
(528,626,o),
(572,579,o),
(554,497,cs),
(537,415,o),
(472,370,o),
(386,370,cs),
(192,370,l)
);
}
);
};
layerId = "6C190511-B94A-4F5A-B519-D6E9DB0E7B93";
name = Thin;
shapes = (
{
closed = 1;
nodes = (
(123,0,l),
(183,286,l),
(380,286,ls),
(453,286,o),
(484,264,o),
(484,228,cs),
(484,197,o),
(479,163,o),
(476,138,cs),
(459,0,l),
(546,0,l),
(563,145,ls),
(566,168,o),
(572,210,o),
(572,238,cs),
(572,301,o),
(527,336,o),
(450,336,c),
(454,324,l),
(544,330,o),
(648,396,o),
(648,536,cs),
(648,645,o),
(585,710,o),
(447,710,cs),
(187,710,l),
(37,0,l)
);
},
{
closed = 1;
nodes = (
(256,626,l),
(430,626,ls),
(524,626,o),
(558,592,o),
(558,532,cs),
(558,434,o),
(497,370,o),
(381,370,cs),
(201,370,l)
);
}
);
width = 664;
}
);
metricLeft = H;
metricRight = "=P+10";
unicode = 82;
}
{
color = 4;
glyphname = Y;
kernLeft = Y;
kernRight = Y;
layers = (
{
anchors = (
{
name = bottom;
pos = (211,0);
},
{
name = top;
pos = (361,710);
}
);
background = {
anchors = (
{
name = bottom;
pos = (211,0);
},
{
name = top;
pos = (361,710);
}
);
shapes = (
{
closed = 1;
nodes = (
(227,0,l),
(288,290,l),
(633,710,l),
(595,710,l),
(279,320,l),
(126,710,l),
(88,710,l),
(256,290,l),
(195,0,l)
);
}
);
};
layerId = "EE2FFE84-06F1-4AFB-BBEC-60D09A436D14";
shapes = (
{
closed = 1;
nodes = (
(227,0,l),
(288,290,l),
(627,710,l),
(588,710,l),
(276,320,l),
(130,710,l),
(93,710,l),
(256,290,l),
(195,0,l)
);
}
);
width = 530;
},
{
anchors = (
{
name = bottom;
pos = (277,0);
},
{
name = top;
pos = (427,710);
}
);
background = {
anchors = (
{
name = bottom;
pos = (277,0);
},
{
name = top;
pos = (427,710);
}
);
shapes = (
{
closed = 1;
nodes = (
(375,0,l),
(431,266,l),
(768,710,l),
(556,710,l),
(373,454,l),
(296,710,l),
(84,710,l),
(234,266,l),
(178,0,l)
);
}
);
};
layerId = "3507EE3D-0D92-4546-A145-3A991F0A2B71";
shapes = (
{
closed = 1;
nodes = (
(375,0,l),
(431,266,l),
(760,710,l),
(542,710,l),
(364,454,l),
(292,710,l),
(86,710,l),
(234,266,l),
(178,0,l)
);
}
);
width = 658;
},
{
anchors = (
{
name = bottom;
pos = (229,0);
},
{
name = top;
pos = (379,710);
}
);
background = {
anchors = (
{
name = bottom;
pos = (229,0);
},
{
name = top;
pos = (379,710);
}
);
shapes = (
{
closed = 1;
nodes = (
(272,0,l),
(333,290,l),
(673,710,l),
(571,710,l),
(309,378,l),
(187,710,l),
(85,710,l),
(247,290,l),
(186,0,l)
);
}
);
};
layerId = "6C190511-B94A-4F5A-B519-D6E9DB0E7B93";
shapes = (
{
closed = 1;
nodes = (
(272,0,l),
(333,290,l),
(669,710,l),
(565,710,l),
(304,378,l),
(189,710,l),
(89,710,l),
(247,290,l),
(186,0,l)
);
}
);
width = 568;
}
);
metricLeft = "=V-26";
metricRight = "=V-26";
unicode = 89;
}
{
color = 4;
glyphname = backslash;
kernLeft = V;
kernRight = A;
layers = (
{
layerId = "EE2FFE84-06F1-4AFB-BBEC-60D09A436D14";
shapes = (
{
closed = 1;
nodes = (
(155,750,l),
(123,750,l),
(237,-110,l),
(268,-110,l)
);
}
);
width = 368;
},
{
layerId = "3507EE3D-0D92-4546-A145-3A991F0A2B71";
shapes = (
{
closed = 1;
nodes = (
(316,750,l),
(122,750,l),
(237,-110,l),
(431,-110,l)
);
}
);
width = 532;
},
{
layerId = "6C190511-B94A-4F5A-B519-D6E9DB0E7B93";
shapes = (
{
closed = 1;
nodes = (
(203,750,l),
(123,750,l),
(236,-110,l),
(316,-110,l)
);
}
);
width = 416;
}
);
metricLeft = "=20";
metricRight = "=20";
unicode = 92;
}
{
color = 4;
glyphname = underscore;
layers = (
{
background = {
shapes = (
{
closed = 1;
nodes = (
(-37,-124,l),
(433,-124,l),
(433,-44,l),
(-37,-44,l)
);
}
);
};
layerId = "EE2FFE84-06F1-4AFB-BBEC-60D09A436D14";
shapes = (
{
closed = 1;
nodes = (
(422,-30,l),
(428,0,l),
(-6,0,l),
(-12,-30,l)
);
}
);
width = 535;
},
{
layerId = "3507EE3D-0D92-4546-A145-3A991F0A2B71";
shapes = (
{
closed = 1;
nodes = (
(443,-150,l),
(475,0,l),
(-25,0,l),
(-57,-150,l)
);
}
);
width = 564;
},
{
layerId = "6C190511-B94A-4F5A-B519-D6E9DB0E7B93";
shapes = (
{
closed = 1;
nodes = (
(441,-78,l),
(457,0,l),
(-12,0,l),
(-28,-78,l)
);
}
);
width = 558;
}
);
metricLeft = o;
metricRight = o;
unicode = 95;
}
{
color = 3;
glyphname = a;
kernLeft = a;
kernRight = l;
layers = (
{
anchors = (
{
name = bottom;
pos = (192,0);
},
{
name = ogonek;
pos = (438,0);
},
{
name = top;
pos = (300,530);
}
);
background = {
shapes = (
{
closed = 1;
nodes = (
(249,-12,o),
(341,51,o),
(382,122,c),
(376,122,l),
(354,20,o),
(377,-1,o),
(422,-1,cs),
(427,-1,o),
(431,-1,o),
(438,0,c),
(444,30,l),
(438,30,ls),
(404,30,o),
(391,43,o),
(403,100,cs),
(451,326,ls),
(482,472,o),
(429,542,o),
(307,542,cs),
(192,542,o),
(107,481,o),
(66,373,c),
(98,370,l),
(133,461,o),
(203,512,o),
(301,512,cs),
(409,512,o),
(448,454,o),
(419,316,c),
(197,276,ls),
(100,258,o),
(22,210,o),
(5,130,cs),
(-13,44,o),
(43,-12,o),
(145,-12,cs)
);
},
{
closed = 1;
nodes = (
(63,18,o),
(22,58,o),
(38,132,cs),
(51,196,o),
(113,232,o),
(200,248,cs),
(413,287,l),
(395,204,ls),
(373,98,o),
(269,18,o),
(153,18,cs)
);
}
);
};
layerId = "EE2FFE84-06F1-4AFB-BBEC-60D09A436D14";
shapes = (
{
closed = 1;
nodes = (
(424,317,l),
(195,276,ls),
(87,257,o),
(20,210,o),
(20,100,cs),
(20,32,o),
(72,-12,o),
(156,-12,cs),
(256,-12,o),
(339,53,o),
(380,124,c),
(375,126,l),
(370,115,o),
(361,76,o),
(361,52,cs),
(361,13,o),
(380,-1,o),
(414,-1,cs),
(419,-1,o),
(425,-1,o),
(432,0,c),
(438,30,l),
(418,30,ls),
(400,30,o),
(390,35,o),
(390,59,cs),
(390,106,o),
(452,326,o),
(452,406,cs),
(452,492,o),
(406,542,o),
(300,542,cs),
(185,542,o),
(116,491,o),
(74,373,c),
(106,370,l),
(140,472,o),
(200,512,o),
(296,512,cs),
(392,512,o),
(423,476,o),
(423,404,cs),
(423,348,o),
(401,252,o),
(389,200,cs),
(366,100,o),
(273,18,o),
(158,18,cs),
(86,18,o),
(52,48,o),
(52,108,cs),
(52,190,o),
(98,230,o),
(196,248,cs),
(418,288,l)
);
}
);
width = 517;
},
{
anchors = (
{
name = bottom;
pos = (243,0);
},
{
name = ogonek;
pos = (386,0);
},
{
name = top;
pos = (243,530);
}
);
associatedMasterId = "EE2FFE84-06F1-4AFB-BBEC-60D09A436D14";
background = {
shapes = (
{
closed = 1;
nodes = (
(323,-12,o),
(387,48,o),
(396,102,c),
(387,110,l),
(386,49,o),
(425,0,o),
(502,0,cs),
(529,0,l),
(529,76,l),
(507,76,ls),
(485,76,o),
(475,86,o),
(475,108,cs),
(475,320,ls),
(475,468,o),
(389,542,o),
(261,542,cs),
(151,542,o),
(64,474,o),
(44,374,c),
(136,367,l),
(149,421,o),
(196,460,o),
(261,460,cs),
(349,460,o),
(402,404,o),
(386,287,c),
(433,338,l),
(235,299,ls),
(117,276,o),
(35,249,o),
(35,139,cs),
(35,44,o),
(121,-12,o),
(226,-12,cs)
);
},
{
closed = 1;
nodes = (
(125,213,o),
(189,216,o),
(267,230,cs),
(435,261,l),
(391,267,l),
(391,228,ls),
(391,124,o),
(323,64,o),
(237,64,cs),
(160,64,o),
(125,98,o),
(125,139,cs)
);
}
);
};
layerId = "456932B6-354B-4A2F-81B9-CE7212349174";
name = "30 de mar. de 23 15:28";
shapes = (
{
closed = 1;
nodes = (
(217,280,ls),
(124,263,o),
(35,226,o),
(35,131,cs),
(35,48,o),
(101,-10,o),
(208,-12,cs),
(322,-10,o),
(414,62,o),
(430,192,c),
(411,192,l),
(410,155,o),
(409,127,o),
(409,90,cs),
(409,38,o),
(442,-2,o),
(483,0,cs),
(488,0,o),
(492,0,o),
(496,0,c),
(496,30,l),
(491,30,o),
(488,30,o),
(483,30,cs),
(457,31,o),
(439,56,o),
(439,90,cs),
(439,320,ls),
(439,468,o),
(371,542,o),
(243,542,cs),
(121,542,o),
(46,459,o),
(40,339,c),
(-6,376,l),
(134,366,l),
(77,338,l),
(79,446,o),
(142,512,o),
(243,512,cs),
(346,512,o),
(407,442,o),
(407,327,cs),
(407,303,l),
(430,319,l)
);
},
{
closed = 1;
nodes = (
(67,219,o),
(162,241,o),
(249,257,cs),
(425,290,l),
(409,295,l),
(410,219,ls),
(411,108,o),
(332,23,o),
(219,18,cs),
(126,13,o),
(67,60,o),
(67,131,cs)
);
}
);
width = 526;
},
{
anchors = (
{
name = bottom;
pos = (233,0);
},
{
name = ogonek;
pos = (538,0);
},
{
name = top;
pos = (347,540);
}
);
background = {
shapes = (
{
closed = 1;
nodes = (
(263,-12,o),
(336,34,o),
(374,108,c),
(363,124,l),
(340,14,o),
(410,-8,o),
(468,-8,cs),
(493,-8,o),
(525,-4,o),
(538,0,c),
(564,122,l),
(553,122,ls),
(533,122,o),
(522,129,o),
(529,164,cs),
(563,322,ls),
(596,476,o),
(526,552,o),
(350,552,cs),
(198,552,o),
(91,495,o),
(42,365,c),
(233,359,l),
(248,402,o),
(278,424,o),
(323,424,cs),
(366,424,o),
(384,394,o),
(372,338,c),
(203,304,ls),
(80,279,o),
(5,232,o),
(-15,136,cs),
(-35,42,o),
(34,-12,o),
(148,-12,cs)
);
},
{
closed = 1;
nodes = (
(193,110,o),
(181,126,o),
(187,154,cs),
(193,182,o),
(221,200,o),
(257,208,cs),
(349,230,l),
(346,212,ls),
(331,142,o),
(282,110,o),
(228,110,cs)
);
}
);
};
guides = (
{
pos = (5,358);
},
{
pos = (214,353);
}
);
layerId = "3507EE3D-0D92-4546-A145-3A991F0A2B71";
shapes = (
{
closed = 1;
nodes = (
(384,341,l),
(210,304,ls),
(84,277,o),
(2,224,o),
(2,108,cs),
(2,30,o),
(57,-12,o),
(158,-12,cs),
(263,-12,o),
(324,34,o),
(362,108,c),
(353,120,l),
(348,105,o),
(346,91,o),
(346,77,cs),
(346,27,o),
(382,-8,o),
(456,-8,cs),
(481,-8,o),
(513,-4,o),
(526,0,c),
(552,122,l),
(540,122,ls),
(524,122,o),
(514,126,o),
(514,144,cs),
(514,178,o),
(559,326,o),
(559,390,cs),
(559,498,o),
(488,552,o),
(348,552,cs),
(182,552,o),
(98,497,o),
(56,365,c),
(246,359,l),
(261,402,o),
(282,424,o),
(320,424,cs),
(353,424,o),
(364,405,o),
(364,376,cs),
(364,346,o),
(343,244,o),
(334,199,cs),
(320,129,o),
(280,110,o),
(243,110,cs),
(217,110,o),
(204,122,o),
(204,148,cs),
(204,182,o),
(224,200,o),
(257,208,cs),
(361,234,l)
);
}
);
width = 592;
},
{
anchors = (
{
name = bottom;
pos = (201,0);
},
{
name = ogonek;
pos = (466,0);
},
{
name = top;
pos = (324,530);
}
);
background = {
shapes = (
{
closed = 1;
nodes = (
(244,-12,o),
(337,39,o),
(366,108,c),
(356,110,l),
(339,30,o),
(360,-2,o),
(433,-2,cs),
(446,-2,o),
(459,-1,o),
(466,0,c),
(481,74,l),
(460,74,ls),
(440,74,o),
(434,83,o),
(439,107,cs),
(486,326,ls),
(514,460,o),
(458,542,o),
(322,542,cs),
(202,542,o),
(107,474,o),
(66,374,c),
(154,367,l),
(183,428,o),
(231,462,o),
(305,462,cs),
(389,462,o),
(422,418,o),
(403,329,c),
(207,294,ls),
(86,272,o),
(25,222,o),
(6,132,cs),
(-14,41,o),
(44,-12,o),
(154,-12,cs)
);
},
{
closed = 1;
nodes = (
(116,62,o),
(85,90,o),
(95,140,cs),
(105,184,o),
(134,211,o),
(208,224,cs),
(387,256,l),
(379,218,ls),
(360,130,o),
(284,62,o),
(178,62,cs)
);
}
);
};
layerId = "6C190511-B94A-4F5A-B519-D6E9DB0E7B93";
shapes = (
{
closed = 1;
nodes = (
(417,332,l),
(202,292,ls),
(66,267,o),
(16,204,o),
(16,112,cs),
(16,32,o),
(75,-12,o),
(162,-12,cs),
(254,-12,o),
(332,40,o),
(360,108,c),
(350,110,l),
(344,90,o),
(341,73,o),
(341,58,cs),
(341,15,o),
(369,-2,o),
(424,-2,cs),
(437,-2,o),
(451,-1,o),
(458,0,c),
(473,74,l),
(452,74,ls),
(436,74,o),
(429,79,o),
(429,93,cs),
(429,121,o),
(484,319,o),
(484,392,cs),
(484,488,o),
(436,542,o),
(320,542,cs),
(177,542,o),
(110,480,o),
(74,374,c),
(162,367,l),
(184,435,o),
(226,462,o),
(306,462,cs),
(377,462,o),
(400,437,o),
(400,384,cs),
(400,342,o),
(377,240,o),
(368,200,cs),
(350,116,o),
(280,62,o),
(176,62,cs),
(124,62,o),
(102,84,o),
(102,126,cs),
(102,183,o),
(132,210,o),
(210,224,cs),
(401,259,l)
);
}
);
width = 533;
}
);
metricLeft = o;
metricRight = "=l-5";
unicode = 97;
}
{
color = 3;
glyphname = b;
kernLeft = b;
kernRight = o;
layers = (
{
anchors = (
{
name = bottom;
pos = (229,0);
},
{
name = center;
pos = (143,265);
},
{
name = top;
pos = (341,530);
}
);
background = {
shapes = (
{
closed = 1;
nodes = (
(376,-12,o),
(484,95,o),
(520,265,cs),
(556,433,o),
(494,542,o),
(358,542,cs),
(270,542,o),
(189,482,o),
(144,400,c),
(210,710,l),
(180,710,l),
(29,0,l),
(51,0,l),
(82,134,l),
(94,53,o),
(148,-12,o),
(240,-12,cs)
);
},
{
closed = 1;
nodes = (
(137,18,o),
(84,119,o),
(115,265,cs),
(146,408,o),
(242,512,o),
(352,512,cs),
(468,512,o),
(520,415,o),
(488,265,cs),
(456,113,o),
(363,18,o),
(247,18,cs)
);
}
);
};
layerId = "EE2FFE84-06F1-4AFB-BBEC-60D09A436D14";
shapes = (
{
closed = 1;
nodes = (
(390,-12,o),
(514,150,o),
(514,356,cs),
(514,474,o),
(456,542,o),
(352,542,cs),
(254,542,o),
(168,470,o),
(120,361,c),
(134,356,l),
(210,710,l),
(180,710,l),
(29,0,l),
(53,0,l),
(82,130,l),
(96,50,o),
(144,-12,o),
(231,-12,cs)
);
},
{
closed = 1;
nodes = (
(158,18,o),
(106,80,o),
(106,184,cs),
(106,357,o),
(212,512,o),
(346,512,cs),
(434,512,o),
(482,460,o),
(482,348,cs),
(482,166,o),
(373,18,o),
(237,18,cs)
);
}
);
width = 556;
},
{
anchors = (
{
name = bottom;
pos = (276,0);
},
{
name = center;
pos = (167,270);
},
{
name = top;
pos = (391,540);
}
);
background = {
shapes = (
{
closed = 1;
nodes = (
(484,-12,o),
(594,100,o),
(630,270,cs),
(666,440,o),
(604,552,o),
(470,552,cs),
(397,552,o),
(334,516,o),
(293,462,c),
(346,710,l),
(152,710,l),
(1,0,l),
(190,0,l),
(209,78,l),
(227,21,o),
(274,-12,o),
(350,-12,cs)
);
},
{
closed = 1;
nodes = (
(255,127,o),
(233,179,o),
(252,270,cs),
(272,362,o),
(316,413,o),
(375,413,cs),
(428,413,o),
(451,362,o),
(431,270,cs),
(412,178,o),
(365,127,o),
(314,127,cs)
);
}
);
};
layerId = "3507EE3D-0D92-4546-A145-3A991F0A2B71";
shapes = (
{
closed = 1;
nodes = (
(500,-12,o),
(618,149,o),
(618,362,cs),
(618,482,o),
(569,552,o),
(464,552,cs),
(376,552,o),
(313,506,o),
(272,430,c),
(284,420,l),
(346,710,l),
(152,710,l),
(1,0,l),
(190,0,l),
(209,78,l),
(226,20,o),
(274,-12,o),
(342,-12,cs)
);
},
{
closed = 1;
nodes = (
(266,127,o),
(245,155,o),
(245,206,cs),
(245,312,o),
(296,413,o),
(364,413,cs),
(403,413,o),
(419,381,o),
(419,328,cs),
(419,219,o),
(366,127,o),
(302,127,cs)
);
}
);
width = 643;
},
{
anchors = (
{
name = bottom;
pos = (243,0);
},
{
name = center;
pos = (150,265);
},
{
name = top;
pos = (355,530);
}
);
background = {
shapes = (
{
closed = 1;
nodes = (
(404,-12,o),
(515,95,o),
(551,265,cs),
(587,435,o),
(522,542,o),
(382,542,cs),
(308,542,o),
(240,500,o),
(205,456,c),
(259,710,l),
(175,710,l),
(24,0,l),
(100,0,l),
(120,80,l),
(137,22,o),
(190,-12,o),
(264,-12,cs)
);
},
{
closed = 1;
nodes = (
(180,68,o),
(138,144,o),
(164,265,cs),
(190,388,o),
(264,462,o),
(362,462,cs),
(449,462,o),
(489,388,o),
(463,265,cs),
(437,144,o),
(365,68,o),
(276,68,cs)
);
}
);
};
layerId = "6C190511-B94A-4F5A-B519-D6E9DB0E7B93";
shapes = (
{
closed = 1;
nodes = (
(422,-12,o),
(540,152,o),
(540,342,cs),
(540,462,o),
(484,542,o),
(372,542,cs),
(280,542,o),
(221,490,o),
(180,416,c),
(196,412,l),
(259,710,l),
(175,710,l),
(24,0,l),
(100,0,l),
(121,78,l),
(136,28,o),
(184,-12,o),
(252,-12,cs)
);
},
{
closed = 1;
nodes = (
(197,68,o),
(154,110,o),
(154,192,cs),
(154,360,o),
(242,462,o),
(350,462,cs),
(420,462,o),
(452,420,o),
(452,330,cs),
(452,190,o),
(371,68,o),
(263,68,cs)
);
}
);
width = 578;
}
);
metricLeft = n;
metricRight = o;
unicode = 98;
}
{
color = 4;
glyphname = e;
kernLeft = o;
kernRight = o;
layers = (
{
anchors = (
{
name = bottom;
pos = (216,0);
},
{
name = ogonek;
pos = (373,39);
},
{
name = top;
pos = (328,530);
}
);
background = {
shapes = (
{
closed = 1;
nodes = (
(326,-12,o),
(415,53,o),
(460,143,c),
(427,145,l),
(389,69,o),
(318,18,o),
(224,18,cs),
(106,18,o),
(48,110,o),
(78,260,c),
(496,260,l),
(498,272,ls),
(529,416,o),
(484,542,o),
(332,542,cs),
(182,542,o),
(79,415,o),
(47,265,cs),
(15,115,o),
(66,-12,o),
(218,-12,cs)
);
},
{
closed = 1;
nodes = (
(120,427,o),
(214,512,o),
(326,512,cs),
(446,512,o),
(494,424,o),
(469,288,c),
(84,288,l)
);
}
);
};
layerId = "EE2FFE84-06F1-4AFB-BBEC-60D09A436D14";
shapes = (
{
closed = 1;
nodes = (
(332,-12,o),
(412,49,o),
(456,143,c),
(423,145,l),
(387,69,o),
(320,18,o),
(220,18,cs),
(126,18,o),
(76,71,o),
(76,187,cs),
(76,368,o),
(184,512,o),
(326,512,cs),
(424,512,o),
(467,452,o),
(467,354,cs),
(467,333,o),
(465,311,o),
(461,288,c),
(77,288,l),
(71,260,l),
(488,260,l),
(494,289,o),
(499,324,o),
(499,354,cs),
(499,461,o),
(450,542,o),
(332,542,cs),
(154,542,o),
(44,379,o),
(44,183,cs),
(44,68,o),
(95,-12,o),
(214,-12,cs)
);
}
);
width = 539;
},
{
anchors = (
{
name = bottom;
pos = (265,0);
},
{
name = ogonek;
pos = (328,0);
},
{
name = top;
pos = (265,530);
}
);
associatedMasterId = "EE2FFE84-06F1-4AFB-BBEC-60D09A436D14";
background = {
shapes = (
{
closed = 1;
nodes = (
(395,-12,o),
(493,63,o),
(514,181,c),
(533,148,l),
(394,158,l),
(422,180,l),
(403,111,o),
(347,70,o),
(283,70,cs),
(186,70,o),
(130,143,o),
(130,265,cs),
(130,387,o),
(186,460,o),
(283,460,cs),
(355,460,o),
(421,413,o),
(424,265,c),
(514,265,l),
(508,464,o),
(401,542,o),
(283,542,cs),
(136,542,o),
(40,434,o),
(40,265,cs),
(40,96,o),
(136,-12,o),
(283,-12,cs)
);
},
{
closed = 1;
nodes = (
(514,238,l),
(514,275,l),
(509,297,l),
(463,297,l),
(463,314,l),
(84,314,l),
(84,238,l)
);
}
);
};
layerId = "E9BBF2E6-3E46-4BD2-A166-D8A1CCFF5D66";
name = "24 de feb. de 23 10:25";
shapes = (
{
closed = 1;
nodes = (
(56,258,l),
(490,258,l),
(488,288,l),
(56,288,l)
);
},
{
closed = 1;
nodes = (
(490,259,l),
(490,261,o),
(490,263,o),
(490,265,cs),
(490,415,o),
(415,542,o),
(265,542,cs),
(115,542,o),
(40,415,o),
(40,265,cs),
(40,115,o),
(115,-12,o),
(265,-12,cs),
(363,-12,o),
(444,48,o),
(475,143,c),
(442,145,l),
(413,67,o),
(345,18,o),
(265,18,cs),
(147,18,o),
(72,113,o),
(72,265,cs),
(72,417,o),
(147,512,o),
(265,512,cs),
(383,512,o),
(458,417,o),
(458,265,cs),
(458,263,o),
(458,261,o),
(458,259,c)
);
}
);
width = 525;
},
{
anchors = (
{
name = bottom;
pos = (258,0);
},
{
name = ogonek;
pos = (453,40);
},
{
name = top;
pos = (372,538);
}
);
background = {
shapes = (
{
closed = 1;
nodes = (
(392,-12,o),
(510,48,o),
(564,164,c),
(375,174,l),
(355,137,o),
(323,124,o),
(285,124,cs),
(231,124,o),
(201,155,o),
(212,220,c),
(583,220,l),
(591,254,ls),
(629,436,o),
(546,552,o),
(372,552,cs),
(198,552,o),
(59,439,o),
(23,270,cs),
(-13,100,o),
(78,-12,o),
(252,-12,cs)
);
},
{
closed = 1;
nodes = (
(251,383,o),
(294,420,o),
(344,420,cs),
(396,420,o),
(423,387,o),
(411,324,c),
(234,324,l)
);
}
);
};
layerId = "3507EE3D-0D92-4546-A145-3A991F0A2B71";
shapes = (
{
closed = 1;
nodes = (
(413,-12,o),
(510,48,o),
(554,164,c),
(365,174,l),
(355,137,o),
(323,124,o),
(285,124,cs),
(248,124,o),
(225,146,o),
(225,196,cs),
(225,338,o),
(267,420,o),
(352,420,cs),
(384,420,o),
(405,402,o),
(405,364,cs),
(405,348,o),
(403,334,o),
(401,324,c),
(220,324,l),
(198,220,l),
(573,220,l),
(583,254,o),
(591,302,o),
(591,352,cs),
(591,486,o),
(516,552,o),
(371,552,cs),
(147,552,o),
(27,404,o),
(27,190,cs),
(27,70,o),
(103,-12,o),
(255,-12,cs)
);
}
);
width = 617;
},
{
anchors = (
{
name = bottom;
pos = (229,0);
},
{
name = ogonek;
pos = (349,13);
},
{
name = top;
pos = (341,528);
}
);
background = {
shapes = (
{
closed = 1;
nodes = (
(338,-12,o),
(434,55,o),
(483,150,c),
(394,157,l),
(365,103,o),
(312,68,o),
(243,68,cs),
(151,68,o),
(106,125,o),
(124,239,c),
(509,239,l),
(515,264,ls),
(553,442,o),
(478,542,o),
(340,542,cs),
(194,542,o),
(78,433,o),
(42,265,cs),
(6,97,o),
(76,-12,o),
(226,-12,cs)
);
},
{
closed = 1;
nodes = (
(175,411,o),
(241,462,o),
(323,462,cs),
(401,462,o),
(447,415,o),
(433,313,c),
(140,313,l)
);
}
);
};
layerId = "6C190511-B94A-4F5A-B519-D6E9DB0E7B93";
shapes = (
{
closed = 1;
nodes = (
(356,-12,o),
(433,55,o),
(477,150,c),
(388,157,l),
(365,101,o),
(312,68,o),
(243,68,cs),
(164,68,o),
(125,105,o),
(125,194,cs),
(125,344,o),
(207,462,o),
(325,462,cs),
(392,462,o),
(431,427,o),
(431,361,cs),
(431,338,o),
(429,325,o),
(427,313,c),
(128,313,l),
(112,239,l),
(503,239,l),
(513,274,o),
(519,316,o),
(519,354,cs),
(519,478,o),
(454,542,o),
(340,542,cs),
(152,542,o),
(37,383,o),
(37,182,cs),
(37,60,o),
(106,-12,o),
(226,-12,cs)
);
}
);
width = 553;
}
);
metricLeft = o;
metricRight = o;
unicode = 101;
}
{
color = 3;
glyphname = h;
kernLeft = b;
kernRight = n;
layers = (
{
anchors = (
{
name = bottom;
pos = (223,0);
},
{
name = center;
pos = (216,618);
},
{
name = top;
pos = (191,690);
}
);
background = {
shapes = (
{
closed = 1;
nodes = (
(60,0,l),
(127,317,ls),
(151,431,o),
(232,512,o),
(342,512,cs),
(452,512,o),
(477,432,o),
(453,317,cs),
(386,0,l),
(416,0,l),
(488,341,ls),
(512,453,o),
(476,542,o),
(357,542,cs),
(261,542,o),
(167,489,o),
(137,385,c),
(141,385,l),
(210,710,l),
(180,710,l),
(30,0,l)
);
}
);
};
layerId = "EE2FFE84-06F1-4AFB-BBEC-60D09A436D14";
shapes = (
{
closed = 1;
nodes = (
(60,0,l),
(127,317,ls),
(151,431,o),
(233,512,o),
(337,512,cs),
(423,512,o),
(453,464,o),
(453,406,cs),
(453,366,o),
(447,340,o),
(439,302,cs),
(374,0,l),
(404,0,l),
(467,298,ls),
(475,336,o),
(483,370,o),
(483,410,cs),
(483,485,o),
(442,542,o),
(347,542,cs),
(257,542,o),
(168,486,o),
(132,380,c),
(140,380,l),
(210,710,l),
(180,710,l),
(30,0,l)
);
}
);
width = 545;
},
{
anchors = (
{
name = bottom;
pos = (262,0);
},
{
name = center;
pos = (258,622);
},
{
name = top;
pos = (248,690);
}
);
background = {
shapes = (
{
closed = 1;
nodes = (
(196,0,l),
(259,298,ls),
(274,368,o),
(305,403,o),
(351,403,cs),
(397,403,o),
(405,368,o),
(391,304,cs),
(327,0,l),
(521,0,l),
(594,347,ls),
(620,467,o),
(577,552,o),
(453,552,cs),
(369,552,o),
(288,505,o),
(256,408,c),
(283,410,l),
(346,710,l),
(152,710,l),
(2,0,l)
);
}
);
};
layerId = "3507EE3D-0D92-4546-A145-3A991F0A2B71";
shapes = (
{
closed = 1;
nodes = (
(196,0,l),
(259,298,ls),
(275,376,o),
(302,403,o),
(349,403,cs),
(382,403,o),
(397,388,o),
(397,358,cs),
(397,334,o),
(391,304,o),
(385,278,cs),
(325,0,l),
(519,0,l),
(577,270,ls),
(585,308,o),
(597,368,o),
(597,412,cs),
(597,503,o),
(545,552,o),
(452,552,cs),
(368,552,o),
(299,508,o),
(257,410,c),
(281,410,l),
(346,710,l),
(152,710,l),
(2,0,l)
);
}
);
width = 633;
},
{
anchors = (
{
name = bottom;
pos = (236,0);
},
{
name = center;
pos = (235,616);
},
{
name = top;
pos = (213,690);
}
);
background = {
shapes = (
{
closed = 1;
nodes = (
(109,0,l),
(176,316,ls),
(197,414,o),
(264,468,o),
(350,468,cs),
(424,468,o),
(451,419,o),
(429,317,cs),
(362,0,l),
(446,0,l),
(518,341,ls),
(543,459,o),
(498,542,o),
(384,542,cs),
(300,542,o),
(225,503,o),
(187,415,c),
(196,413,l),
(259,710,l),
(175,710,l),
(25,0,l)
);
}
);
};
layerId = "6C190511-B94A-4F5A-B519-D6E9DB0E7B93";
shapes = (
{
closed = 1;
nodes = (
(109,0,l),
(176,316,ls),
(197,413,o),
(264,468,o),
(340,468,cs),
(397,468,o),
(426,439,o),
(426,390,cs),
(426,363,o),
(422,340,o),
(417,317,cs),
(349,0,l),
(433,0,l),
(498,306,ls),
(504,332,o),
(512,374,o),
(512,406,cs),
(512,485,o),
(466,542,o),
(370,542,cs),
(292,542,o),
(224,500,o),
(184,416,c),
(196,412,l),
(259,710,l),
(175,710,l),
(25,0,l)
);
}
);
width = 569;
}
);
metricLeft = b;
metricRight = n;
unicode = 104;
}
{
color = 4;
glyphname = k;
kernLeft = b;
kernRight = x;
layers = (
{
anchors = (
{
name = bottom;
pos = (219,0);
},
{
name = top;
pos = (188,670);
}
);
background = {
anchors = (
{
name = bottom;
pos = (219,0);
},
{
name = top;
pos = (162,670);
}
);
shapes = (
{
closed = 1;
nodes = (
(35,0,l),
(68,156,l),
(226,284,l),
(405,0,l),
(441,0,l),
(250,302,l),
(533,530,l),
(493,530,l),
(76,194,l),
(185,710,l),
(155,710,l),
(5,0,l)
);
}
);
};
layerId = "EE2FFE84-06F1-4AFB-BBEC-60D09A436D14";
shapes = (
{
closed = 1;
nodes = (
(517,530,l),
(477,530,l),
(86,203,l),
(80,163,l)
);
},
{
closed = 1;
nodes = (
(60,0,l),
(210,710,l),
(180,710,l),
(30,0,l)
);
},
{
closed = 1;
nodes = (
(421,0,l),
(236,308,l),
(212,290,l),
(385,0,l)
);
}
);
width = 526;
},
{
anchors = (
{
name = bottom;
pos = (274,0);
},
{
name = top;
pos = (274,530);
}
);
associatedMasterId = "EE2FFE84-06F1-4AFB-BBEC-60D09A436D14";
background = {
shapes = (
{
closed = 1;
nodes = (
(42,0,l),
(128,0,l),
(128,710,l),
(42,710,l)
);
},
{
closed = 1;
nodes = (
(506,0,l),
(283,314,l),
(264,278,l),
(496,530,l),
(379,530,l),
(74,186,l),
(74,59,l),
(250,265,l),
(218,265,l),
(400,0,l)
);
}
);
};
layerId = "057BC141-43A0-44B5-9F16-EF09775895DB";
name = "24 de feb. de 23 10:41";
shapes = (
{
closed = 1;
nodes = (
(60,0,l),
(90,0,l),
(90,710,l),
(60,710,l)
);
},
{
closed = 1;
nodes = (
(476,530,l),
(434,530,l),
(74,179,l),
(74,141,l)
);
},
{
closed = 1;
nodes = (
(211,294,l),
(459,0,l),
(496,0,l),
(229,314,l)
);
}
);
width = 536;
},
{
anchors = (
{
name = bottom;
pos = (271,0);
},
{
name = top;
pos = (241,700);
}
);
background = {
anchors = (
{
name = bottom;
pos = (271,0);
},
{
name = top;
pos = (241,700);
}
);
shapes = (
{
closed = 1;
nodes = (
(190,0,l),
(224,160,l),
(290,218,l),
(374,0,l),
(580,0,l),
(436,322,l),
(690,540,l),
(464,540,l),
(267,364,l),
(340,710,l),
(146,710,l),
(-4,0,l)
);
}
);
};
layerId = "3507EE3D-0D92-4546-A145-3A991F0A2B71";
shapes = (
{
closed = 1;
nodes = (
(680,540,l),
(450,540,l),
(240,348,l),
(204,138,l)
);
},
{
closed = 1;
nodes = (
(196,0,l),
(346,710,l),
(152,710,l),
(2,0,l)
);
},
{
closed = 1;
nodes = (
(580,0,l),
(428,341,l),
(283,237,l),
(374,0,l)
);
}
);
width = 682;
},
{
anchors = (
{
name = bottom;
pos = (240,0);
},
{
name = top;
pos = (209,670);
}
);
background = {
anchors = (
{
name = bottom;
pos = (240,0);
},
{
name = top;
pos = (209,670);
}
);
shapes = (
{
closed = 1;
nodes = (
(109,0,l),
(138,138,l),
(265,248,l),
(386,0,l),
(488,0,l),
(334,305,l),
(591,530,l),
(479,530,l),
(161,245,l),
(259,710,l),
(175,710,l),
(25,0,l)
);
}
);
};
layerId = "6C190511-B94A-4F5A-B519-D6E9DB0E7B93";
shapes = (
{
closed = 1;
nodes = (
(566,530,l),
(454,530,l),
(123,234,l),
(102,126,l)
);
},
{
closed = 1;
nodes = (
(109,0,l),
(259,710,l),
(175,710,l),
(25,0,l)
);
},
{
closed = 1;
nodes = (
(465,0,l),
(305,319,l),
(238,264,l),
(363,0,l)
);
}
);
width = 568;
}
);
metricLeft = n;
metricRight = x;
unicode = 107;
}
{
color = 3;
glyphname = m;
kernLeft = n;
kernRight = n;
layers = (
{
anchors = (
{
name = bottom;
pos = (354,0);
},
{
name = top;
pos = (467,530);
}
);
background = {
shapes = (
{
closed = 1;
nodes = (
(49,0,l),
(117,317,ls),
(140,426,o),
(230,512,o),
(323,512,cs),
(402,512,o),
(432,437,o),
(407,317,cs),
(339,0,l),
(369,0,l),
(435,308,ls),
(459,422,o),
(550,512,o),
(642,512,cs),
(723,512,o),
(758,436,o),
(732,314,cs),
(665,0,l),
(695,0,l),
(767,338,ls),
(793,458,o),
(746,542,o),
(653,542,cs),
(559,542,o),
(468,473,o),
(434,365,c),
(444,361,l),
(460,471,o),
(414,542,o),
(336,542,cs),
(241,542,o),
(150,473,o),
(127,385,c),
(129,370,l),
(160,530,l),
(132,530,l),
(19,0,l)
);
}
);
};
layerId = "EE2FFE84-06F1-4AFB-BBEC-60D09A436D14";
shapes = (
{
closed = 1;
nodes = (
(59,0,l),
(127,317,ls),
(150,426,o),
(225,512,o),
(315,512,cs),
(384,512,o),
(418,471,o),
(418,400,cs),
(418,368,o),
(412,340,o),
(404,302,cs),
(339,0,l),
(369,0,l),
(435,308,ls),
(459,422,o),
(540,512,o),
(622,512,cs),
(690,512,o),
(728,472,o),
(728,404,cs),
(728,366,o),
(720,329,o),
(714,302,cs),
(649,0,l),
(679,0,l),
(742,298,ls),
(747,320,o),
(758,368,o),
(758,410,cs),
(758,481,o),
(720,542,o),
(629,542,cs),
(553,542,o),
(466,473,o),
(432,365,c),
(445,382,l),
(445,492,o),
(408,542,o),
(322,542,cs),
(235,542,o),
(160,473,o),
(137,385,c),
(139,370,l),
(170,530,l),
(142,530,l),
(29,0,l)
);
}
);
width = 820;
},
{
associatedMasterId = "EE2FFE84-06F1-4AFB-BBEC-60D09A436D14";
background = {
shapes = (
{
closed = 1;
nodes = (
(11,0,l),
(97,0,l),
(97,317,ls),
(97,410,o),
(145,466,o),
(226,466,cs),
(289,466,o),
(327,410,o),
(327,317,cs),
(327,0,l),
(413,0,l),
(413,317,ls),
(413,412,o),
(460,466,o),
(542,466,cs),
(606,466,o),
(643,412,o),
(643,317,cs),
(643,0,l),
(729,0,l),
(729,341,ls),
(729,469,o),
(667,542,o),
(560,542,cs),
(465,542,o),
(407,491,o),
(391,400,c),
(407,399,l),
(392,489,o),
(332,542,o),
(244,542,cs),
(159,542,o),
(100,494,o),
(83,410,c),
(94,397,l),
(89,530,l),
(11,530,l)
);
}
);
};
layerId = "09ED80C9-A39B-4FA7-92C4-302824AFB0B4";
name = "8 de feb. de 23 15:09";
shapes = (
{
closed = 1;
nodes = (
(40,0,l),
(70,0,l),
(70,317,ls),
(70,426,o),
(142,512,o),
(235,512,cs),
(314,512,o),
(360,437,o),
(360,317,cs),
(360,0,l),
(390,0,l),
(390,341,ls),
(390,459,o),
(327,542,o),
(238,542,cs),
(154,542,o),
(88,488,o),
(70,415,c),
(68,530,l),
(40,530,l)
);
},
{
closed = 1;
nodes = (
(390,308,l),
(390,422,o),
(462,512,o),
(554,512,cs),
(635,512,o),
(686,436,o),
(686,314,cs),
(686,0,l),
(716,0,l),
(716,338,ls),
(716,458,o),
(651,542,o),
(558,542,cs),
(473,542,o),
(406,486,o),
(384,397,c)
);
}
);
width = 756;
},
{
anchors = (
{
name = bottom;
pos = (396,0);
},
{
name = top;
pos = (511,540);
}
);
background = {
shapes = (
{
closed = 1;
nodes = (
(189,0,l),
(251,290,ls),
(266,362,o),
(295,403,o),
(337,403,cs),
(382,403,o),
(389,366,o),
(373,290,cs),
(311,0,l),
(481,0,l),
(543,290,ls),
(558,362,o),
(587,403,o),
(629,403,cs),
(674,403,o),
(682,366,o),
(666,290,cs),
(604,0,l),
(798,0,l),
(872,347,ls),
(901,483,o),
(840,552,o),
(733,552,cs),
(655,552,o),
(582,502,o),
(542,406,c),
(562,408,l),
(564,494,o),
(523,552,o),
(435,552,cs),
(361,552,o),
(291,506,o),
(251,422,c),
(263,414,l),
(284,540,l),
(110,540,l),
(-5,0,l)
);
}
);
};
layerId = "3507EE3D-0D92-4546-A145-3A991F0A2B71";
shapes = (
{
closed = 1;
nodes = (
(195,0,l),
(257,290,ls),
(272,362,o),
(297,403,o),
(335,403,cs),
(366,403,o),
(380,387,o),
(380,358,cs),
(380,341,o),
(376,314,o),
(371,290,cs),
(309,0,l),
(480,0,l),
(542,290,ls),
(557,362,o),
(585,403,o),
(624,403,cs),
(650,403,o),
(666,390,o),
(666,360,cs),
(666,333,o),
(660,307,o),
(654,278,cs),
(594,0,l),
(788,0,l),
(846,270,ls),
(856,314,o),
(866,376,o),
(866,412,cs),
(866,498,o),
(817,552,o),
(723,552,cs),
(641,552,o),
(580,502,o),
(540,406,c),
(560,408,l),
(560,498,o),
(519,552,o),
(426,552,cs),
(355,552,o),
(297,506,o),
(257,422,c),
(269,414,l),
(290,540,l),
(116,540,l),
(1,0,l)
);
}
);
width = 902;
},
{
anchors = (
{
name = bottom;
pos = (366,0);
},
{
name = top;
pos = (479,530);
}
);
background = {
shapes = (
{
closed = 1;
nodes = (
(92,0,l),
(160,317,ls),
(180,411,o),
(241,468,o),
(315,468,cs),
(393,468,o),
(412,411,o),
(392,317,cs),
(324,0,l),
(408,0,l),
(476,317,ls),
(496,412,o),
(556,468,o),
(630,468,cs),
(703,468,o),
(730,419,o),
(710,323,cs),
(641,0,l),
(725,0,l),
(798,341,ls),
(825,469,o),
(779,542,o),
(666,542,cs),
(577,542,o),
(508,490,o),
(472,399,c),
(488,398,l),
(492,489,o),
(444,542,o),
(352,542,cs),
(272,542,o),
(198,487,o),
(161,400,c),
(173,396,l),
(198,530,l),
(121,530,l),
(8,0,l)
);
}
);
};
layerId = "6C190511-B94A-4F5A-B519-D6E9DB0E7B93";
shapes = (
{
closed = 1;
nodes = (
(108,0,l),
(176,317,ls),
(196,411,o),
(249,468,o),
(319,468,cs),
(372,468,o),
(399,438,o),
(399,390,cs),
(399,372,o),
(395,340,o),
(390,317,cs),
(322,0,l),
(406,0,l),
(474,317,ls),
(494,412,o),
(550,468,o),
(618,468,cs),
(665,468,o),
(697,440,o),
(697,390,cs),
(697,364,o),
(692,337,o),
(688,317,cs),
(620,0,l),
(704,0,l),
(769,306,ls),
(774,330,o),
(783,370,o),
(783,406,cs),
(783,483,o),
(736,542,o),
(646,542,cs),
(567,542,o),
(506,490,o),
(470,399,c),
(486,398,l),
(484,496,o),
(442,542,o),
(350,542,cs),
(276,542,o),
(214,487,o),
(177,400,c),
(189,396,l),
(214,530,l),
(137,530,l),
(24,0,l)
);
}
);
width = 840;
}
);
metricLeft = n;
metricRight = n;
unicode = 109;
}
{
color = 3;
glyphname = n;
kernLeft = n;
kernRight = n;
layers = (
{
anchors = (
{
name = bottom;
pos = (215,0);
},
{
name = top;
pos = (328,530);
}
);
background = {
shapes = (
{
closed = 1;
nodes = (
(52,0,l),
(120,317,ls),
(144,431,o),
(226,512,o),
(336,512,cs),
(446,512,o),
(470,431,o),
(446,317,cs),
(378,0,l),
(408,0,l),
(481,341,ls),
(505,453,o),
(469,542,o),
(349,542,cs),
(254,542,o),
(161,488,o),
(129,384,c),
(134,384,l),
(163,530,l),
(135,530,l),
(22,0,l)
);
}
);
};
layerId = "EE2FFE84-06F1-4AFB-BBEC-60D09A436D14";
shapes = (
{
closed = 1;
nodes = (
(59,0,l),
(127,317,ls),
(151,431,o),
(233,512,o),
(337,512,cs),
(423,512,o),
(453,464,o),
(453,404,cs),
(453,366,o),
(447,340,o),
(439,302,cs),
(374,0,l),
(404,0,l),
(467,298,ls),
(475,336,o),
(483,370,o),
(483,410,cs),
(483,485,o),
(442,542,o),
(347,542,cs),
(254,542,o),
(168,488,o),
(136,384,c),
(141,384,l),
(170,530,l),
(142,530,l),
(29,0,l)
);
}
);
width = 545;
},
{
anchors = (
{
name = bottom;
pos = (258,0);
},
{
name = top;
pos = (373,540);
}
);
background = {
shapes = (
{
closed = 1;
nodes = (
(193,0,l),
(253,280,ls),
(269,358,o),
(299,403,o),
(348,403,cs),
(400,403,o),
(400,358,o),
(384,280,cs),
(324,0,l),
(518,0,l),
(592,347,ls),
(620,479,o),
(563,552,o),
(451,552,cs),
(359,552,o),
(277,507,o),
(236,370,c),
(260,368,l),
(288,540,l),
(114,540,l),
(-1,0,l)
);
}
);
};
layerId = "3507EE3D-0D92-4546-A145-3A991F0A2B71";
shapes = (
{
closed = 1;
nodes = (
(195,0,l),
(255,280,ls),
(271,358,o),
(301,403,o),
(348,403,cs),
(381,403,o),
(396,388,o),
(396,358,cs),
(396,334,o),
(390,304,o),
(384,278,cs),
(324,0,l),
(518,0,l),
(576,270,ls),
(584,308,o),
(596,368,o),
(596,412,cs),
(596,503,o),
(544,552,o),
(451,552,cs),
(359,552,o),
(279,507,o),
(238,370,c),
(262,368,l),
(290,540,l),
(116,540,l),
(1,0,l)
);
}
);
width = 632;
},
{
anchors = (
{
name = bottom;
pos = (231,0);
},
{
name = top;
pos = (344,530);
}
);
background = {
shapes = (
{
closed = 1;
nodes = (
(104,0,l),
(172,317,ls),
(193,415,o),
(262,468,o),
(344,468,cs),
(424,468,o),
(446,415,o),
(425,317,cs),
(357,0,l),
(441,0,l),
(514,341,ls),
(538,453,o),
(499,542,o),
(378,542,cs),
(295,542,o),
(216,498,o),
(176,404,c),
(184,395,l),
(210,530,l),
(133,530,l),
(20,0,l)
);
}
);
};
layerId = "6C190511-B94A-4F5A-B519-D6E9DB0E7B93";
shapes = (
{
closed = 1;
nodes = (
(108,0,l),
(176,317,ls),
(197,415,o),
(264,468,o),
(340,468,cs),
(397,468,o),
(426,439,o),
(426,390,cs),
(426,363,o),
(422,340,o),
(417,317,cs),
(349,0,l),
(433,0,l),
(498,306,ls),
(504,332,o),
(512,374,o),
(512,406,cs),
(512,485,o),
(466,542,o),
(370,542,cs),
(293,542,o),
(220,498,o),
(180,404,c),
(188,395,l),
(214,530,l),
(137,530,l),
(24,0,l)
);
}
);
width = 569;
}
);
unicode = 110;
}
{
color = 3;
glyphname = p;
kernLeft = n;
kernRight = o;
layers = (
{
anchors = (
{
name = bottom;
pos = (229,0);
},
{
name = top;
pos = (342,530);
}
);
background = {
anchors = (
{
name = bottom;
pos = (229,0);
},
{
name = top;
pos = (342,530);
}
);
shapes = (
{
closed = 1;
nodes = (
(27,-150,l),
(96,173,l),
(87,162,l),
(82,74,o),
(147,-12,o),
(247,-12,cs),
(379,-12,o),
(485,95,o),
(521,265,cs),
(557,435,o),
(497,542,o),
(363,542,cs),
(265,542,o),
(176,476,o),
(125,360,c),
(133,355,l),
(168,530,l),
(142,530,l),
(-3,-150,l)
);
},
{
closed = 1;
nodes = (
(143,18,o),
(86,125,o),
(116,265,cs),
(145,405,o),
(246,512,o),
(356,512,cs),
(470,512,o),
(521,417,o),
(489,265,cs),
(456,113,o),
(366,18,o),
(253,18,cs)
);
}
);
};
layerId = "EE2FFE84-06F1-4AFB-BBEC-60D09A436D14";
shapes = (
{
closed = 1;
nodes = (
(27,-150,l),
(87,128,l),
(97,50,o),
(145,-12,o),
(232,-12,cs),
(391,-12,o),
(515,150,o),
(515,356,cs),
(515,474,o),
(457,542,o),
(353,542,cs),
(255,542,o),
(169,470,o),
(121,361,c),
(131,356,l),
(168,530,l),
(142,530,l),
(-3,-150,l)
);
},
{
closed = 1;
nodes = (
(159,18,o),
(107,80,o),
(107,184,cs),
(107,357,o),
(213,512,o),
(347,512,cs),
(435,512,o),
(483,460,o),
(483,348,cs),
(483,166,o),
(374,18,o),
(238,18,cs)
);
}
);
width = 557;
},
{
anchors = (
{
name = bottom;
pos = (276,0);
},
{
name = top;
pos = (391,540);
}
);
background = {
anchors = (
{
name = bottom;
pos = (276,0);
},
{
name = top;
pos = (391,540);
}
);
shapes = (
{
closed = 1;
nodes = (
(163,-150,l),
(219,112,l),
(205,108,l),
(214,34,o),
(269,-12,o),
(345,-12,cs),
(489,-12,o),
(596,105,o),
(631,270,cs),
(666,435,o),
(611,552,o),
(467,552,cs),
(387,552,o),
(315,509,o),
(273,432,c),
(285,427,l),
(305,540,l),
(116,540,l),
(-31,-150,l)
);
},
{
closed = 1;
nodes = (
(254,127,o),
(233,176,o),
(253,270,cs),
(273,364,o),
(316,413,o),
(372,413,cs),
(428,413,o),
(450,358,o),
(432,270,cs),
(413,182,o),
(367,127,o),
(311,127,cs)
);
}
);
};
layerId = "3507EE3D-0D92-4546-A145-3A991F0A2B71";
shapes = (
{
closed = 1;
nodes = (
(163,-150,l),
(212,78,l),
(229,20,o),
(275,-12,o),
(343,-12,cs),
(501,-12,o),
(619,149,o),
(619,362,cs),
(619,482,o),
(570,552,o),
(465,552,cs),
(377,552,o),
(314,508,o),
(273,432,c),
(281,416,l),
(305,540,l),
(116,540,l),
(-31,-150,l)
);
},
{
closed = 1;
nodes = (
(267,127,o),
(246,155,o),
(246,206,cs),
(246,312,o),
(297,413,o),
(365,413,cs),
(404,413,o),
(420,381,o),
(420,328,cs),
(420,219,o),
(367,127,o),
(303,127,cs)
);
}
);
width = 644;
},
{
anchors = (
{
name = bottom;
pos = (243,0);
},
{
name = top;
pos = (356,530);
}
);
background = {
anchors = (
{
name = bottom;
pos = (243,0);
},
{
name = top;
pos = (356,530);
}
);
shapes = (
{
closed = 1;
nodes = (
(76,-150,l),
(133,114,l),
(118,100,l),
(121,32,o),
(182,-12,o),
(264,-12,cs),
(422,-12,o),
(521,119,o),
(552,265,cs),
(583,411,o),
(540,542,o),
(382,542,cs),
(300,542,o),
(225,500,o),
(182,422,c),
(193,416,l),
(215,530,l),
(137,530,l),
(-8,-150,l)
);
},
{
closed = 1;
nodes = (
(180,68,o),
(137,135,o),
(165,265,cs),
(192,395,o),
(265,462,o),
(357,462,cs),
(449,462,o),
(490,389,o),
(464,265,cs),
(437,141,o),
(365,68,o),
(273,68,cs)
);
}
);
};
layerId = "6C190511-B94A-4F5A-B519-D6E9DB0E7B93";
shapes = (
{
closed = 1;
nodes = (
(76,-150,l),
(123,74,l),
(137,26,o),
(185,-12,o),
(253,-12,cs),
(423,-12,o),
(541,152,o),
(541,342,cs),
(541,462,o),
(485,542,o),
(373,542,cs),
(281,542,o),
(220,492,o),
(179,418,c),
(191,410,l),
(215,530,l),
(137,530,l),
(-8,-150,l)
);
},
{
closed = 1;
nodes = (
(198,68,o),
(155,110,o),
(155,192,cs),
(155,360,o),
(243,462,o),
(351,462,cs),
(421,462,o),
(453,420,o),
(453,330,cs),
(453,190,o),
(372,68,o),
(264,68,cs)
);
}
);
width = 579;
}
);
metricLeft = n;
metricRight = o;
unicode = 112;
}
{
color = 4;
glyphname = t;
kernLeft = t;
kernRight = t;
layers = (
{
anchors = (
{
name = bottom;
pos = (170,0);
},
{
name = center;
pos = (199,325);
},
{
name = top;
pos = (232,530);
},
{
name = topright;
pos = (368,530);
}
);
background = {
shapes = (
{
closed = 1;
nodes = (
(255,0,l),
(261,28,l),
(205,28,ls),
(166,28,o),
(145,41,o),
(145,73,cs),
(145,84,o),
(147,98,o),
(152,120,cs),
(266,654,l),
(236,654,l),
(118,100,ls),
(116,88,o),
(114,78,o),
(114,68,cs),
(114,23,o),
(141,0,o),
(197,0,cs)
);
},
{
closed = 1;
nodes = (
(362,502,l),
(368,530,l),
(116,530,l),
(110,502,l)
);
}
);
};
layerId = "EE2FFE84-06F1-4AFB-BBEC-60D09A436D14";
shapes = (
{
closed = 1;
nodes = (
(255,0,l),
(261,28,l),
(194,28,ls),
(157,28,o),
(144,42,o),
(144,62,cs),
(144,85,o),
(150,114,o),
(158,150,cs),
(266,654,l),
(236,654,l),
(128,148,ls),
(121,114,o),
(114,84,o),
(114,56,cs),
(114,17,o),
(138,0,o),
(190,0,cs)
);
},
{
closed = 1;
nodes = (
(362,502,l),
(368,530,l),
(116,530,l),
(110,502,l)
);
}
);
width = 352;
},
{
anchors = (
{
name = bottom;
pos = (224,0);
},
{
name = center;
pos = (241,278);
},
{
name = top;
pos = (300,540);
},
{
name = topright;
pos = (517,540);
}
);
background = {
shapes = (
{
closed = 1;
nodes = (
(402,0,l),
(431,137,l),
(357,137,ls),
(321,137,o),
(301,147,o),
(301,178,cs),
(301,186,o),
(303,195,o),
(305,206,cs),
(403,667,l),
(209,667,l),
(105,178,ls),
(100,155,o),
(98,134,o),
(98,115,cs),
(98,36,o),
(144,0,o),
(242,0,cs)
);
},
{
closed = 1;
nodes = (
(488,403,l),
(517,540,l),
(90,540,l),
(61,403,l)
);
}
);
};
layerId = "3507EE3D-0D92-4546-A145-3A991F0A2B71";
shapes = (
{
closed = 1;
nodes = (
(402,0,l),
(431,137,l),
(349,137,ls),
(317,137,o),
(302,148,o),
(302,172,cs),
(302,193,o),
(310,229,o),
(318,266,cs),
(403,667,l),
(209,667,l),
(124,268,ls),
(111,207,o),
(98,155,o),
(98,106,cs),
(98,34,o),
(136,0,o),
(233,0,cs)
);
},
{
closed = 1;
nodes = (
(488,403,l),
(517,540,l),
(90,540,l),
(61,403,l)
);
}
);
width = 482;
},
{
anchors = (
{
name = bottom;
pos = (178,0);
},
{
name = center;
pos = (209,290);
},
{
name = top;
pos = (255,530);
},
{
name = topright;
pos = (415,530);
}
);
background = {
shapes = (
{
closed = 1;
nodes = (
(302,0,l),
(318,74,l),
(242,74,ls),
(206,74,o),
(188,85,o),
(188,115,cs),
(188,121,o),
(189,129,o),
(191,138,cs),
(301,654,l),
(217,654,l),
(106,136,ls),
(102,119,o),
(101,104,o),
(101,91,cs),
(101,28,o),
(139,0,o),
(218,0,cs)
);
},
{
closed = 1;
nodes = (
(399,456,l),
(415,530,l),
(112,530,l),
(96,456,l)
);
}
);
};
layerId = "6C190511-B94A-4F5A-B519-D6E9DB0E7B93";
shapes = (
{
closed = 1;
nodes = (
(302,0,l),
(318,74,l),
(230,74,ls),
(202,74,o),
(188,85,o),
(188,106,cs),
(188,124,o),
(193,149,o),
(198,173,cs),
(301,654,l),
(217,654,l),
(116,184,ls),
(109,150,o),
(100,106,o),
(100,80,cs),
(100,28,o),
(129,0,o),
(208,0,cs)
);
},
{
closed = 1;
nodes = (
(399,456,l),
(415,530,l),
(112,530,l),
(96,456,l)
);
}
);
width = 393;
}
);
metricLeft = "=f-5";
metricRight = "=o-10";
unicode = 116;
}
{
color = 3;
glyphname = u;
kernLeft = u;
kernRight = u;
layers = (
{
anchors = (
{
name = bottom;
pos = (222,0);
},
{
name = ogonek;
pos = (415,0);
},
{
name = top;
pos = (335,530);
}
);
background = {
shapes = (
{
closed = 1;
nodes = (
(307,-12,o),
(390,46,o),
(422,145,c),
(417,145,l),
(389,0,l),
(415,0,l),
(528,530,l),
(498,530,l),
(430,213,ls),
(405,94,o),
(321,18,o),
(215,18,cs),
(117,18,o),
(76,81,o),
(102,202,cs),
(172,530,l),
(142,530,l),
(69,189,ls),
(42,63,o),
(94,-12,o),
(200,-12,cs)
);
}
);
};
layerId = "EE2FFE84-06F1-4AFB-BBEC-60D09A436D14";
shapes = (
{
closed = 1;
nodes = (
(305,-12,o),
(390,46,o),
(422,145,c),
(417,145,l),
(389,0,l),
(415,0,l),
(528,530,l),
(498,530,l),
(430,213,ls),
(405,94,o),
(319,18,o),
(205,18,cs),
(127,18,o),
(93,51,o),
(93,108,cs),
(93,152,o),
(103,208,o),
(111,244,cs),
(172,530,l),
(142,530,l),
(85,263,ls),
(71,195,o),
(63,152,o),
(63,106,cs),
(63,28,o),
(111,-12,o),
(198,-12,cs)
);
}
);
width = 557;
},
{
anchors = (
{
name = bottom;
pos = (257,0);
},
{
name = ogonek;
pos = (517,0);
},
{
name = top;
pos = (372,540);
}
);
background = {
shapes = (
{
closed = 1;
nodes = (
(284,-12,o),
(357,47,o),
(394,168,c),
(372,170,l),
(343,0,l),
(517,0,l),
(632,540,l),
(438,540,l),
(375,246,ls),
(359,168,o),
(327,137,o),
(281,137,cs),
(241,137,o),
(229,166,o),
(244,236,cs),
(309,540,l),
(115,540,l),
(41,192,ls),
(13,62,o),
(61,-12,o),
(175,-12,cs)
);
}
);
};
layerId = "3507EE3D-0D92-4546-A145-3A991F0A2B71";
shapes = (
{
closed = 1;
nodes = (
(284,-12,o),
(357,47,o),
(394,168,c),
(372,170,l),
(343,0,l),
(517,0,l),
(632,540,l),
(438,540,l),
(375,246,ls),
(359,168,o),
(327,137,o),
(281,137,cs),
(252,137,o),
(238,152,o),
(238,179,cs),
(238,204,o),
(244,233,o),
(248,253,cs),
(309,540,l),
(115,540,l),
(49,229,ls),
(41,192,o),
(34,156,o),
(34,114,cs),
(34,37,o),
(82,-12,o),
(175,-12,cs)
);
}
);
width = 631;
},
{
anchors = (
{
name = bottom;
pos = (228,0);
},
{
name = ogonek;
pos = (439,0);
},
{
name = top;
pos = (341,530);
}
);
background = {
shapes = (
{
closed = 1;
nodes = (
(285,-12,o),
(359,37,o),
(398,124,c),
(387,131,l),
(359,0,l),
(439,0,l),
(552,530,l),
(468,530,l),
(400,214,ls),
(380,119,o),
(317,62,o),
(233,62,cs),
(157,62,o),
(131,109,o),
(153,212,cs),
(221,530,l),
(137,530,l),
(64,189,ls),
(37,63,o),
(89,-12,o),
(195,-12,cs)
);
}
);
};
layerId = "6C190511-B94A-4F5A-B519-D6E9DB0E7B93";
shapes = (
{
closed = 1;
nodes = (
(285,-12,o),
(359,37,o),
(398,124,c),
(387,131,l),
(359,0,l),
(439,0,l),
(552,530,l),
(468,530,l),
(400,214,ls),
(380,119,o),
(317,62,o),
(227,62,cs),
(174,62,o),
(145,88,o),
(145,133,cs),
(145,166,o),
(150,196,o),
(157,230,cs),
(221,530,l),
(137,530,l),
(75,240,ls),
(67,204,o),
(57,157,o),
(57,118,cs),
(57,39,o),
(108,-12,o),
(195,-12,cs)
);
}
);
width = 576;
}
);
metricLeft = n;
metricRight = n;
unicode = 117;
}
{
color = 3;
glyphname = z;
kernLeft = z;
kernRight = z;
layers = (
{
anchors = (
{
name = bottom;
pos = (207,0);
},
{
name = top;
pos = (319,530);
}
);
background = {
anchors = (
{
name = bottom;
pos = (207,0);
},
{
name = top;
pos = (319,530);
}
);
shapes = (
{
closed = 1;
nodes = (
(415,0,l),
(421,28,l),
(37,28,l),
(513,500,l),
(519,530,l),
(119,530,l),
(113,502,l),
(479,502,l),
(3,30,l),
(-3,0,l)
);
}
);
};
layerId = "EE2FFE84-06F1-4AFB-BBEC-60D09A436D14";
shapes = (
{
closed = 1;
nodes = (
(409,0,l),
(415,28,l),
(43,28,l),
(507,500,l),
(513,530,l),
(125,530,l),
(119,502,l),
(473,502,l),
(9,30,l),
(3,0,l)
);
}
);
width = 524;
},
{
anchors = (
{
name = bottom;
pos = (244,0);
},
{
name = top;
pos = (358,540);
}
);
background = {
anchors = (
{
name = bottom;
pos = (244,0);
},
{
name = top;
pos = (358,540);
}
);
shapes = (
{
closed = 1;
nodes = (
(497,0,l),
(526,137,l),
(242,137,l),
(575,400,l),
(604,540,l),
(110,540,l),
(81,403,l),
(336,403,l),
(11,140,l),
(-18,0,l)
);
}
);
};
layerId = "3507EE3D-0D92-4546-A145-3A991F0A2B71";
shapes = (
{
closed = 1;
nodes = (
(480,0,l),
(509,137,l),
(258,137,l),
(558,400,l),
(587,540,l),
(126,540,l),
(97,403,l),
(322,403,l),
(27,140,l),
(-2,0,l)
);
}
);
width = 592;
},
{
anchors = (
{
name = bottom;
pos = (210,0);
},
{
name = top;
pos = (322,530);
}
);
background = {
anchors = (
{
name = bottom;
pos = (210,0);
},
{
name = top;
pos = (322,530);
}
);
shapes = (
{
closed = 1;
nodes = (
(426,0,l),
(441,74,l),
(98,74,l),
(512,446,l),
(530,530,l),
(113,530,l),
(98,456,l),
(423,456,l),
(9,84,l),
(-9,0,l)
);
}
);
};
layerId = "6C190511-B94A-4F5A-B519-D6E9DB0E7B93";
shapes = (
{
closed = 1;
nodes = (
(415,0,l),
(430,74,l),
(108,74,l),
(501,446,l),
(519,530,l),
(123,530,l),
(108,456,l),
(412,456,l),
(19,84,l),
(1,0,l)
);
}
);
width = 528;
}
);
metricLeft = "=x+10";
metricRight = "=x+10";
unicode = 122;
}
{
color = 4;
glyphname = asciitilde;
kernLeft = plus;
kernRight = plus;
layers = (
{
associatedMasterId = "EE2FFE84-06F1-4AFB-BBEC-60D09A436D14";
guides = (
{
angle = 270;
pos = (516,235);
},
{
pos = (112,235);
},
{
pos = (441,419);
}
);
layerId = "4F0FB2D7-28AD-46D9-9CCC-E76156F069EC";
name = "30 de ene. de 23 12:33";
shapes = (
{
closed = 1;
nodes = (
(285,370,l),
(160,478,o),
(36,407,o),
(36,245,c),
(116,245,l),
(116,387,o),
(212,360,o),
(285,270,c)
);
},
{
closed = 1;
nodes = (
(260,297,l),
(385,189,o),
(509,260,o),
(509,422,c),
(429,422,l),
(429,280,o),
(333,307,o),
(260,397,c)
);
}
);
width = 556;
},
{
associatedMasterId = "EE2FFE84-06F1-4AFB-BBEC-60D09A436D14";
guides = (
{
angle = 270;
pos = (516,235);
},
{
pos = (116,245);
},
{
pos = (441,419);
}
);
layerId = "C505FC5B-995D-4589-A342-07E0B778C222";
name = "30 de ene. de 23 13:00";
shapes = (
{
closed = 1;
nodes = (
(283,279,l),
(431,191,o),
(509,284,o),
(509,422,c),
(429,422,l),
(429,299,o),
(377,315,o),
(284,373,c),
(257,391,l),
(148,466,o),
(36,396,o),
(36,245,c),
(116,245,l),
(116,371,o),
(180,342,o),
(257,294,c)
);
}
);
width = 556;
},
{
background = {
shapes = (
{
closed = 1;
nodes = (
(397,263,o),
(447,312,o),
(471,398,c),
(439,398,l),
(423,336,o),
(382,293,o),
(337,293,cs),
(310,293,o),
(293,304,o),
(264,348,cs),
(241,382,o),
(218,404,o),
(178,404,cs),
(115,404,o),
(65,355,o),
(41,268,c),
(73,268,l),
(89,331,o),
(130,374,o),
(172,374,cs),
(206,374,o),
(219,358,o),
(246,318,cs),
(272,280,o),
(294,263,o),
(332,263,cs)
);
}
);
};
guides = (
{
angle = 270;
pos = (507,235);
},
{
pos = (107,245);
},
{
pos = (432,421);
}
);
layerId = "EE2FFE84-06F1-4AFB-BBEC-60D09A436D14";
name = Regular;
shapes = (
{
closed = 1;
nodes = (
(397,263,o),
(446,304,o),
(470,398,c),
(438,398,l),
(420,330,o),
(384,293,o),
(344,293,cs),
(309,293,o),
(291,305,o),
(265,345,cs),
(242,381,o),
(222,404,o),
(172,404,cs),
(113,404,o),
(65,355,o),
(41,268,c),
(73,268,l),
(89,331,o),
(126,374,o),
(170,374,cs),
(202,374,o),
(217,365,o),
(243,323,cs),
(269,281,o),
(294,263,o),
(340,263,cs)
);
}
);
width = 482;
},
{
background = {
shapes = (
{
closed = 1;
nodes = (
(423,242,o),
(491,308,o),
(515,421,c),
(390,421,l),
(381,377,o),
(366,356,o),
(344,356,cs),
(330,356,o),
(323,361,o),
(305,384,cs),
(283,411,o),
(256,424,o),
(219,424,cs),
(127,424,o),
(58,357,o),
(35,245,c),
(161,245,l),
(170,288,o),
(185,310,o),
(206,310,cs),
(220,310,o),
(225,307,o),
(248,279,cs),
(269,254,o),
(295,242,o),
(332,242,cs)
);
}
);
};
layerId = "3507EE3D-0D92-4546-A145-3A991F0A2B71";
name = Regular;
shapes = (
{
closed = 1;
nodes = (
(430,242,o),
(491,308,o),
(515,421,c),
(390,421,l),
(381,377,o),
(368,356,o),
(346,356,cs),
(330,356,o),
(321,362,o),
(306,382,cs),
(282,414,o),
(254,424,o),
(207,424,cs),
(117,424,o),
(58,357,o),
(35,245,c),
(161,245,l),
(170,288,o),
(185,310,o),
(206,310,cs),
(220,310,o),
(229,304,o),
(245,283,cs),
(267,254,o),
(294,242,o),
(340,242,cs)
);
}
);
width = 523;
},
{
background = {
shapes = (
{
closed = 1;
nodes = (
(424,236,o),
(493,310,o),
(516,420,c),
(437,420,l),
(422,350,o),
(395,313,o),
(361,313,cs),
(335,313,o),
(326,321,o),
(301,366,cs),
(275,411,o),
(256,430,o),
(205,430,cs),
(128,430,o),
(59,355,o),
(36,246,c),
(115,246,l),
(130,316,o),
(157,353,o),
(192,353,cs),
(214,353,o),
(221,349,o),
(251,299,cs),
(281,251,o),
(299,236,o),
(346,236,cs)
);
}
);
};
layerId = "6C190511-B94A-4F5A-B519-D6E9DB0E7B93";
name = Regular;
shapes = (
{
closed = 1;
nodes = (
(428,236,o),
(488,295,o),
(515,420,c),
(436,420,l),
(418,338,o),
(394,313,o),
(358,313,cs),
(336,313,o),
(322,324,o),
(302,364,cs),
(279,410,o),
(249,430,o),
(200,430,cs),
(121,430,o),
(71,371,o),
(36,246,c),
(115,246,l),
(133,330,o),
(160,353,o),
(192,353,cs),
(214,353,o),
(226,342,o),
(250,300,cs),
(276,255,o),
(303,236,o),
(350,236,cs)
);
}
);
width = 522;
}
);
metricLeft = plus;
metricRight = plus;
unicode = 126;
}
{
color = 3;
glyphname = exclamdown;
layers = (
{
anchors = (
{
name = top;
pos = (138,530);
}
);
associatedMasterId = "EE2FFE84-06F1-4AFB-BBEC-60D09A436D14";
layerId = "BEE6232E-7C53-4EDA-8B26-9CFE14D20731";
name = "25 de ene. de 23 09:34";
shapes = (
{
closed = 1;
nodes = (
(105,555,o),
(80,531,o),
(80,498,cs),
(80,465,o),
(105,441,o),
(138,441,cs),
(171,441,o),
(196,465,o),
(196,498,cs),
(196,531,o),
(171,555,o),
(138,555,cs)
);
},
{
closed = 1;
nodes = (
(182,-161,l),
(182,69,l),
(166,344,l),
(110,344,l),
(94,69,l),
(94,-161,l)
);
}
);
width = 276;
},
{
layerId = "EE2FFE84-06F1-4AFB-BBEC-60D09A436D14";
name = Regular;
shapes = (
{
closed = 1;
nodes = (
(12,-162,l),
(65,88,ls),
(82,170,o),
(97,253,o),
(114,343,c),
(92,343,l),
(71,253,o),
(50,170,o),
(33,88,cs),
(-20,-162,l)
);
},
{
angle = 180;
pos = (168,548);
ref = period;
}
);
width = 169;
},
{
layerId = "3507EE3D-0D92-4546-A145-3A991F0A2B71";
name = Regular;
shapes = (
{
closed = 1;
nodes = (
(151,-162,l),
(194,41,ls),
(211,121,o),
(218,240,o),
(220,306,c),
(86,306,l),
(60,240,o),
(16,121,o),
(-1,41,cs),
(-44,-162,l)
);
},
{
alignment = -1;
angle = 180;
pos = (275,548);
ref = period;
}
);
width = 288;
},
{
layerId = "6C190511-B94A-4F5A-B519-D6E9DB0E7B93";
name = Regular;
shapes = (
{
closed = 1;
nodes = (
(60,-162,l),
(109,68,ls),
(126,148,o),
(143,273,o),
(152,343,c),
(97,343,l),
(76,273,o),
(40,148,o),
(23,68,cs),
(-26,-162,l)
);
},
{
alignment = -1;
angle = 180;
pos = (213,548);
ref = period;
}
);
width = 213;
}
);
metricLeft = "=O+5";
metricRight = "=O+5";
unicode = 161;
}
{
color = 4;
glyphname = brokenbar;
layers = (
{
guides = (
{
pos = (397,355);
},
{
pos = (394,201);
}
);
layerId = "EE2FFE84-06F1-4AFB-BBEC-60D09A436D14";
shapes = (
{
closed = 1;
nodes = (
(154,395,l),
(229,750,l),
(199,750,l),
(124,395,l)
);
},
{
closed = 1;
nodes = (
(46,-110,l),
(122,245,l),
(92,245,l),
(16,-110,l)
);
}
);
width = 222;
},
{
layerId = "3507EE3D-0D92-4546-A145-3A991F0A2B71";
shapes = (
{
closed = 1;
nodes = (
(285,395,l),
(360,750,l),
(170,750,l),
(95,395,l)
);
},
{
closed = 1;
nodes = (
(177,-110,l),
(253,245,l),
(63,245,l),
(-13,-110,l)
);
}
);
width = 326;
},
{
layerId = "6C190511-B94A-4F5A-B519-D6E9DB0E7B93";
shapes = (
{
closed = 1;
nodes = (
(200,395,l),
(275,750,l),
(195,750,l),
(120,395,l)
);
},
{
closed = 1;
nodes = (
(92,-110,l),
(168,245,l),
(88,245,l),
(12,-110,l)
);
}
);
width = 264;
}
);
metricLeft = H;
metricRight = H;
unicode = 166;
}
{
color = 4;
glyphname = section;
layers = (
{
background = {
shapes = (
{
closed = 1;
nodes = (
(305,-64,o),
(415,-25,o),
(438,80,cs),
(451,141,o),
(414,182,o),
(327,206,c),
(408,221,o),
(475,257,o),
(491,330,cs),
(506,403,o),
(471,448,o),
(319,473,cs),
(209,491,o),
(166,527,o),
(178,585,cs),
(191,646,o),
(267,694,o),
(352,694,cs),
(455,694,o),
(490,636,o),
(486,553,c),
(521,556,l),
(528,651,o),
(478,726,o),
(363,726,cs),
(254,726,o),
(165,667,o),
(148,584,cs),
(135,523,o),
(173,480,o),
(257,460,c),
(158,446,o),
(104,393,o),
(91,332,cs),
(72,243,o),
(148,214,o),
(244,199,cs),
(379,178,o),
(418,130,o),
(408,81,cs),
(391,2,o),
(288,-32,o),
(217,-32,cs),
(98,-32,o),
(54,29,o),
(63,119,c),
(28,115,l),
(19,15,o),
(72,-64,o),
(210,-64,cs)
);
},
{
closed = 1;
nodes = (
(154,228,o),
(108,271,o),
(122,335,cs),
(135,395,o),
(206,438,o),
(282,438,cs),
(408,438,o),
(474,394,o),
(461,332,cs),
(449,273,o),
(377,228,o),
(294,228,cs)
);
}
);
};
layerId = "EE2FFE84-06F1-4AFB-BBEC-60D09A436D14";
shapes = (
{
closed = 1;
nodes = (
(352,-64,o),
(440,-8,o),
(440,93,cs),
(440,152,o),
(410,185,o),
(326,208,c),
(419,214,o),
(494,265,o),
(494,348,cs),
(494,407,o),
(458,449,o),
(319,473,cs),
(206,493,o),
(176,518,o),
(176,568,cs),
(176,642,o),
(241,694,o),
(354,694,cs),
(459,694,o),
(486,645,o),
(486,553,c),
(521,556,l),
(521,651,o),
(483,726,o),
(359,726,cs),
(221,726,o),
(144,659,o),
(144,564,cs),
(144,506,o),
(182,476,o),
(258,458,c),
(145,444,o),
(90,390,o),
(90,308,cs),
(90,244,o),
(144,217,o),
(244,199,cs),
(375,176,o),
(408,145,o),
(408,89,cs),
(408,5,o),
(319,-32,o),
(217,-32,cs),
(108,-32,o),
(63,6,o),
(63,119,c),
(28,115,l),
(28,-12,o),
(83,-64,o),
(210,-64,cs)
);
},
{
closed = 1;
nodes = (
(175,228,o),
(120,257,o),
(120,314,cs),
(120,387,o),
(193,438,o),
(300,438,cs),
(404,438,o),
(464,403,o),
(464,344,cs),
(464,272,o),
(397,228,o),
(284,228,cs)
);
}
);
width = 540;
},
{
associatedMasterId = "EE2FFE84-06F1-4AFB-BBEC-60D09A436D14";
layerId = "7700FFAE-6384-4C8E-8C6C-3FD724929929";
name = "18 de feb. de 23 12:17";
shapes = (
{
closed = 1;
nodes = (
(454,620,o),
(341,681,o),
(255,681,cs),
(143,681,o),
(50,626,o),
(50,523,cs),
(50,464,o),
(98,422,o),
(196,397,c),
(186,430,l),
(88,406,o),
(47,353,o),
(47,287,cs),
(47,211,o),
(99,171,o),
(247,136,cs),
(341,113,o),
(377,85,o),
(377,45,cs),
(377,1,o),
(331,-27,o),
(260,-27,cs),
(185,-27,o),
(129,12,o),
(119,76,c),
(30,70,l),
(40,-35,o),
(139,-109,o),
(260,-109,cs),
(363,-109,o),
(467,-60,o),
(467,38,cs),
(467,102,o),
(444,151,o),
(340,183,c),
(343,151,l),
(428,171,o),
(470,212,o),
(470,274,cs),
(470,366,o),
(420,407,o),
(265,446,cs),
(167,472,o),
(140,490,o),
(140,531,cs),
(140,571,o),
(185,599,o),
(245,599,cs),
(323,599,o),
(371,563,o),
(381,505,c),
(469,511,l)
);
},
{
closed = 1;
nodes = (
(137,335,o),
(182,363,o),
(242,363,cs),
(296,363,o),
(380,343,o),
(380,281,cs),
(380,237,o),
(333,211,o),
(262,211,c),
(168,221,o),
(137,254,o),
(137,295,cs)
);
}
);
width = 500;
},
{
background = {
shapes = (
{
closed = 1;
nodes = (
(425,-67,o),
(533,-8,o),
(556,100,cs),
(567,151,o),
(553,187,o),
(503,215,c),
(560,239,o),
(591,276,o),
(601,326,cs),
(624,434,o),
(534,479,o),
(389,500,cs),
(340,507,o),
(316,523,o),
(323,554,cs),
(329,584,o),
(356,603,o),
(394,603,cs),
(435,603,o),
(459,576,o),
(456,532,c),
(650,538,l),
(658,658,o),
(572,726,o),
(424,726,cs),
(254,726,o),
(145,665,o),
(122,554,cs),
(112,508,o),
(126,473,o),
(172,444,c),
(120,419,o),
(90,382,o),
(78,340,cs),
(51,246,o),
(100,193,o),
(238,167,cs),
(336,149,o),
(363,130,o),
(357,102,cs),
(351,77,o),
(322,59,o),
(285,59,cs),
(238,59,o),
(213,83,o),
(214,126,c),
(17,117,l),
(2,2,o),
(91,-67,o),
(265,-67,cs)
);
},
{
closed = 1;
nodes = (
(277,278,o),
(253,301,o),
(260,334,cs),
(267,366,o),
(301,387,o),
(346,387,cs),
(385,387,o),
(428,368,o),
(420,329,cs),
(413,295,o),
(375,274,o),
(329,274,cs)
);
}
);
};
layerId = "3507EE3D-0D92-4546-A145-3A991F0A2B71";
shapes = (
{
closed = 1;
nodes = (
(444,-67,o),
(558,12,o),
(558,120,cs),
(558,160,o),
(542,193,o),
(503,215,c),
(581,248,o),
(605,289,o),
(605,343,cs),
(605,428,o),
(547,471,o),
(388,500,cs),
(345,508,o),
(320,521,o),
(320,546,cs),
(320,582,o),
(347,603,o),
(394,603,cs),
(435,603,o),
(456,576,o),
(456,532,c),
(650,538,l),
(650,663,o),
(585,726,o),
(424,726,cs),
(227,726,o),
(121,657,o),
(120,528,cs),
(120,495,o),
(138,467,o),
(175,444,c),
(113,414,o),
(71,368,o),
(71,303,cs),
(71,227,o),
(124,186,o),
(238,168,cs),
(340,152,o),
(358,133,o),
(358,104,cs),
(358,74,o),
(329,59,o),
(285,59,cs),
(232,59,o),
(214,82,o),
(214,126,c),
(17,117,l),
(17,-14,o),
(83,-67,o),
(265,-67,cs)
);
},
{
closed = 1;
nodes = (
(279,274,o),
(259,295,o),
(259,323,cs),
(259,360,o),
(286,387,o),
(346,387,cs),
(394,387,o),
(421,366,o),
(421,338,cs),
(421,296,o),
(394,274,o),
(329,274,cs)
);
}
);
width = 643;
},
{
background = {
shapes = (
{
closed = 1;
nodes = (
(335,-64,o),
(435,-2,o),
(453,84,cs),
(466,145,o),
(449,183,o),
(398,210,c),
(459,232,o),
(495,269,o),
(506,322,cs),
(525,411,o),
(485,452,o),
(337,490,cs),
(244,516,o),
(220,535,o),
(229,576,cs),
(238,616,o),
(289,646,o),
(351,646,cs),
(427,646,o),
(470,611,o),
(468,550,c),
(555,556,l),
(563,663,o),
(497,726,o),
(377,726,cs),
(255,726,o),
(159,666,o),
(139,572,cs),
(129,525,o),
(152,487,o),
(207,460,c),
(140,433,o),
(99,390,o),
(86,332,cs),
(70,256,o),
(114,212,o),
(244,183,cs),
(344,161,o),
(376,131,o),
(368,90,cs),
(358,45,o),
(322,16,o),
(231,16,cs),
(145,16,o),
(108,57,o),
(111,121,c),
(23,115,l),
(11,12,o),
(79,-64,o),
(214,-64,cs)
);
},
{
closed = 1;
nodes = (
(186,248,o),
(159,296,o),
(168,341,cs),
(177,384,o),
(231,419,o),
(285,419,cs),
(360,419,o),
(442,392,o),
(428,326,cs),
(418,279,o),
(371,248,o),
(309,248,cs)
);
}
);
};
layerId = "6C190511-B94A-4F5A-B519-D6E9DB0E7B93";
shapes = (
{
closed = 1;
nodes = (
(366,-64,o),
(458,13,o),
(458,116,cs),
(458,163,o),
(437,188,o),
(397,209,c),
(471,236,o),
(510,275,o),
(510,345,cs),
(510,406,o),
(479,454,o),
(337,490,cs),
(250,512,o),
(227,530,o),
(227,561,cs),
(227,612,o),
(266,646,o),
(354,646,cs),
(441,646,o),
(468,617,o),
(468,550,c),
(555,556,l),
(555,671,o),
(500,726,o),
(368,726,cs),
(223,726,o),
(137,655,o),
(137,551,cs),
(137,514,o),
(160,483,o),
(207,460,c),
(137,441,o),
(84,387,o),
(84,319,cs),
(84,248,o),
(115,215,o),
(244,183,cs),
(334,161,o),
(368,145,o),
(368,100,cs),
(368,36,o),
(302,16,o),
(231,16,cs),
(145,16,o),
(111,41,o),
(111,121,c),
(23,115,l),
(23,-10,o),
(80,-64,o),
(214,-64,cs)
);
},
{
closed = 1;
nodes = (
(218,248,o),
(166,276,o),
(166,331,cs),
(166,382,o),
(203,420,o),
(286,420,cs),
(396,420,o),
(428,383,o),
(428,336,cs),
(428,276,o),
(373,248,o),
(309,248,cs)
);
}
);
width = 552;
}
);
metricLeft = S;
metricRight = S;
unicode = 167;
}
{
color = 4;
glyphname = onesuperior;
layers = (
{
background = {
shapes = (
{
closed = 1;
nodes = (
(159,323,l),
(241,710,l),
(219,710,l),
(208,657,o),
(172,631,o),
(111,631,cs),
(98,631,l),
(94,609,l),
(192,609,l),
(131,323,l)
);
}
);
};
layerId = "EE2FFE84-06F1-4AFB-BBEC-60D09A436D14";
shapes = (
{
closed = 1;
nodes = (
(159,323,l),
(241,710,l),
(219,710,l),
(207,656,o),
(184,631,o),
(118,631,cs),
(98,631,l),
(94,609,l),
(192,609,l),
(131,323,l)
);
}
);
width = 207;
},
{
background = {
shapes = (
{
closed = 1;
nodes = (
(259,323,l),
(341,710,l),
(239,710,l),
(227,652,o),
(186,615,o),
(123,615,cs),
(93,615,l),
(74,525,l),
(182,525,l),
(139,323,l)
);
}
);
};
layerId = "3507EE3D-0D92-4546-A145-3A991F0A2B71";
shapes = (
{
closed = 1;
nodes = (
(259,323,l),
(341,710,l),
(239,710,l),
(227,652,o),
(187,615,o),
(124,615,cs),
(93,615,l),
(74,525,l),
(182,525,l),
(139,323,l)
);
}
);
width = 308;
},
{
background = {
shapes = (
{
closed = 1;
nodes = (
(195,323,l),
(277,711,l),
(228,711,l),
(217,658,o),
(179,626,o),
(121,626,cs),
(97,626,l),
(87,576,l),
(183,577,l),
(129,323,l)
);
}
);
};
layerId = "6C190511-B94A-4F5A-B519-D6E9DB0E7B93";
shapes = (
{
closed = 1;
nodes = (
(195,323,l),
(277,711,l),
(228,711,l),
(217,658,o),
(182,626,o),
(122,626,cs),
(97,626,l),
(87,576,l),
(183,577,l),
(129,323,l)
);
}
);
width = 243;
}
);
metricLeft = "=20";
metricRight = "=60";
unicode = 185;
}
{
color = 4;
glyphname = multiply;
kernLeft = plus;
kernRight = plus;
layers = (
{
background = {
shapes = (
{
angle = -45;
pos = (-234,275);
ref = plus;
}
);
};
layerId = "EE2FFE84-06F1-4AFB-BBEC-60D09A436D14";
shapes = (
{
closed = 1;
nodes = (
(453,450,l),
(436,472,l),
(9,120,l),
(26,98,l)
);
},
{
closed = 1;
nodes = (
(381,118,l),
(103,470,l),
(81,452,l),
(359,100,l)
);
}
);
width = 454;
},
{
background = {
shapes = (
{
alignment = -1;
angle = -45;
pos = (-119,272);
ref = plus;
}
);
};
layerId = "3507EE3D-0D92-4546-A145-3A991F0A2B71";
shapes = (
{
closed = 1;
nodes = (
(564,414,l),
(475,528,l),
(14,148,l),
(103,34,l)
);
},
{
closed = 1;
nodes = (
(500,142,l),
(201,522,l),
(78,420,l),
(377,40,l)
);
}
);
width = 573;
},
{
background = {
shapes = (
{
alignment = -1;
angle = -45;
pos = (-193,295);
ref = plus;
}
);
};
layerId = "6C190511-B94A-4F5A-B519-D6E9DB0E7B93";
shapes = (
{
closed = 1;
nodes = (
(506,449,l),
(459,508,l),
(14,141,l),
(61,82,l)
);
},
{
closed = 1;
nodes = (
(435,137,l),
(146,504,l),
(85,453,l),
(374,86,l)
);
}
);
width = 507;
}
);
metricLeft = plus;
metricRight = plus;
unicode = 215;
}
{
color = 4;
glyphname = germandbls;
kernLeft = b;
kernRight = s;
layers = (
{
anchors = (
{
name = bottom;
pos = (225,0);
},
{
name = top;
pos = (380,720);
}
);
background = {
shapes = (
{
closed = 1;
nodes = (
(59,0,l),
(166,502,ls),
(190,614,o),
(272,690,o),
(373,690,cs),
(469,690,o),
(522,631,o),
(502,541,cs),
(482,447,o),
(401,388,o),
(297,388,cs),
(248,388,l),
(242,360,l),
(291,360,ls),
(416,360,o),
(492,293,o),
(470,190,cs),
(448,85,o),
(367,28,o),
(245,28,cs),
(161,28,l),
(155,0,l),
(239,0,ls),
(377,0,o),
(475,64,o),
(502,190,cs),
(525,298,o),
(457,373,o),
(322,382,c),
(319,368,l),
(427,374,o),
(513,442,o),
(534,541,cs),
(558,650,o),
(496,720,o),
(380,720,cs),
(259,720,o),
(164,634,o),
(136,502,cs),
(29,0,l)
);
}
);
};
layerId = "EE2FFE84-06F1-4AFB-BBEC-60D09A436D14";
shapes = (
{
closed = 1;
nodes = (
(59,0,l),
(166,502,ls),
(190,616,o),
(274,690,o),
(374,690,cs),
(468,690,o),
(507,648,o),
(507,578,cs),
(507,464,o),
(415,388,o),
(297,388,cs),
(248,388,l),
(242,360,l),
(292,360,ls),
(412,360,o),
(474,310,o),
(474,222,cs),
(474,104,o),
(381,28,o),
(245,28,cs),
(161,28,l),
(155,0,l),
(239,0,ls),
(413,0,o),
(506,98,o),
(506,228,cs),
(506,318,o),
(440,374,o),
(322,382,c),
(319,368,l),
(447,375,o),
(539,458,o),
(539,584,cs),
(539,662,o),
(486,720,o),
(380,720,cs),
(252,720,o),
(165,640,o),
(136,502,cs),
(29,0,l)
);
}
);
width = 565;
},
{
anchors = (
{
name = bottom;
pos = (297,0);
},
{
name = top;
pos = (451,720);
}
);
background = {
shapes = (
{
closed = 1;
nodes = (
(195,0,l),
(288,437,ls),
(305,516,o),
(356,564,o),
(424,564,cs),
(475,564,o),
(496,540,o),
(488,500,cs),
(479,461,o),
(443,440,o),
(396,440,cs),
(358,440,l),
(326,290,l),
(377,290,ls),
(449,290,o),
(479,267,o),
(470,222,cs),
(460,178,o),
(421,156,o),
(353,156,cs),
(289,156,l),
(255,0,l),
(323,0,ls),
(514,0,o),
(636,71,o),
(662,194,cs),
(684,301,o),
(605,372,o),
(457,376,c),
(455,359,l),
(579,368,o),
(667,429,o),
(686,522,cs),
(713,649,o),
(632,720,o),
(458,720,cs),
(263,720,o),
(133,620,o),
(94,437,cs),
(1,0,l)
);
}
);
};
layerId = "3507EE3D-0D92-4546-A145-3A991F0A2B71";
shapes = (
{
closed = 1;
nodes = (
(195,0,l),
(288,437,ls),
(306,523,o),
(348,564,o),
(418,564,cs),
(472,564,o),
(492,546,o),
(492,510,cs),
(492,460,o),
(456,440,o),
(396,440,cs),
(358,440,l),
(326,290,l),
(377,290,ls),
(441,290,o),
(472,274,o),
(472,228,cs),
(472,176,o),
(417,156,o),
(353,156,cs),
(289,156,l),
(255,0,l),
(330,0,ls),
(540,0,o),
(670,72,o),
(670,232,cs),
(670,314,o),
(612,376,o),
(458,382,c),
(454,358,l),
(586,366,o),
(686,426,o),
(686,542,cs),
(686,645,o),
(620,720,o),
(452,720,cs),
(246,720,o),
(138,643,o),
(94,437,cs),
(1,0,l)
);
}
);
width = 711;
},
{
anchors = (
{
name = bottom;
pos = (239,0);
},
{
name = top;
pos = (394,720);
}
);
background = {
shapes = (
{
closed = 1;
nodes = (
(108,0,l),
(215,502,ls),
(233,588,o),
(297,640,o),
(377,640,cs),
(459,640,o),
(489,596,o),
(476,534,cs),
(461,463,o),
(402,417,o),
(319,417,cs),
(275,417,l),
(258,338,l),
(302,338,ls),
(417,338,o),
(466,289,o),
(448,206,cs),
(430,121,o),
(362,80,o),
(257,80,cs),
(193,80,l),
(176,0,l),
(240,0,ls),
(400,0,o),
(509,76,o),
(535,202,cs),
(558,310,o),
(493,386,o),
(374,393,c),
(371,376,l),
(467,382,o),
(543,445,o),
(562,536,cs),
(586,645,o),
(524,720,o),
(394,720,cs),
(264,720,o),
(160,636,o),
(131,502,cs),
(24,0,l)
);
}
);
};
layerId = "6C190511-B94A-4F5A-B519-D6E9DB0E7B93";
shapes = (
{
closed = 1;
nodes = (
(108,0,l),
(215,502,ls),
(233,588,o),
(288,640,o),
(378,640,cs),
(450,640,o),
(480,610,o),
(480,560,cs),
(480,476,o),
(412,417,o),
(319,417,cs),
(275,417,l),
(258,338,l),
(302,338,ls),
(402,338,o),
(452,304,o),
(452,228,cs),
(452,126,o),
(367,80,o),
(258,80,cs),
(193,80,l),
(176,0,l),
(242,0,ls),
(406,0,o),
(540,66,o),
(540,236,cs),
(540,323,o),
(477,387,o),
(374,393,c),
(371,376,l),
(485,384,o),
(566,458,o),
(566,566,cs),
(566,657,o),
(516,720,o),
(392,720,cs),
(252,720,o),
(163,650,o),
(131,502,cs),
(24,0,l)
);
}
);
width = 592;
}
);
metricLeft = h;
metricRight = f;
unicode = 223;
}
{
color = 4;
glyphname = thorn;
kernLeft = b;
kernRight = o;
layers = (
{
anchors = (
{
name = bottom;
pos = (223,0);
},
{
name = top;
pos = (335,530);
}
);
background = {
shapes = (
{
closed = 1;
nodes = (
(29,-150,l),
(85,114,l),
(106,36,o),
(165,-12,o),
(241,-12,cs),
(377,-12,o),
(486,95,o),
(522,265,cs),
(558,433,o),
(494,539,o),
(358,539,cs),
(279,539,o),
(193,485,o),
(147,407,c),
(211,710,l),
(179,710,l),
(-3,-150,l)
);
},
{
closed = 1;
nodes = (
(146,17,o),
(87,126,o),
(117,265,cs),
(146,402,o),
(251,509,o),
(356,509,cs),
(472,509,o),
(525,415,o),
(493,265,cs),
(461,113,o),
(367,17,o),
(251,17,cs)
);
}
);
};
layerId = "EE2FFE84-06F1-4AFB-BBEC-60D09A436D14";
shapes = (
{
closed = 1;
nodes = (
(27,-150,l),
(87,128,l),
(97,50,o),
(145,-12,o),
(232,-12,cs),
(391,-12,o),
(515,150,o),
(515,356,cs),
(515,474,o),
(460,542,o),
(353,542,cs),
(273,542,o),
(202,497,o),
(147,410,c),
(211,710,l),
(181,710,l),
(-3,-150,l)
);
},
{
closed = 1;
nodes = (
(159,18,o),
(107,80,o),
(107,184,cs),
(107,357,o),
(213,512,o),
(347,512,cs),
(435,512,o),
(483,460,o),
(483,348,cs),
(483,166,o),
(374,18,o),
(238,18,cs)
);
}
);
width = 557;
},
{
anchors = (
{
name = bottom;
pos = (265,0);
},
{
name = top;
pos = (379,540);
}
);
background = {
shapes = (
{
closed = 1;
nodes = (
(165,-150,l),
(204,34,l),
(226,5,o),
(264,-12,o),
(309,-12,cs),
(463,-12,o),
(578,105,o),
(613,270,cs),
(648,435,o),
(583,552,o),
(429,552,cs),
(373,552,o),
(333,534,o),
(304,508,c),
(347,710,l),
(151,710,l),
(-31,-150,l)
);
},
{
closed = 1;
nodes = (
(246,144,o),
(229,200,o),
(244,270,cs),
(259,341,o),
(300,397,o),
(356,397,cs),
(413,397,o),
(429,342,o),
(414,270,cs),
(399,199,o),
(359,144,o),
(302,144,cs)
);
}
);
};
layerId = "3507EE3D-0D92-4546-A145-3A991F0A2B71";
shapes = (
{
closed = 1;
nodes = (
(163,-150,l),
(212,78,l),
(229,20,o),
(275,-12,o),
(343,-12,cs),
(501,-12,o),
(619,149,o),
(619,362,cs),
(619,482,o),
(571,552,o),
(465,552,cs),
(383,552,o),
(328,512,o),
(294,464,c),
(347,710,l),
(153,710,l),
(-31,-150,l)
);
},
{
closed = 1;
nodes = (
(267,127,o),
(246,155,o),
(246,206,cs),
(246,312,o),
(297,413,o),
(365,413,cs),
(404,413,o),
(420,381,o),
(420,328,cs),
(420,219,o),
(367,127,o),
(303,127,cs)
);
}
);
width = 644;
},
{
anchors = (
{
name = bottom;
pos = (234,0);
},
{
name = top;
pos = (346,530);
}
);
background = {
shapes = (
{
closed = 1;
nodes = (
(78,-150,l),
(123,64,l),
(145,16,o),
(192,-12,o),
(268,-12,cs),
(421,-12,o),
(520,119,o),
(551,265,cs),
(582,411,o),
(539,542,o),
(386,542,cs),
(310,542,o),
(249,514,o),
(208,463,c),
(260,710,l),
(174,710,l),
(-8,-150,l)
);
},
{
closed = 1;
nodes = (
(159,68,o),
(136,166,o),
(157,265,cs),
(179,368,o),
(244,466,o),
(353,466,cs),
(463,466,o),
(485,370,o),
(463,265,cs),
(441,164,o),
(378,68,o),
(268,68,cs)
);
}
);
};
layerId = "6C190511-B94A-4F5A-B519-D6E9DB0E7B93";
shapes = (
{
closed = 1;
nodes = (
(76,-150,l),
(123,74,l),
(137,26,o),
(185,-12,o),
(253,-12,cs),
(423,-12,o),
(541,152,o),
(541,342,cs),
(541,462,o),
(485,542,o),
(373,542,cs),
(287,542,o),
(234,495,o),
(206,455,c),
(260,710,l),
(176,710,l),
(-8,-150,l)
);
},
{
closed = 1;
nodes = (
(198,68,o),
(155,110,o),
(155,192,cs),
(155,360,o),
(243,462,o),
(351,462,cs),
(421,462,o),
(453,420,o),
(453,330,cs),
(453,190,o),
(372,68,o),
(264,68,cs)
);
}
);
width = 579;
}
);
metricLeft = h;
metricRight = o;
unicode = 254;
}
{
color = 4;
glyphname = idotless;
kernLeft = b;
kernRight = d;
layers = (
{
anchors = (
{
name = bottom;
pos = (44,0);
},
{
name = ogonek;
pos = (59,0);
},
{
name = top;
pos = (156,530);
}
);
layerId = "EE2FFE84-06F1-4AFB-BBEC-60D09A436D14";
shapes = (
{
closed = 1;
nodes = (
(59,0,l),
(171,530,l),
(141,530,l),
(29,0,l)
);
}
);
width = 200;
},
{
anchors = (
{
name = bottom;
pos = (98,0);
},
{
name = ogonek;
pos = (195,0);
},
{
name = top;
pos = (212,540);
}
);
layerId = "3507EE3D-0D92-4546-A145-3A991F0A2B71";
shapes = (
{
closed = 1;
nodes = (
(195,0,l),
(309,540,l),
(115,540,l),
(1,0,l)
);
}
);
width = 310;
},
{
anchors = (
{
name = bottom;
pos = (66,0);
},
{
name = ogonek;
pos = (108,0);
},
{
name = top;
pos = (178,530);
}
);
layerId = "6C190511-B94A-4F5A-B519-D6E9DB0E7B93";
shapes = (
{
closed = 1;
nodes = (
(108,0,l),
(220,530,l),
(136,530,l),
(24,0,l)
);
}
);
width = 244;
}
);
metricLeft = n;
metricRight = "=|n";
unicode = 305;
}
{
color = 4;
glyphname = eng;
kernLeft = n;
kernRight = n;
layers = (
{
anchors = (
{
name = bottom;
pos = (190,-150);
},
{
name = top;
pos = (334,530);
}
);
background = {
shapes = (
{
closed = 1;
nodes = (
(249,-150,ls),
(322,-150,o),
(383,-100,o),
(398,-30,cs),
(411,33,l),
(381,33,l),
(368,-30,ls),
(357,-83,o),
(311,-122,o),
(257,-122,cs),
(179,-122,l),
(173,-150,l)
);
},
{
closed = 1;
nodes = (
(59,0,l),
(127,317,ls),
(151,431,o),
(233,512,o),
(337,512,cs),
(423,512,o),
(453,464,o),
(453,404,cs),
(453,366,o),
(447,340,o),
(439,302,cs),
(374,0,l),
(404,0,l),
(467,298,ls),
(475,336,o),
(483,370,o),
(483,410,cs),
(483,485,o),
(442,542,o),
(347,542,cs),
(254,542,o),
(168,488,o),
(136,384,c),
(141,384,l),
(170,530,l),
(142,530,l),
(29,0,l)
);
}
);
};
layerId = "EE2FFE84-06F1-4AFB-BBEC-60D09A436D14";
shapes = (
{
closed = 1;
nodes = (
(248,-150,ls),
(320,-150,o),
(380,-114,o),
(398,-30,cs),
(467,298,ls),
(475,336,o),
(483,372,o),
(483,412,cs),
(483,487,o),
(442,542,o),
(347,542,cs),
(263,542,o),
(176,500,o),
(136,384,c),
(141,384,l),
(170,530,l),
(142,530,l),
(29,0,l),
(59,0,l),
(127,317,ls),
(151,431,o),
(233,512,o),
(337,512,cs),
(423,512,o),
(453,466,o),
(453,408,cs),
(453,368,o),
(447,340,o),
(439,302,cs),
(368,-30,ls),
(354,-94,o),
(308,-122,o),
(254,-122,cs),
(179,-122,l),
(173,-150,l)
);
}
);
width = 546;
},
{
anchors = (
{
name = bottom;
pos = (203,-150);
},
{
name = top;
pos = (347,530);
}
);
background = {
shapes = (
{
closed = 1;
nodes = (
(250,-150,ls),
(342,-150,o),
(412,-94,o),
(431,-7,cs),
(452,91,l),
(368,91,l),
(347,-8,ls),
(338,-49,o),
(307,-76,o),
(268,-76,cs),
(185,-76,l),
(169,-150,l)
);
},
{
closed = 1;
nodes = (
(108,0,l),
(176,317,ls),
(197,415,o),
(264,468,o),
(340,468,cs),
(397,468,o),
(426,439,o),
(426,390,cs),
(426,363,o),
(422,340,o),
(417,317,cs),
(349,0,l),
(433,0,l),
(498,306,ls),
(504,332,o),
(512,374,o),
(512,406,cs),
(512,485,o),
(466,542,o),
(370,542,cs),
(293,542,o),
(220,498,o),
(180,404,c),
(188,395,l),
(214,530,l),
(137,530,l),
(24,0,l)
);
}
);
};
layerId = "6C190511-B94A-4F5A-B519-D6E9DB0E7B93";
shapes = (
{
closed = 1;
nodes = (
(250,-150,ls),
(344,-150,o),
(409,-109,o),
(431,-7,cs),
(498,306,ls),
(504,332,o),
(512,376,o),
(512,408,cs),
(512,487,o),
(466,542,o),
(370,542,cs),
(293,542,o),
(218,496,o),
(180,404,c),
(188,396,l),
(214,530,l),
(137,530,l),
(24,0,l),
(108,0,l),
(176,317,ls),
(197,415,o),
(264,468,o),
(340,468,cs),
(397,468,o),
(426,441,o),
(426,394,cs),
(426,365,o),
(422,340,o),
(417,317,cs),
(347,-8,ls),
(335,-62,o),
(307,-76,o),
(264,-76,cs),
(185,-76,l),
(169,-150,l)
);
}
);
width = 569;
},
{
anchors = (
{
name = bottom;
pos = (227,-150);
},
{
name = top;
pos = (373,540);
}
);
background = {
shapes = (
{
closed = 1;
nodes = (
(304,-150,ls),
(416,-150,o),
(500,-83,o),
(517,0,cs),
(547,137,l),
(353,137,l),
(328,21,ls),
(321,-11,o),
(296,-30,o),
(260,-30,cs),
(216,-30,l),
(190,-150,l)
);
},
{
closed = 1;
nodes = (
(195,0,l),
(255,280,ls),
(271,358,o),
(301,403,o),
(348,403,cs),
(381,403,o),
(396,388,o),
(396,358,cs),
(396,334,o),
(390,304,o),
(384,278,cs),
(324,0,l),
(518,0,l),
(576,270,ls),
(584,308,o),
(596,368,o),
(596,412,cs),
(596,503,o),
(544,552,o),
(451,552,cs),
(359,552,o),
(279,507,o),
(238,370,c),
(262,368,l),
(290,540,l),
(116,540,l),
(1,0,l)
);
}
);
};
layerId = "3507EE3D-0D92-4546-A145-3A991F0A2B71";
shapes = (
{
closed = 1;
nodes = (
(304,-150,ls),
(416,-150,o),
(496,-95,o),
(517,0,cs),
(576,270,ls),
(581,308,o),
(596,368,o),
(596,412,cs),
(596,503,o),
(544,552,o),
(451,552,cs),
(359,552,o),
(276,502,o),
(238,370,c),
(262,368,l),
(290,540,l),
(116,540,l),
(1,0,l),
(195,0,l),
(255,280,ls),
(271,358,o),
(301,403,o),
(348,403,cs),
(381,403,o),
(396,388,o),
(396,358,cs),
(396,334,o),
(390,304,o),
(384,278,cs),
(328,21,ls),
(320,-15,o),
(296,-30,o),
(260,-30,cs),
(216,-30,l),
(190,-150,l)
);
}
);
width = 632;
}
);
metricLeft = n;
metricRight = n;
unicode = 331;
}
{
export = 0;
glyphname = Ezh;
kernLeft = three;
kernRight = three;
layers = (
{
anchors = (
{
name = top;
pos = (278,710);
}
);
background = {
shapes = (
{
closed = 1;
nodes = (
(33,73,l),
(100,14,o),
(192,-16,o),
(270,-16,cs),
(426,-16,o),
(534,74,o),
(534,201,cs),
(534,313,o),
(451,402,o),
(333,415,c),
(523,610,l),
(523,710,l),
(34,710,l),
(34,624,l),
(414,624,l),
(218,421,l),
(218,334,l),
(272,335,ls),
(372,337,o),
(442,282,o),
(442,201,cs),
(442,124,o),
(371,70,o),
(270,70,cs),
(201,70,o),
(116,105,o),
(33,178,c)
);
}
);
};
layerId = "EE2FFE84-06F1-4AFB-BBEC-60D09A436D14";
shapes = (
{
closed = 1;
nodes = (
(411,-16,o),
(504,79,o),
(504,199,cs),
(504,334,o),
(400,423,o),
(253,415,c),
(493,670,l),
(493,710,l),
(64,710,l),
(64,680,l),
(461,680,l),
(218,421,l),
(218,384,l),
(272,385,ls),
(388,387,o),
(470,310,o),
(470,199,cs),
(470,97,o),
(392,16,o),
(282,16,cs),
(200,16,o),
(121,63,o),
(60,146,c),
(60,95,l),
(118,24,o),
(198,-16,o),
(282,-16,cs)
);
}
);
width = 564;
},
{
anchors = (
{
name = top;
pos = (331,710);
}
);
layerId = "3507EE3D-0D92-4546-A145-3A991F0A2B71";
shapes = (
{
closed = 1;
nodes = (
(507,-16,o),
(626,77,o),
(626,220,cs),
(626,323,o),
(558,396,o),
(459,404,c),
(615,553,l),
(615,710,l),
(48,710,l),
(48,553,l),
(380,553,l),
(250,428,l),
(250,299,l),
(322,300,ls),
(385,301,o),
(426,269,o),
(426,220,cs),
(426,173,o),
(384,141,o),
(321,141,cs),
(232,141,o),
(135,189,o),
(40,281,c),
(40,90,l),
(105,25,o),
(213,-16,o),
(321,-16,cs)
);
}
);
width = 666;
},
{
anchors = (
{
name = top;
pos = (294,710);
}
);
layerId = "6C190511-B94A-4F5A-B519-D6E9DB0E7B93";
shapes = (
{
closed = 1;
nodes = (
(442,-16,o),
(549,74,o),
(549,201,cs),
(549,314,o),
(466,403,o),
(347,415,c),
(538,612,l),
(538,710,l),
(51,710,l),
(51,626,l),
(432,626,l),
(234,421,l),
(234,336,l),
(288,337,ls),
(389,339,o),
(459,283,o),
(459,201,cs),
(459,123,o),
(388,68,o),
(287,68,cs),
(214,68,o),
(122,114,o),
(50,187,c),
(50,83,l),
(109,22,o),
(200,-16,o),
(287,-16,cs)
);
}
);
width = 599;
}
);
metricLeft = three;
metricRight = three;
unicode = 439;
}
{
color = 4;
glyphname = Gstroke;
kernLeft = O;
kernRight = G;
layers = (
{
anchors = (
{
name = bottom;
pos = (286,0);
},
{
name = top;
pos = (439,710);
}
);
background = {
shapes = (
{
closed = 1;
nodes = (
(641,170,l),
(646,196,l),
(332,196,l),
(327,170,l)
);
},
{
closed = 1;
nodes = (
(450,-16,o),
(580,114,o),
(621,306,cs),
(626,330,l),
(360,330,l),
(354,302,l),
(588,302,l),
(552,132,o),
(438,16,o),
(283,16,cs),
(119,16,o),
(51,146,o),
(95,354,cs),
(142,575,o),
(271,694,o),
(437,694,cs),
(559,694,o),
(626,618,o),
(622,477,c),
(656,481,l),
(659,639,o),
(581,726,o),
(444,726,cs),
(257,726,o),
(111,592,o),
(61,354,cs),
(12,123,o),
(95,-16,o),
(276,-16,cs)
);
}
);
};
layerId = "EE2FFE84-06F1-4AFB-BBEC-60D09A436D14";
shapes = (
{
closed = 1;
nodes = (
(641,170,l),
(646,196,l),
(332,196,l),
(327,170,l)
);
},
{
closed = 1;
nodes = (
(453,-16,o),
(573,93,o),
(620,303,cs),
(626,330,l),
(361,330,l),
(355,302,l),
(588,302,l),
(544,108,o),
(430,16,o),
(288,16,cs),
(157,16,o),
(92,92,o),
(92,242,cs),
(92,478,o),
(234,694,o),
(440,694,cs),
(568,694,o),
(625,623,o),
(625,477,c),
(659,481,l),
(659,643,o),
(585,726,o),
(447,726,cs),
(221,726,o),
(59,510,o),
(58,236,cs),
(58,79,o),
(137,-16,o),
(284,-16,cs)
);
}
);
width = 706;
},
{
anchors = (
{
name = bottom;
pos = (314,0);
},
{
name = top;
pos = (466,710);
}
);
background = {
shapes = (
{
closed = 1;
nodes = (
(725,182,l),
(741,256,l),
(363,256,l),
(347,182,l)
);
},
{
closed = 1;
nodes = (
(502,-16,o),
(658,95,o),
(709,335,cs),
(717,376,l),
(388,376,l),
(370,290,l),
(503,290,l),
(479,178,o),
(428,141,o),
(337,141,cs),
(241,141,o),
(208,226,o),
(235,354,cs),
(262,483,o),
(330,569,o),
(431,569,cs),
(507,569,o),
(533,530,o),
(530,459,c),
(735,467,l),
(741,631,o),
(650,726,o),
(470,726,cs),
(240,726,o),
(79,568,o),
(34,354,cs),
(-12,140,o),
(71,-16,o),
(308,-16,cs)
);
}
);
};
layerId = "3507EE3D-0D92-4546-A145-3A991F0A2B71";
shapes = (
{
closed = 1;
nodes = (
(725,182,l),
(741,256,l),
(363,256,l),
(347,182,l)
);
},
{
closed = 1;
nodes = (
(518,-16,o),
(661,65,o),
(707,320,cs),
(717,376,l),
(388,376,l),
(370,290,l),
(503,290,l),
(493,200,o),
(444,141,o),
(354,141,cs),
(291,141,o),
(254,174,o),
(254,270,cs),
(254,452,o),
(320,569,o),
(442,569,cs),
(513,569,o),
(530,531,o),
(530,459,c),
(735,467,l),
(735,635,o),
(653,726,o),
(466,726,cs),
(196,726,o),
(53,538,o),
(53,248,cs),
(53,78,o),
(140,-16,o),
(318,-16,cs)
);
}
);
width = 779;
},
{
anchors = (
{
name = bottom;
pos = (292,0);
},
{
name = top;
pos = (440,710);
}
);
background = {
shapes = (
{
closed = 1;
nodes = (
(660,149,l),
(675,219,l),
(337,219,l),
(322,149,l)
);
},
{
closed = 1;
nodes = (
(469,-16,o),
(597,107,o),
(641,315,cs),
(651,359,l),
(367,359,l),
(349,277,l),
(553,277,l),
(525,160,o),
(435,68,o),
(301,68,cs),
(144,68,o),
(100,191,o),
(135,354,cs),
(168,508,o),
(262,642,o),
(427,642,cs),
(548,642,o),
(588,574,o),
(586,486,c),
(677,492,l),
(679,632,o),
(606,726,o),
(445,726,cs),
(240,726,o),
(89,561,o),
(45,354,cs),
(1,148,o),
(77,-16,o),
(283,-16,cs)
);
}
);
};
layerId = "6C190511-B94A-4F5A-B519-D6E9DB0E7B93";
shapes = (
{
closed = 1;
nodes = (
(660,149,l),
(675,219,l),
(337,219,l),
(322,149,l)
);
},
{
closed = 1;
nodes = (
(490,-16,o),
(598,108,o),
(635,290,cs),
(649,359,l),
(367,359,l),
(349,277,l),
(549,277,l),
(527,151,o),
(446,68,o),
(304,68,cs),
(198,68,o),
(147,117,o),
(147,257,cs),
(147,476,o),
(256,642,o),
(438,642,cs),
(548,642,o),
(585,588,o),
(585,486,c),
(676,492,l),
(676,630,o),
(612,726,o),
(452,726,cs),
(206,726,o),
(57,530,o),
(57,246,cs),
(57,78,o),
(142,-16,o),
(290,-16,cs)
);
}
);
width = 725;
}
);
metricLeft = O;
metricRight = "=G-10";
unicode = 484;
}
{
color = 4;
glyphname = jdotless;
kernLeft = j;
kernRight = d;
layers = (
{
anchors = (
{
name = bottom;
pos = (17,-150);
},
{
name = top;
pos = (176,530);
}
);
background = {
shapes = (
{
closed = 1;
nodes = (
(-70,-150,ls),
(10,-150,o),
(54,-118,o),
(73,-28,cs),
(191,530,l),
(161,530,l),
(44,-24,ls),
(27,-102,o),
(0,-122,o),
(-70,-122,cs),
(-97,-122,l),
(-103,-150,l)
);
}
);
};
layerId = "EE2FFE84-06F1-4AFB-BBEC-60D09A436D14";
shapes = (
{
closed = 1;
nodes = (
(-60,-150,ls),
(16,-150,o),
(53,-122,o),
(73,-28,cs),
(191,530,l),
(161,530,l),
(44,-24,ls),
(26,-108,o),
(-2,-122,o),
(-60,-122,cs),
(-87,-122,l),
(-93,-150,l)
);
}
);
width = 220;
},
{
anchors = (
{
name = bottom;
pos = (91,-150);
},
{
name = top;
pos = (273,540);
}
);
background = {
shapes = (
{
closed = 1;
nodes = (
(15,-150,ls),
(169,-150,o),
(236,-92,o),
(265,44,cs),
(370,540,l),
(175,540,l),
(71,48,ls),
(60,-1,o),
(40,-13,o),
(-2,-13,cs),
(-71,-13,l),
(-100,-150,l)
);
}
);
};
layerId = "3507EE3D-0D92-4546-A145-3A991F0A2B71";
shapes = (
{
closed = 1;
nodes = (
(15,-150,ls),
(165,-150,o),
(233,-106,o),
(265,44,cs),
(370,540,l),
(175,540,l),
(72,48,ls),
(62,0,o),
(44,-13,o),
(-2,-13,cs),
(-61,-13,l),
(-90,-150,l)
);
}
);
width = 369;
},
{
anchors = (
{
name = bottom;
pos = (33,-150);
},
{
name = top;
pos = (185,530);
}
);
background = {
shapes = (
{
closed = 1;
nodes = (
(-51,-150,ls),
(45,-150,o),
(90,-116,o),
(110,-22,cs),
(227,530,l),
(143,530,l),
(27,-18,ls),
(17,-62,o),
(-9,-76,o),
(-44,-76,cs),
(-87,-76,l),
(-102,-150,l)
);
}
);
};
layerId = "6C190511-B94A-4F5A-B519-D6E9DB0E7B93";
shapes = (
{
closed = 1;
nodes = (
(-51,-150,ls),
(46,-150,o),
(89,-119,o),
(110,-22,cs),
(227,530,l),
(143,530,l),
(27,-18,ls),
(18,-62,o),
(-5,-76,o),
(-44,-76,cs),
(-77,-76,l),
(-92,-150,l)
);
}
);
width = 251;
}
);
metricRight = n;
unicode = 567;
}
{
color = 4;
glyphname = gravecomb;
layers = (
{
anchors = (
{
name = _top;
pos = (200,530);
}
);
background = {
anchors = (
{
name = _top;
pos = (231,530);
}
);
shapes = (
{
closed = 1;
nodes = (
(244,614,l),
(172,734,l),
(138,734,l),
(218,614,l)
);
}
);
};
layerId = "EE2FFE84-06F1-4AFB-BBEC-60D09A436D14";
shapes = (
{
closed = 1;
nodes = (
(232,618,l),
(184,734,l),
(150,734,l),
(206,618,l)
);
}
);
width = 207;
},
{
anchors = (
{
name = _top;
pos = (239,540);
}
);
background = {
anchors = (
{
name = _top;
pos = (268,530);
}
);
shapes = (
{
closed = 1;
nodes = (
(326,609,l),
(263,739,l),
(119,739,l),
(210,609,l)
);
}
);
};
layerId = "3507EE3D-0D92-4546-A145-3A991F0A2B71";
shapes = (
{
closed = 1;
nodes = (
(335,594,l),
(315,754,l),
(135,754,l),
(191,594,l)
);
}
);
width = 298;
},
{
anchors = (
{
name = _top;
pos = (221,530);
}
);
background = {
anchors = (
{
name = _top;
pos = (253,530);
}
);
shapes = (
{
closed = 1;
nodes = (
(288,609,l),
(225,739,l),
(132,739,l),
(223,609,l)
);
}
);
};
layerId = "6C190511-B94A-4F5A-B519-D6E9DB0E7B93";
shapes = (
{
closed = 1;
nodes = (
(275,603,l),
(237,731,l),
(143,731,l),
(205,603,l)
);
}
);
width = 247;
}
);
metricLeft = o;
metricRight = o;
unicode = 768;
}
{
color = 4;
glyphname = brevecomb;
layers = (
{
anchors = (
{
name = _top;
pos = (231,530);
}
);
background = {
anchors = (
{
name = _top;
pos = (262,530);
}
);
shapes = (
{
closed = 1;
nodes = (
(329,626,o),
(378,665,o),
(386,722,c),
(353,722,l),
(345,684,o),
(307,656,o),
(262,656,cs),
(217,656,o),
(179,684,o),
(171,722,c),
(138,722,l),
(146,665,o),
(195,626,o),
(262,626,cs)
);
}
);
};
layerId = "EE2FFE84-06F1-4AFB-BBEC-60D09A436D14";
shapes = (
{
closed = 1;
nodes = (
(326,618,o),
(373,664,o),
(398,734,c),
(372,734,l),
(352,676,o),
(310,646,o),
(256,646,cs),
(200,646,o),
(176,666,o),
(176,734,c),
(150,734,l),
(150,650,o),
(186,618,o),
(252,618,cs)
);
}
);
width = 348;
},
{
anchors = (
{
name = _top;
pos = (142,530);
}
);
associatedMasterId = "EE2FFE84-06F1-4AFB-BBEC-60D09A436D14";
layerId = "A5747AB1-C867-4432-9850-61345C075465";
name = "2 de feb. de 23 11:50";
shapes = (
{
closed = 1;
nodes = (
(-42,739,l),
(-42,663,o),
(29,609,o),
(132,609,c),
(132,673,l),
(73,673,o),
(26,702,o),
(26,739,c)
);
},
{
closed = 1;
nodes = (
(238,702,o),
(191,673,o),
(132,673,c),
(132,609,l),
(235,609,o),
(306,663,o),
(306,739,c),
(238,739,l)
);
}
);
width = 284;
},
{
anchors = (
{
name = _top;
pos = (258,540);
}
);
background = {
anchors = (
{
name = _top;
pos = (285,530);
}
);
shapes = (
{
closed = 1;
nodes = (
(379,602,o),
(453,665,o),
(453,746,c),
(343,746,l),
(343,712,o),
(318,689,o),
(285,689,cs),
(252,689,o),
(228,712,o),
(228,746,c),
(117,746,l),
(117,665,o),
(191,602,o),
(285,602,cs)
);
}
);
};
layerId = "3507EE3D-0D92-4546-A145-3A991F0A2B71";
shapes = (
{
closed = 1;
nodes = (
(376,584,o),
(443,634,o),
(469,744,c),
(363,744,l),
(349,696,o),
(324,680,o),
(286,680,cs),
(250,680,o),
(239,692,o),
(239,744,c),
(133,744,l),
(133,620,o),
(180,584,o),
(274,584,cs)
);
}
);
width = 400;
},
{
anchors = (
{
name = _top;
pos = (240,530);
}
);
background = {
anchors = (
{
name = _top;
pos = (272,530);
}
);
shapes = (
{
closed = 1;
nodes = (
(351,610,o),
(413,666,o),
(413,738,c),
(348,738,l),
(348,701,o),
(315,672,o),
(272,672,cs),
(228,672,o),
(195,701,o),
(195,738,c),
(130,738,l),
(130,666,o),
(192,610,o),
(272,610,cs)
);
}
);
};
layerId = "6C190511-B94A-4F5A-B519-D6E9DB0E7B93";
shapes = (
{
closed = 1;
nodes = (
(351,603,o),
(401,653,o),
(422,731,c),
(364,731,l),
(348,685,o),
(316,665,o),
(266,665,cs),
(222,665,o),
(201,681,o),
(201,731,c),
(143,731,l),
(143,645,o),
(182,603,o),
(258,603,cs)
);
}
);
width = 367;
}
);
metricLeft = o;
metricRight = o;
unicode = 774;
}
{
color = 4;
glyphname = ogonekcomb;
layers = (
{
anchors = (
{
name = _bottom;
pos = (85,0);
},
{
name = _ogonek;
pos = (85,0);
}
);
background = {
anchors = (
{
name = _ogonek;
pos = (66,0);
}
);
shapes = (
{
closed = 1;
nodes = (
(68,-193,o),
(86,-190,o),
(105,-177,c),
(105,-152,l),
(97,-157,o),
(80,-163,o),
(62,-163,cs),
(27,-163,o),
(11,-146,o),
(11,-115,cs),
(11,-91,o),
(25,-61,o),
(43,-34,cs),
(66,0,l),
(46,1,l),
(24,-28,ls),
(0,-59,o),
(-18,-92,o),
(-18,-130,cs),
(-18,-167,o),
(10,-193,o),
(49,-193,cs)
);
}
);
};
layerId = "EE2FFE84-06F1-4AFB-BBEC-60D09A436D14";
shapes = (
{
closed = 1;
nodes = (
(51,-192,o),
(71,-185,o),
(92,-173,c),
(82,-151,l),
(68,-160,o),
(47,-166,o),
(25,-166,cs),
(7,-166,o),
(-5,-160,o),
(-5,-140,cs),
(-5,-114,o),
(12,-86,o),
(51,-40,cs),
(85,0,l),
(69,10,l),
(33,-28,ls),
(-9,-72,o),
(-35,-107,o),
(-35,-144,cs),
(-35,-180,o),
(-8,-192,o),
(22,-192,cs)
);
}
);
width = 235;
},
{
anchors = (
{
name = _ogonek;
pos = (124,0);
}
);
associatedMasterId = "EE2FFE84-06F1-4AFB-BBEC-60D09A436D14";
background = {
shapes = (
{
closed = 1;
nodes = (
(90,0,l),
(52,-42,ls),
(27,-69,o),
(16,-100,o),
(16,-130,cs),
(16,-179,o),
(57,-215,o),
(107,-215,cs),
(132,-215,o),
(158,-207,o),
(183,-187,c),
(183,-122,l),
(160,-131,o),
(137,-143,o),
(120,-143,cs),
(100,-143,o),
(87,-128,o),
(87,-109,cs),
(87,-89,o),
(103,-65,o),
(117,-45,cs),
(148,0,l)
);
}
);
};
layerId = "3C4FB6C8-22DC-4CD2-8469-DCD723353749";
name = "22 Feb 23 12:00";
shapes = (
{
closed = 1;
nodes = (
(108,0,l),
(84,-28,ls),
(59,-58,o),
(40,-102,o),
(40,-130,cs),
(40,-167,o),
(68,-193,o),
(107,-193,cs),
(126,-193,o),
(144,-190,o),
(163,-177,c),
(163,-152,l),
(155,-157,o),
(138,-163,o),
(120,-163,cs),
(89,-163,o),
(69,-142,o),
(69,-109,cs),
(69,-89,o),
(77,-70,o),
(101,-34,cs),
(124,0,l)
);
}
);
width = 203;
},
{
anchors = (
{
name = _bottom;
pos = (189,0);
},
{
name = _ogonek;
pos = (189,0);
}
);
background = {
anchors = (
{
name = _ogonek;
pos = (169,0);
}
);
shapes = (
{
closed = 1;
nodes = (
(129,-225,o),
(173,-217,o),
(204,-192,c),
(204,-101,l),
(187,-115,o),
(167,-125,o),
(146,-125,cs),
(127,-125,o),
(113,-111,o),
(113,-92,cs),
(113,-72,o),
(130,-47,o),
(148,-26,cs),
(169,0,l),
(79,2,l),
(51,-25,ls),
(15,-59,o),
(1,-89,o),
(1,-130,cs),
(1,-178,o),
(42,-218,o),
(92,-222,cs)
);
}
);
};
layerId = "3507EE3D-0D92-4546-A145-3A991F0A2B71";
shapes = (
{
closed = 1;
nodes = (
(109,-222,o),
(162,-210,o),
(185,-196,c),
(174,-106,l),
(165,-112,o),
(149,-118,o),
(133,-118,cs),
(119,-118,o),
(109,-113,o),
(109,-101,cs),
(109,-83,o),
(123,-65,o),
(150,-38,cs),
(189,0,l),
(67,28,l),
(15,-18,ls),
(-32,-59,o),
(-52,-95,o),
(-52,-143,cs),
(-52,-198,o),
(-12,-222,o),
(59,-222,cs)
);
}
);
width = 316;
},
{
anchors = (
{
name = _bottom;
pos = (133,0);
},
{
name = _ogonek;
pos = (133,0);
}
);
background = {
anchors = (
{
name = _ogonek;
pos = (116,0);
}
);
shapes = (
{
closed = 1;
nodes = (
(100,-214,o),
(126,-206,o),
(151,-187,c),
(151,-123,l),
(128,-132,o),
(105,-144,o),
(88,-144,cs),
(68,-144,o),
(55,-129,o),
(55,-109,cs),
(55,-89,o),
(71,-65,o),
(85,-45,cs),
(116,0,l),
(61,2,l),
(21,-42,ls),
(-4,-69,o),
(-15,-100,o),
(-15,-130,cs),
(-15,-179,o),
(26,-214,o),
(75,-214,cs)
);
}
);
};
layerId = "6C190511-B94A-4F5A-B519-D6E9DB0E7B93";
shapes = (
{
closed = 1;
nodes = (
(76,-210,o),
(111,-199,o),
(129,-184,c),
(117,-128,l),
(102,-137,o),
(83,-142,o),
(64,-142,cs),
(50,-142,o),
(40,-136,o),
(40,-122,cs),
(40,-106,o),
(51,-89,o),
(78,-60,cs),
(133,0,l),
(80,18,l),
(36,-22,ls),
(-13,-66,o),
(-42,-102,o),
(-42,-150,cs),
(-42,-192,o),
(-12,-210,o),
(36,-210,cs)
);
}
);
width = 268;
}
);
metricLeft = o;
metricRight = o;
unicode = 808;
}
{
color = 4;
glyphname = slashshortcomb;
layers = (
{
anchors = (
{
name = _center;
pos = (168,394);
}
);
layerId = "EE2FFE84-06F1-4AFB-BBEC-60D09A436D14";
shapes = (
{
closed = 1;
nodes = (
(278,439,l),
(284,468,l),
(58,349,l),
(52,320,l)
);
}
);
width = 281;
},
{
anchors = (
{
name = _center;
pos = (182,389);
}
);
layerId = "6C190511-B94A-4F5A-B519-D6E9DB0E7B93";
shapes = (
{
closed = 1;
nodes = (
(303,414,l),
(317,482,l),
(61,364,l),
(47,296,l)
);
}
);
width = 311;
},
{
anchors = (
{
name = _center;
pos = (244,397);
}
);
layerId = "3507EE3D-0D92-4546-A145-3A991F0A2B71";
shapes = (
{
closed = 1;
nodes = (
(421,395,l),
(447,517,l),
(67,399,l),
(41,277,l)
);
}
);
width = 434;
}
);
metricLeft = "=40";
metricRight = "=40";
unicode = 823;
}
{
color = 4;
glyphname = slashlongcomb;
layers = (
{
anchors = (
{
name = _center;
pos = (234,263);
}
);
layerId = "EE2FFE84-06F1-4AFB-BBEC-60D09A436D14";
shapes = (
{
closed = 1;
nodes = (
(8,-16,l),
(488,542,l),
(460,542,l),
(-20,-16,l)
);
}
);
width = 469;
},
{
anchors = (
{
name = _center;
pos = (264,263);
}
);
layerId = "6C190511-B94A-4F5A-B519-D6E9DB0E7B93";
shapes = (
{
closed = 1;
nodes = (
(52,-16,l),
(547,542,l),
(475,542,l),
(-20,-16,l)
);
}
);
width = 528;
},
{
anchors = (
{
name = _center;
pos = (301,268);
}
);
layerId = "3507EE3D-0D92-4546-A145-3A991F0A2B71";
shapes = (
{
closed = 1;
nodes = (
(89,-16,l),
(623,552,l),
(513,552,l),
(-21,-16,l)
);
}
);
width = 603;
}
);
metricLeft = "=40";
metricRight = "=40";
unicode = 824;
}
{
glyphname = Omega;
layers = (
{
anchors = (
{
name = bottom;
pos = (351,0);
},
{
name = topleft;
pos = (20,710);
}
);
layerId = "EE2FFE84-06F1-4AFB-BBEC-60D09A436D14";
shapes = (
{
closed = 1;
nodes = (
(301,0,l),
(301,33,l),
(179,48,o),
(84,194,o),
(84,364,cs),
(84,567,o),
(187,694,o),
(351,694,cs),
(515,694,o),
(618,567,o),
(618,364,cs),
(618,194,o),
(523,48,o),
(401,33,c),
(401,0,l),
(650,0,l),
(650,30,l),
(469,30,l),
(571,64,o),
(652,211,o),
(652,364,cs),
(652,586,o),
(536,726,o),
(351,726,cs),
(166,726,o),
(50,586,o),
(50,364,cs),
(50,211,o),
(131,64,o),
(233,30,c),
(52,30,l),
(52,0,l)
);
}
);
width = 702;
},
{
anchors = (
{
name = bottom;
pos = (396,0);
},
{
name = topleft;
pos = (25,710);
}
);
layerId = "3507EE3D-0D92-4546-A145-3A991F0A2B71";
shapes = (
{
closed = 1;
nodes = (
(361,0,l),
(361,157,l),
(291,165,o),
(239,253,o),
(239,364,cs),
(239,487,o),
(300,569,o),
(396,569,cs),
(493,569,o),
(554,487,o),
(554,364,cs),
(554,253,o),
(502,165,o),
(432,157,c),
(432,0,l),
(752,0,l),
(752,157,l),
(595,153,l),
(686,187,o),
(752,280,o),
(752,412,cs),
(752,583,o),
(615,726,o),
(396,726,cs),
(178,726,o),
(40,583,o),
(40,412,cs),
(40,280,o),
(107,187,o),
(198,153,c),
(41,157,l),
(41,0,l)
);
}
);
width = 792;
},
{
anchors = (
{
name = bottom;
pos = (365,0);
},
{
name = topleft;
pos = (16,710);
}
);
layerId = "6C190511-B94A-4F5A-B519-D6E9DB0E7B93";
shapes = (
{
closed = 1;
nodes = (
(315,0,l),
(315,84,l),
(215,85,o),
(135,208,o),
(135,364,cs),
(135,538,o),
(218,642,o),
(365,642,cs),
(513,642,o),
(596,538,o),
(596,364,cs),
(596,208,o),
(516,85,o),
(415,84,c),
(415,0,l),
(684,0,l),
(684,84,l),
(552,84,l),
(635,140,o),
(686,240,o),
(686,364,cs),
(686,583,o),
(562,726,o),
(365,726,cs),
(169,726,o),
(45,583,o),
(45,364,cs),
(45,240,o),
(96,140,o),
(179,84,c),
(47,84,l),
(47,0,l)
);
}
);
width = 731;
}
);
metricLeft = O;
metricRight = O;
unicode = 937;
}
{
color = 7;
glyphname = lambda;
kernLeft = A;
kernRight = A;
layers = (
{
layerId = "EE2FFE84-06F1-4AFB-BBEC-60D09A436D14";
shapes = (
{
closed = 1;
nodes = (
(515,0,l),
(515,30,l),
(479,30,ls),
(443,30,o),
(432,95,o),
(418,130,cs),
(242,576,ls),
(204,673,o),
(179,710,o),
(113,710,cs),
(79,710,l),
(79,680,l),
(113,680,ls),
(163,680,o),
(181,652,o),
(211,576,cs),
(386,134,ls),
(424,38,o),
(419,0,o),
(501,0,cs)
);
},
{
closed = 1;
nodes = (
(56,0,l),
(251,502,l),
(231,530,l),
(24,0,l)
);
}
);
width = 539;
},
{
layerId = "3507EE3D-0D92-4546-A145-3A991F0A2B71";
shapes = (
{
closed = 1;
nodes = (
(667,0,l),
(667,136,l),
(631,136,ls),
(593,136,o),
(584,157,o),
(562,207,cs),
(417,562,ls),
(377,659,o),
(332,710,o),
(243,710,cs),
(116,710,l),
(116,574,l),
(167,574,ls),
(209,574,o),
(222,552,o),
(243,502,cs),
(389,148,ls),
(430,48,o),
(474,-1,o),
(561,-1,cs)
);
},
{
closed = 1;
nodes = (
(217,0,l),
(432,469,l),
(254,502,l),
(18,0,l)
);
}
);
width = 685;
},
{
layerId = "6C190511-B94A-4F5A-B519-D6E9DB0E7B93";
shapes = (
{
closed = 1;
nodes = (
(550,0,l),
(550,74,l),
(515,74,ls),
(479,74,o),
(468,95,o),
(454,130,cs),
(278,576,ls),
(241,670,o),
(205,710,o),
(122,710,cs),
(75,710,l),
(75,636,l),
(128,636,ls),
(165,636,o),
(176,616,o),
(191,580,cs),
(367,134,ls),
(405,37,o),
(434,0,o),
(516,0,cs)
);
},
{
closed = 1;
nodes = (
(108,0,l),
(287,467,l),
(227,530,l),
(20,0,l)
);
}
);
width = 570;
}
);
metricLeft = A;
metricRight = A;
unicode = 955;
}
{
color = 8;
glyphname = "Nje-cy";
kernLeft = H;
kernRight = B;
layers = (
{
background = {
shapes = (
{
ref = H;
}
);
};
layerId = "EE2FFE84-06F1-4AFB-BBEC-60D09A436D14";
shapes = (
{
closed = 1;
nodes = (
(128,0,l),
(128,710,l),
(96,710,l),
(96,0,l)
);
},
{
closed = 1;
nodes = (
(559,375,l),
(559,405,l),
(120,405,l),
(120,375,l)
);
},
{
alignment = -1;
pos = (452,710);
ref = P;
scale = (1,-1);
}
);
width = 1080;
},
{
background = {
shapes = (
{
ref = H;
}
);
};
layerId = "3507EE3D-0D92-4546-A145-3A991F0A2B71";
shapes = (
{
closed = 1;
nodes = (
(258,0,l),
(258,710,l),
(62,710,l),
(62,0,l)
);
},
{
closed = 1;
nodes = (
(502,328,l),
(502,486,l),
(196,486,l),
(196,328,l)
);
},
{
alignment = -1;
pos = (407,710);
ref = P;
scale = (1,-1);
}
);
width = 1103;
},
{
background = {
shapes = (
{
alignment = -1;
ref = H;
}
);
};
layerId = "6C190511-B94A-4F5A-B519-D6E9DB0E7B93";
shapes = (
{
closed = 1;
nodes = (
(178,0,l),
(178,710,l),
(92,710,l),
(92,0,l)
);
},
{
closed = 1;
nodes = (
(585,350,l),
(585,434,l),
(170,434,l),
(170,350,l)
);
},
{
alignment = -1;
pos = (433,710);
ref = P;
scale = (1,-1);
}
);
width = 1093;
}
);
metricLeft = H;
metricRight = B;
unicode = 1034;
}
{
glyphname = "Be-cy";
kernLeft = b;
kernRight = B;
layers = (
{
layerId = "EE2FFE84-06F1-4AFB-BBEC-60D09A436D14";
shapes = (
{
closed = 1;
nodes = (
(333,0,l),
(480,0,o),
(573,79,o),
(573,205,cs),
(573,328,o),
(480,405,o),
(333,405,c),
(128,405,l),
(128,710,l),
(96,710,l),
(96,0,l)
);
},
{
closed = 1;
nodes = (
(128,375,l),
(333,375,ls),
(465,375,o),
(539,314,o),
(539,205,cs),
(539,93,o),
(465,30,o),
(333,30,c),
(128,30,l)
);
},
{
closed = 1;
nodes = (
(555,680,l),
(555,710,l),
(102,710,l),
(102,680,l)
);
}
);
width = 628;
},
{
layerId = "3507EE3D-0D92-4546-A145-3A991F0A2B71";
shapes = (
{
closed = 1;
nodes = (
(366,0,l),
(544,0,o),
(653,89,o),
(653,232,cs),
(653,375,o),
(544,463,o),
(366,463,c),
(258,463,l),
(258,710,l),
(62,710,l),
(62,0,l)
);
},
{
closed = 1;
nodes = (
(258,306,l),
(351,306,ls),
(417,306,o),
(453,280,o),
(453,232,cs),
(453,183,o),
(417,157,o),
(351,157,cs),
(258,157,l)
);
},
{
closed = 1;
nodes = (
(622,553,l),
(622,710,l),
(99,710,l),
(99,553,l)
);
}
);
width = 696;
},
{
layerId = "6C190511-B94A-4F5A-B519-D6E9DB0E7B93";
shapes = (
{
closed = 1;
nodes = (
(347,0,l),
(505,0,o),
(598,80,o),
(598,215,cs),
(598,352,o),
(505,434,o),
(347,434,c),
(178,434,l),
(178,710,l),
(92,710,l),
(92,0,l)
);
},
{
closed = 1;
nodes = (
(178,350,l),
(347,350,ls),
(454,350,o),
(508,304,o),
(508,215,cs),
(508,128,o),
(454,84,o),
(347,84,c),
(178,84,l)
);
},
{
closed = 1;
nodes = (
(565,626,l),
(565,710,l),
(92,710,l),
(92,626,l)
);
}
);
width = 660;
}
);
metricLeft = H;
metricRight = B;
unicode = 1041;
}
{
glyphname = "Zhe-cy";
kernLeft = X;
kernRight = X;
layers = (
{
anchors = (
{
name = bottom;
pos = (427,0);
},
{
name = bottomright;
pos = (843,0);
},
{
name = top;
pos = (427,710);
}
);
background = {
shapes = (
{
closed = 1;
nodes = (
(420,0,l),
(508,0,l),
(508,710,l),
(420,710,l)
);
},
{
closed = 1;
nodes = (
(501,355,l),
(620,355,l),
(904,710,l),
(785,710,l)
);
},
{
closed = 1;
nodes = (
(914,0,l),
(620,355,l),
(501,355,l),
(795,0,l)
);
},
{
closed = 1;
nodes = (
(24,710,l),
(308,355,l),
(427,355,l),
(143,710,l)
);
},
{
closed = 1;
nodes = (
(427,355,l),
(308,355,l),
(14,0,l),
(133,0,l)
);
}
);
};
layerId = "EE2FFE84-06F1-4AFB-BBEC-60D09A436D14";
shapes = (
{
closed = 1;
nodes = (
(63,0,l),
(417,355,l),
(73,710,l),
(30,710,l),
(376,355,l),
(20,0,l)
);
},
{
closed = 1;
nodes = (
(442,0,l),
(442,710,l),
(410,710,l),
(410,0,l)
);
},
{
closed = 1;
nodes = (
(833,0,l),
(477,355,l),
(823,710,l),
(779,710,l),
(435,355,l),
(789,0,l)
);
}
);
width = 853;
},
{
anchors = (
{
name = bottom;
pos = (547,0);
},
{
name = bottomright;
pos = (1094,0);
},
{
name = top;
pos = (547,710);
}
);
layerId = "3507EE3D-0D92-4546-A145-3A991F0A2B71";
shapes = (
{
closed = 1;
nodes = (
(249,0,l),
(493,355,l),
(259,710,l),
(20,710,l),
(254,355,l),
(10,0,l)
);
},
{
closed = 1;
nodes = (
(646,0,l),
(646,710,l),
(449,710,l),
(449,0,l)
);
},
{
closed = 1;
nodes = (
(1085,0,l),
(840,355,l),
(1075,710,l),
(836,710,l),
(602,355,l),
(846,0,l)
);
}
);
width = 1095;
},
{
anchors = (
{
name = bottom;
pos = (464,0);
},
{
name = bottomright;
pos = (919,0);
},
{
name = top;
pos = (464,710);
}
);
layerId = "6C190511-B94A-4F5A-B519-D6E9DB0E7B93";
shapes = (
{
closed = 1;
nodes = (
(132,0,l),
(428,355,l),
(142,710,l),
(25,710,l),
(311,355,l),
(15,0,l)
);
},
{
closed = 1;
nodes = (
(507,0,l),
(507,710,l),
(421,710,l),
(421,0,l)
);
},
{
closed = 1;
nodes = (
(912,0,l),
(616,355,l),
(902,710,l),
(786,710,l),
(500,355,l),
(796,0,l)
);
}
);
width = 927;
}
);
metricLeft = X;
metricRight = X;
unicode = 1046;
}
{
glyphname = "Pe-cy";
kernLeft = b;
kernRight = d;
layers = (
{
anchors = (
{
name = bottomright;
pos = (580,0);
}
);
layerId = "EE2FFE84-06F1-4AFB-BBEC-60D09A436D14";
shapes = (
{
closed = 1;
nodes = (
(128,0,l),
(128,680,l),
(548,680,l),
(548,0,l),
(580,0,l),
(580,710,l),
(96,710,l),
(96,0,l)
);
}
);
width = 676;
},
{
anchors = (
{
name = bottomright;
pos = (665,0);
}
);
layerId = "3507EE3D-0D92-4546-A145-3A991F0A2B71";
shapes = (
{
closed = 1;
nodes = (
(258,0,l),
(258,553,l),
(468,553,l),
(468,0,l),
(665,0,l),
(665,710,l),
(62,710,l),
(62,0,l)
);
}
);
width = 726.723;
},
{
anchors = (
{
name = bottomright;
pos = (611,0);
}
);
layerId = "6C190511-B94A-4F5A-B519-D6E9DB0E7B93";
shapes = (
{
closed = 1;
nodes = (
(178,0,l),
(178,626,l),
(525,626,l),
(525,0,l),
(611,0,l),
(611,710,l),
(92,710,l),
(92,0,l)
);
}
);
width = 703.06667;
}
);
metricLeft = H;
metricRight = H;
unicode = 1055;
}
{
glyphname = "Tse-cy";
kernLeft = b;
layers = (
{
layerId = "EE2FFE84-06F1-4AFB-BBEC-60D09A436D14";
shapes = (
{
pos = (0,710);
ref = "Pe-cy";
scale = (1,-1);
},
{
closed = 1;
nodes = (
(632,-150,l),
(632,30,l),
(600,30,l),
(600,-150,l)
);
},
{
closed = 1;
nodes = (
(608,0,l),
(608,30,l),
(454,30,l),
(454,0,l)
);
}
);
width = 708;
},
{
layerId = "3507EE3D-0D92-4546-A145-3A991F0A2B71";
shapes = (
{
alignment = -1;
pos = (0,710);
ref = "Pe-cy";
scale = (1,-1);
},
{
closed = 1;
nodes = (
(795,-150,l),
(795,157,l),
(598,157,l),
(598,-150,l)
);
},
{
closed = 1;
nodes = (
(625,0,l),
(625,157,l),
(454,157,l),
(454,0,l)
);
}
);
width = 836.76526;
},
{
layerId = "6C190511-B94A-4F5A-B519-D6E9DB0E7B93";
shapes = (
{
alignment = -1;
pos = (0,710);
ref = "Pe-cy";
scale = (1,-1);
},
{
closed = 1;
nodes = (
(698,-150,l),
(698,84,l),
(612,84,l),
(612,-150,l)
);
},
{
closed = 1;
nodes = (
(624,0,l),
(624,84,l),
(454,84,l),
(454,0,l)
);
}
);
width = 769.86667;
}
);
metricLeft = H;
metricRight = "=H-20";
unicode = 1062;
}
{
glyphname = "Sha-cy";
kernLeft = b;
kernRight = d;
layers = (
{
anchors = (
{
name = bottom;
pos = (444,0);
},
{
name = top;
pos = (444,710);
}
);
layerId = "EE2FFE84-06F1-4AFB-BBEC-60D09A436D14";
shapes = (
{
closed = 1;
nodes = (
(128,0,l),
(128,710,l),
(96,710,l),
(96,0,l)
);
},
{
closed = 1;
nodes = (
(791,0,l),
(791,30,l),
(96,30,l),
(96,0,l)
);
},
{
closed = 1;
nodes = (
(460,0,l),
(460,710,l),
(428,710,l),
(428,0,l)
);
},
{
closed = 1;
nodes = (
(791,0,l),
(791,710,l),
(759,710,l),
(759,0,l)
);
}
);
width = 887;
},
{
anchors = (
{
name = bottom;
pos = (501,0);
},
{
name = top;
pos = (501,710);
}
);
layerId = "3507EE3D-0D92-4546-A145-3A991F0A2B71";
shapes = (
{
closed = 1;
nodes = (
(258,0,l),
(258,710,l),
(62,710,l),
(62,0,l)
);
},
{
closed = 1;
nodes = (
(940,0,l),
(940,157,l),
(62,157,l),
(62,0,l)
);
},
{
closed = 1;
nodes = (
(600,0,l),
(600,710,l),
(403,710,l),
(403,0,l)
);
},
{
closed = 1;
nodes = (
(940,0,l),
(940,710,l),
(744,710,l),
(744,0,l)
);
}
);
width = 1002.02347;
},
{
anchors = (
{
name = bottom;
pos = (459,0);
},
{
name = top;
pos = (459,710);
}
);
layerId = "6C190511-B94A-4F5A-B519-D6E9DB0E7B93";
shapes = (
{
closed = 1;
nodes = (
(178,0,l),
(178,710,l),
(92,710,l),
(92,0,l)
);
},
{
closed = 1;
nodes = (
(826,0,l),
(826,84,l),
(92,84,l),
(92,0,l)
);
},
{
closed = 1;
nodes = (
(503,0,l),
(503,710,l),
(416,710,l),
(416,0,l)
);
},
{
closed = 1;
nodes = (
(826,0,l),
(826,710,l),
(740,710,l),
(740,0,l)
);
}
);
width = 917.93333;
}
);
metricLeft = H;
metricRight = H;
unicode = 1064;
}
{
glyphname = "Yeru-cy";
kernLeft = b;
kernRight = H;
layers = (
{
layerId = "EE2FFE84-06F1-4AFB-BBEC-60D09A436D14";
shapes = (
{
closed = 1;
nodes = (
(678,0,l),
(678,710,l),
(648,710,l),
(648,0,l)
);
},
{
pos = (0,710);
ref = P;
scale = (1,-1);
}
);
width = 774;
},
{
layerId = "3507EE3D-0D92-4546-A145-3A991F0A2B71";
shapes = (
{
closed = 1;
nodes = (
(913,0,l),
(913,710,l),
(718,710,l),
(718,0,l)
);
},
{
alignment = -1;
pos = (0,710);
ref = P;
scale = (1,-1);
}
);
width = 975.16432;
},
{
layerId = "6C190511-B94A-4F5A-B519-D6E9DB0E7B93";
shapes = (
{
closed = 1;
nodes = (
(763,0,l),
(763,710,l),
(677,710,l),
(677,0,l)
);
},
{
alignment = -1;
pos = (0,710);
ref = P;
scale = (1,-1);
}
);
width = 855;
}
);
metricLeft = H;
metricRight = H;
unicode = 1067;
}
{
glyphname = "ge-cy";
kernLeft = n;
kernRight = r;
layers = (
{
anchors = (
{
name = top;
pos = (251,530);
}
);
layerId = "EE2FFE84-06F1-4AFB-BBEC-60D09A436D14";
shapes = (
{
closed = 1;
nodes = (
(115,0,l),
(115,520,l),
(108,500,l),
(417,500,l),
(417,530,l),
(85,530,l),
(85,0,l)
);
}
);
width = 457;
},
{
anchors = (
{
name = top;
pos = (271,540);
}
);
layerId = "3507EE3D-0D92-4546-A145-3A991F0A2B71";
shapes = (
{
closed = 1;
nodes = (
(250,0,l),
(250,498,l),
(142,403,l),
(485,403,l),
(485,540,l),
(56,540,l),
(56,0,l)
);
}
);
width = 507;
},
{
anchors = (
{
name = top;
pos = (265,530);
}
);
layerId = "6C190511-B94A-4F5A-B519-D6E9DB0E7B93";
shapes = (
{
closed = 1;
nodes = (
(164,0,l),
(164,490,l),
(123,456,l),
(451,456,l),
(451,530,l),
(80,530,l),
(80,0,l)
);
}
);
width = 485;
}
);
metricLeft = n;
metricRight = "=r-10";
unicode = 1075;
}
{
glyphname = "de-cy";
kernLeft = o;
kernRight = o;
layers = (
{
anchors = (
{
name = bottom;
pos = (326,0);
},
{
name = top;
pos = (326,530);
}
);
layerId = "EE2FFE84-06F1-4AFB-BBEC-60D09A436D14";
shapes = (
{
closed = 1;
nodes = (
(50,0,ls),
(122,0,o),
(176,62,o),
(190,162,cs),
(237,500,l),
(494,500,l),
(494,0,l),
(524,0,l),
(524,530,l),
(209,530,l),
(161,170,ls),
(149,84,o),
(106,30,o),
(50,30,cs),
(40,30,l),
(40,0,l)
);
},
{
closed = 1;
nodes = (
(70,-150,l),
(70,30,l),
(40,30,l),
(40,-150,l)
);
},
{
closed = 1;
nodes = (
(597,0,l),
(597,30,l),
(40,30,l),
(40,0,l)
);
},
{
closed = 1;
nodes = (
(610,-150,l),
(611,30,l),
(581,30,l),
(580,-150,l)
);
}
);
width = 651;
},
{
anchors = (
{
name = bottom;
pos = (388,0);
},
{
name = top;
pos = (388,540);
}
);
layerId = "3507EE3D-0D92-4546-A145-3A991F0A2B71";
shapes = (
{
closed = 1;
nodes = (
(138,45,ls),
(237,45,o),
(301,105,o),
(316,229,cs),
(337,403,l),
(462,403,l),
(462,0,l),
(657,0,l),
(657,540,l),
(187,540,l),
(139,232,ls),
(129,165,o),
(107,136,o),
(66,136,cs),
(33,136,l),
(33,45,l)
);
},
{
closed = 1;
nodes = (
(227,-150,l),
(227,69,l),
(33,69,l),
(33,-150,l)
);
},
{
closed = 1;
nodes = (
(667,0,l),
(667,136,l),
(47,136,l),
(47,0,l)
);
},
{
closed = 1;
nodes = (
(743,-150,l),
(743,136,l),
(548,136,l),
(548,-150,l)
);
}
);
width = 776;
},
{
anchors = (
{
name = bottom;
pos = (345,0);
},
{
name = top;
pos = (345,530);
}
);
layerId = "6C190511-B94A-4F5A-B519-D6E9DB0E7B93";
shapes = (
{
closed = 1;
nodes = (
(87,23,ls),
(181,23,o),
(229,66,o),
(243,162,cs),
(285,456,l),
(479,456,l),
(479,0,l),
(563,0,l),
(563,530,l),
(209,530,l),
(161,170,ls),
(152,104,o),
(129,74,o),
(87,74,cs),
(40,74,l),
(40,23,l)
);
},
{
closed = 1;
nodes = (
(124,-150,l),
(124,67,l),
(40,67,l),
(40,-150,l)
);
},
{
closed = 1;
nodes = (
(616,0,l),
(616,74,l),
(40,74,l),
(40,0,l)
);
},
{
closed = 1;
nodes = (
(649,-150,l),
(649,74,l),
(565,74,l),
(565,-150,l)
);
}
);
width = 689;
}
);
unicode = 1076;
}
{
glyphname = "pe-cy";
kernLeft = n;
kernRight = n;
layers = (
{
anchors = (
{
name = bottomright;
pos = (530,0);
}
);
layerId = "EE2FFE84-06F1-4AFB-BBEC-60D09A436D14";
shapes = (
{
closed = 1;
nodes = (
(115,0,l),
(115,500,l),
(435,500,l),
(435,0,l),
(465,0,l),
(465,530,l),
(85,530,l),
(85,0,l)
);
}
);
width = 550;
},
{
anchors = (
{
name = bottomright;
pos = (619,0);
}
);
layerId = "3507EE3D-0D92-4546-A145-3A991F0A2B71";
shapes = (
{
closed = 1;
nodes = (
(250,0,l),
(250,403,l),
(388,403,l),
(388,0,l),
(583,0,l),
(583,540,l),
(56,540,l),
(56,0,l)
);
}
);
width = 639;
},
{
anchors = (
{
name = bottomright;
pos = (559,0);
}
);
layerId = "6C190511-B94A-4F5A-B519-D6E9DB0E7B93";
shapes = (
{
closed = 1;
nodes = (
(164,0,l),
(164,456,l),
(415,456,l),
(415,0,l),
(499,0,l),
(499,530,l),
(80,530,l),
(80,0,l)
);
}
);
width = 579;
}
);
metricLeft = n;
metricRight = n;
unicode = 1087;
}
{
glyphname = "che-cy";
kernLeft = u;
kernRight = u;
layers = (
{
anchors = (
{
name = bottomright;
pos = (550,0);
},
{
name = top;
pos = (285,530);
}
);
background = {
shapes = (
{
closed = 1;
nodes = (
(507,530,l),
(421,530,l),
(421,389,ls),
(421,297,o),
(362,240,o),
(267,240,cs),
(196,240,o),
(151,297,o),
(151,389,cs),
(151,530,l),
(65,530,l),
(65,389,ls),
(65,247,o),
(143,158,o),
(267,158,cs),
(361,158,o),
(434,228,o),
(434,316,c),
(421,286,l),
(421,0,l),
(507,0,l)
);
}
);
};
layerId = "EE2FFE84-06F1-4AFB-BBEC-60D09A436D14";
shapes = (
{
closed = 1;
nodes = (
(485,0,l),
(485,530,l),
(455,530,l),
(455,383,ls),
(455,269,o),
(365,188,o),
(259,188,cs),
(172,188,o),
(115,258,o),
(115,369,cs),
(115,530,l),
(85,530,l),
(85,369,ls),
(85,239,o),
(152,158,o),
(259,158,cs),
(355,158,o),
(451,227,o),
(457,315,c),
(455,315,l),
(455,0,l)
);
}
);
width = 570;
},
{
anchors = (
{
name = bottomright;
pos = (660,0);
},
{
name = top;
pos = (340,540);
}
);
layerId = "3507EE3D-0D92-4546-A145-3A991F0A2B71";
shapes = (
{
closed = 1;
nodes = (
(624,0,l),
(624,540,l),
(429,540,l),
(429,434,ls),
(429,351,o),
(395,304,o),
(334,304,cs),
(280,304,o),
(250,351,o),
(250,434,cs),
(250,540,l),
(56,540,l),
(56,374,ls),
(56,244,o),
(138,161,o),
(268,161,cs),
(381,161,o),
(459,236,o),
(465,348,c),
(429,303,l),
(429,0,l)
);
}
);
width = 680;
},
{
anchors = (
{
name = bottomright;
pos = (581,0);
},
{
name = top;
pos = (301,530);
}
);
layerId = "6C190511-B94A-4F5A-B519-D6E9DB0E7B93";
shapes = (
{
closed = 1;
nodes = (
(521,0,l),
(521,530,l),
(437,530,l),
(437,389,ls),
(437,296,o),
(377,238,o),
(281,238,cs),
(210,238,o),
(164,296,o),
(164,388,cs),
(164,530,l),
(80,530,l),
(80,388,ls),
(80,247,o),
(158,158,o),
(281,158,cs),
(375,158,o),
(449,228,o),
(449,316,c),
(437,287,l),
(437,0,l)
);
}
);
width = 601;
}
);
metricLeft = u;
metricRight = u;
unicode = 1095;
}
{
glyphname = "hardsign-cy";
kernLeft = t;
kernRight = b;
layers = (
{
anchors = (
{
name = top;
pos = (301,530);
}
);
layerId = "EE2FFE84-06F1-4AFB-BBEC-60D09A436D14";
shapes = (
{
closed = 1;
nodes = (
(154,500,l),
(154,530,l),
(65,530,l),
(65,500,l)
);
},
{
pos = (50,0);
ref = "softsign-cy";
}
);
width = 602;
},
{
anchors = (
{
name = top;
pos = (347,540);
}
);
layerId = "3507EE3D-0D92-4546-A145-3A991F0A2B71";
shapes = (
{
closed = 1;
nodes = (
(226,403,l),
(226,540,l),
(36,540,l),
(36,403,l)
);
},
{
alignment = -1;
pos = (62,0);
ref = "softsign-cy";
}
);
width = 692;
},
{
anchors = (
{
name = top;
pos = (324,530);
}
);
layerId = "6C190511-B94A-4F5A-B519-D6E9DB0E7B93";
shapes = (
{
closed = 1;
nodes = (
(227,456,l),
(227,530,l),
(60,530,l),
(60,456,l)
);
},
{
alignment = -1;
pos = (65,0);
ref = "softsign-cy";
}
);
width = 645;
}
);
metricLeft = "=n-20";
metricRight = b;
unicode = 1098;
}
{
glyphname = "yu-cy";
kernLeft = n;
kernRight = o;
layers = (
{
anchors = (
{
name = top;
pos = (358,530);
}
);
layerId = "EE2FFE84-06F1-4AFB-BBEC-60D09A436D14";
shapes = (
{
closed = 1;
nodes = (
(115,0,l),
(115,530,l),
(85,530,l),
(85,0,l)
);
},
{
closed = 1;
nodes = (
(230,250,l),
(230,280,l),
(92,280,l),
(92,250,l)
);
},
{
alignment = -1;
pos = (165,0);
ref = o;
}
);
width = 715;
},
{
anchors = (
{
name = top;
pos = (458,540);
}
);
layerId = "3507EE3D-0D92-4546-A145-3A991F0A2B71";
shapes = (
{
closed = 1;
nodes = (
(250,0,l),
(250,540,l),
(56,540,l),
(56,0,l)
);
},
{
closed = 1;
nodes = (
(372,202,l),
(372,338,l),
(173,338,l),
(173,202,l)
);
},
{
alignment = -1;
pos = (266,0);
ref = o;
}
);
width = 914;
},
{
anchors = (
{
name = top;
pos = (394,530);
}
);
layerId = "6C190511-B94A-4F5A-B519-D6E9DB0E7B93";
shapes = (
{
closed = 1;
nodes = (
(164,0,l),
(164,530,l),
(80,530,l),
(80,0,l)
);
},
{
closed = 1;
nodes = (
(314,228,l),
(314,302,l),
(116,302,l),
(116,228,l)
);
},
{
alignment = -1;
pos = (209,0);
ref = o;
}
);
width = 782;
}
);
metricLeft = n;
metricRight = o;
unicode = 1102;
}
{
color = 8;
glyphname = "nje-cy";
kernLeft = n;
kernRight = b;
layers = (
{
layerId = "EE2FFE84-06F1-4AFB-BBEC-60D09A436D14";
shapes = (
{
closed = 1;
nodes = (
(115,0,l),
(115,530,l),
(85,530,l),
(85,0,l)
);
},
{
closed = 1;
nodes = (
(453,295,l),
(453,325,l),
(96,325,l),
(96,295,l)
);
},
{
pos = (349,0);
ref = "softsign-cy";
}
);
width = 901;
},
{
layerId = "3507EE3D-0D92-4546-A145-3A991F0A2B71";
shapes = (
{
closed = 1;
nodes = (
(250,0,l),
(250,541,l),
(56,541,l),
(56,0,l)
);
},
{
closed = 1;
nodes = (
(506,213,l),
(506,350,l),
(89,350,l),
(89,213,l)
);
},
{
alignment = -1;
pos = (310,0);
ref = "softsign-cy";
}
);
width = 940;
},
{
layerId = "6C190511-B94A-4F5A-B519-D6E9DB0E7B93";
shapes = (
{
closed = 1;
nodes = (
(164,0,l),
(164,530,l),
(80,530,l),
(80,0,l)
);
},
{
closed = 1;
nodes = (
(497,261,l),
(497,335,l),
(82,335,l),
(82,261,l)
);
},
{
pos = (334,0);
ref = "softsign-cy";
}
);
width = 914;
}
);
metricLeft = n;
metricRight = b;
unicode = 1114;
}
{
glyphname = "yat-cy";
kernLeft = b;
kernRight = b;
layers = (
{
layerId = "EE2FFE84-06F1-4AFB-BBEC-60D09A436D14";
shapes = (
{
closed = 1;
nodes = (
(367,0,l),
(516,0,o),
(599,63,o),
(599,177,cs),
(599,291,o),
(516,355,o),
(367,355,c),
(212,355,l),
(212,710,l),
(182,710,l),
(182,0,l)
);
},
{
closed = 1;
nodes = (
(212,325,l),
(367,325,ls),
(495,325,o),
(567,272,o),
(567,177,cs),
(567,84,o),
(495,32,o),
(367,32,c),
(212,32,l)
);
},
{
closed = 1;
nodes = (
(330,530,l),
(330,560,l),
(65,560,l),
(65,530,l)
);
}
);
width = 649;
},
{
layerId = "3507EE3D-0D92-4546-A145-3A991F0A2B71";
shapes = (
{
closed = 1;
nodes = (
(411,0,l),
(577,0,o),
(672,64,o),
(672,180,cs),
(672,301,o),
(578,368,o),
(411,368,c),
(324,368,l),
(324,723,l),
(129,723,l),
(129,0,l)
);
},
{
closed = 1;
nodes = (
(324,240,l),
(390,240,ls),
(442,240,o),
(473,218,o),
(473,180,cs),
(473,143,o),
(443,123,o),
(390,123,c),
(324,123,l)
);
},
{
closed = 1;
nodes = (
(417,533,l),
(417,626,l),
(36,626,l),
(36,533,l)
);
}
);
width = 704;
},
{
layerId = "6C190511-B94A-4F5A-B519-D6E9DB0E7B93";
shapes = (
{
closed = 1;
nodes = (
(402,0,l),
(551,0,o),
(634,63,o),
(634,177,cs),
(634,291,o),
(551,355,o),
(402,355,c),
(262,355,l),
(262,710,l),
(178,710,l),
(178,0,l)
);
},
{
closed = 1;
nodes = (
(262,281,l),
(402,281,ls),
(494,281,o),
(546,243,o),
(546,177,cs),
(546,111,o),
(494,75,o),
(402,75,c),
(262,75,l)
);
},
{
closed = 1;
nodes = (
(379,530,l),
(379,614,l),
(60,614,l),
(60,530,l)
);
}
);
width = 678;
}
);
metricLeft = "=b-20";
metricRight = b;
unicode = 1123;
}
{
color = 8;
glyphname = "Izhitsa-cy";
kernLeft = V;
kernRight = V;
layers = (
{
anchors = (
{
name = top;
pos = (321,710);
}
);
layerId = "EE2FFE84-06F1-4AFB-BBEC-60D09A436D14";
shapes = (
{
closed = 1;
nodes = (
(339,0,l),
(584,624,ls),
(599,661,o),
(627,680,o),
(667,680,cs),
(690,680,l),
(690,710,l),
(664,710,ls),
(610,710,o),
(574,685,o),
(554,635,cs),
(321,34,l),
(59,710,l),
(24,710,l),
(303,0,l)
);
}
);
width = 714;
},
{
anchors = (
{
name = top;
pos = (387,710);
}
);
layerId = "3507EE3D-0D92-4546-A145-3A991F0A2B71";
shapes = (
{
closed = 1;
nodes = (
(496,0,l),
(668,477,ls),
(688,532,o),
(718,553,o),
(776,553,cs),
(789,553,l),
(789,710,l),
(735,710,ls),
(618,710,o),
(533,650,o),
(496,543,cs),
(386,222,l),
(217,710,l),
(18,710,l),
(275,0,l)
);
}
);
width = 807;
},
{
anchors = (
{
name = top;
pos = (334,710);
}
);
layerId = "6C190511-B94A-4F5A-B519-D6E9DB0E7B93";
shapes = (
{
closed = 1;
nodes = (
(390,0,l),
(584,534,ls),
(610,603,o),
(635,626,o),
(685,626,cs),
(702,626,l),
(702,710,l),
(660,710,ls),
(593,710,o),
(534,660,o),
(506,581,cs),
(334,96,l),
(114,710,l),
(20,710,l),
(277,0,l)
);
}
);
width = 722;
}
);
metricLeft = V;
metricRight = V;
unicode = 1140;
}
{
color = 8;
glyphname = "izhitsa-cy";
kernLeft = v;
kernRight = v;
layers = (
{
anchors = (
{
name = top;
pos = (241,530);
}
);
background = {
shapes = (
{
closed = 1;
nodes = (
(514,530,ls),
(438,530,o),
(380,487,o),
(353,410,cs),
(240,88,l),
(84,530,l),
(-6,530,l),
(187,0,l),
(293,0,l),
(432,382,ls),
(450,431,o),
(482,456,o),
(527,456,cs),
(537,456,l),
(537,530,l)
);
}
);
};
layerId = "EE2FFE84-06F1-4AFB-BBEC-60D09A436D14";
shapes = (
{
closed = 1;
nodes = (
(260,0,l),
(417,419,ls),
(439,478,o),
(466,500,o),
(513,500,cs),
(526,500,l),
(526,530,l),
(513,530,ls),
(454,530,o),
(414,500,o),
(392,438,cs),
(241,31,l),
(56,530,l),
(24,530,l),
(222,0,l)
);
}
);
width = 550;
},
{
anchors = (
{
name = top;
pos = (328,540);
}
);
layerId = "3507EE3D-0D92-4546-A145-3A991F0A2B71";
shapes = (
{
closed = 1;
nodes = (
(438,0,l),
(561,336,ls),
(578,382,o),
(607,403,o),
(647,403,cs),
(657,403,l),
(657,540,l),
(601,540,ls),
(499,540,o),
(419,484,o),
(383,370,cs),
(328,192,l),
(217,540,l),
(20,540,l),
(218,0,l)
);
}
);
width = 677;
},
{
anchors = (
{
name = top;
pos = (268,530);
}
);
layerId = "6C190511-B94A-4F5A-B519-D6E9DB0E7B93";
shapes = (
{
closed = 1;
nodes = (
(321,0,l),
(460,382,ls),
(478,431,o),
(510,456,o),
(555,456,cs),
(565,456,l),
(565,530,l),
(542,530,ls),
(466,530,o),
(408,487,o),
(381,410,cs),
(268,88,l),
(112,530,l),
(22,530,l),
(215,0,l)
);
}
);
width = 587;
}
);
metricLeft = v;
metricRight = v;
unicode = 1141;
}
{
color = 8;
glyphname = "gestroke-cy";
kernLeft = n;
kernRight = r;
layers = (
{
layerId = "EE2FFE84-06F1-4AFB-BBEC-60D09A436D14";
shapes = (
{
closed = 1;
nodes = (
(351,264,l),
(351,294,l),
(65,294,l),
(65,264,l)
);
},
{
pos = (44,0);
ref = "ge-cy";
}
);
width = 511;
},
{
layerId = "3507EE3D-0D92-4546-A145-3A991F0A2B71";
shapes = (
{
closed = 1;
nodes = (
(412,175,l),
(412,312,l),
(36,312,l),
(36,175,l)
);
},
{
pos = (35,0);
ref = "ge-cy";
}
);
width = 552;
},
{
layerId = "6C190511-B94A-4F5A-B519-D6E9DB0E7B93";
shapes = (
{
closed = 1;
nodes = (
(366,232,l),
(366,306,l),
(60,306,l),
(60,232,l)
);
},
{
pos = (39,0);
ref = "ge-cy";
}
);
width = 534;
}
);
metricLeft = "=n-20";
metricRight = r;
unicode = 1171;
}
{
color = 8;
glyphname = "Kadescender-cy";
kernLeft = b;
kernRight = X;
layers = (
{
layerId = "EE2FFE84-06F1-4AFB-BBEC-60D09A436D14";
shapes = (
{
closed = 1;
nodes = (
(528,-150,l),
(528,28,l),
(496,28,l),
(496,-150,l)
);
},
{
ref = "Ka-cy";
}
);
width = 548;
},
{
background = {
shapes = (
{
pos = (-370,0);
ref = "Zhedescender-cy";
}
);
};
layerId = "3507EE3D-0D92-4546-A145-3A991F0A2B71";
shapes = (
{
closed = 1;
nodes = (
(788,-150,l),
(788,110,l),
(592,110,l),
(592,-150,l)
);
},
{
ref = "Ka-cy";
}
);
width = 798;
},
{
layerId = "6C190511-B94A-4F5A-B519-D6E9DB0E7B93";
shapes = (
{
closed = 1;
nodes = (
(638,-150,l),
(638,70,l),
(552,70,l),
(552,-150,l)
);
},
{
ref = "Ka-cy";
}
);
width = 653;
}
);
metricLeft = H;
metricRight = X;
unicode = 1178;
}
{
color = 8;
glyphname = "Ustraightstroke-cy";
layers = (
{
layerId = "EE2FFE84-06F1-4AFB-BBEC-60D09A436D14";
shapes = (
{
closed = 1;
nodes = (
(499,283,l),
(499,313,l),
(115,313,l),
(115,283,l)
);
},
{
pos = (10,0);
ref = Y;
}
);
width = 603;
},
{
layerId = "3507EE3D-0D92-4546-A145-3A991F0A2B71";
shapes = (
{
closed = 1;
nodes = (
(612,157,l),
(612,313,l),
(128,313,l),
(128,157,l)
);
},
{
pos = (1,0);
ref = Y;
}
);
width = 740;
},
{
layerId = "6C190511-B94A-4F5A-B519-D6E9DB0E7B93";
shapes = (
{
closed = 1;
nodes = (
(536,229,l),
(536,313,l),
(112,313,l),
(112,229,l)
);
},
{
pos = (9,0);
ref = Y;
}
);
width = 639;
}
);
unicode = 1200;
}
{
color = 8;
glyphname = "hadescender-cy";
kernLeft = x;
kernRight = x;
layers = (
{
layerId = "EE2FFE84-06F1-4AFB-BBEC-60D09A436D14";
shapes = (
{
closed = 1;
nodes = (
(500,-150,l),
(500,23,l),
(470,23,l),
(470,-150,l)
);
},
{
ref = x;
}
);
width = 549;
},
{
layerId = "3507EE3D-0D92-4546-A145-3A991F0A2B71";
shapes = (
{
closed = 1;
nodes = (
(699,-153,l),
(699,75,l),
(505,75,l),
(505,-153,l)
);
},
{
alignment = -1;
ref = x;
}
);
width = 744;
},
{
layerId = "6C190511-B94A-4F5A-B519-D6E9DB0E7B93";
shapes = (
{
closed = 1;
nodes = (
(569,-150,l),
(569,74,l),
(485,74,l),
(485,-150,l)
);
},
{
alignment = -1;
ref = x;
}
);
width = 616;
}
);
metricLeft = x;
metricRight = x;
unicode = 1203;
}
{
color = 8;
glyphname = "chedescender-cy";
kernLeft = u;
kernRight = u;
layers = (
{
layerId = "EE2FFE84-06F1-4AFB-BBEC-60D09A436D14";
shapes = (
{
closed = 1;
nodes = (
(514,-150,l),
(514,23,l),
(484,23,l),
(484,-150,l)
);
},
{
ref = "che-cy";
}
);
width = 584;
},
{
layerId = "3507EE3D-0D92-4546-A145-3A991F0A2B71";
shapes = (
{
closed = 1;
nodes = (
(719,-150,l),
(719,75,l),
(525,75,l),
(525,-150,l)
);
},
{
ref = "che-cy";
}
);
width = 760;
},
{
layerId = "6C190511-B94A-4F5A-B519-D6E9DB0E7B93";
shapes = (
{
closed = 1;
nodes = (
(599,-150,l),
(599,74,l),
(515,74,l),
(515,-150,l)
);
},
{
ref = "che-cy";
}
);
width = 664;
}
);
metricLeft = u;
metricRight = "=u-15";
unicode = 1207;
}
{
color = 4;
glyphname = bullet;
layers = (
{
guides = (
{
pos = (394,392);
},
{
pos = (394,392);
},
{
pos = (364,157);
}
);
layerId = "EE2FFE84-06F1-4AFB-BBEC-60D09A436D14";
shapes = (
{
closed = 1;
nodes = (
(144,240,o),
(173,271,o),
(173,313,cs),
(173,341,o),
(155,358,o),
(126,358,cs),
(85,358,o),
(56,327,o),
(56,285,cs),
(56,256,o),
(74,240,o),
(104,240,cs)
);
}
);
width = 215;
},
{
layerId = "3507EE3D-0D92-4546-A145-3A991F0A2B71";
shapes = (
{
closed = 1;
nodes = (
(282,136,o),
(370,223,o),
(370,332,cs),
(370,412,o),
(321,458,o),
(234,458,cs),
(122,458,o),
(35,372,o),
(35,262,cs),
(35,182,o),
(85,136,o),
(171,136,cs)
);
}
);
width = 393;
},
{
layerId = "6C190511-B94A-4F5A-B519-D6E9DB0E7B93";
shapes = (
{
closed = 1;
nodes = (
(224,203,o),
(279,256,o),
(279,336,cs),
(279,390,o),
(246,420,o),
(188,420,cs),
(108,420,o),
(52,365,o),
(52,287,cs),
(52,233,o),
(85,203,o),
(143,203,cs)
);
}
);
width = 312;
}
);
metricLeft = o;
metricRight = o;
unicode = 8226;
}
{
color = 4;
glyphname = foursuperior;
layers = (
{
background = {
shapes = (
{
closed = 1;
nodes = (
(242,323,l),
(262,418,l),
(326,418,l),
(332,444,l),
(268,444,l),
(324,710,l),
(296,710,l),
(48,440,l),
(43,418,l),
(234,418,l),
(214,323,l)
);
},
{
closed = 1;
nodes = (
(288,670,l),
(240,444,l),
(81,444,l)
);
}
);
};
layerId = "EE2FFE84-06F1-4AFB-BBEC-60D09A436D14";
shapes = (
{
closed = 1;
nodes = (
(242,323,l),
(262,418,l),
(326,418,l),
(332,444,l),
(268,444,l),
(324,710,l),
(296,710,l),
(48,440,l),
(43,418,l),
(234,418,l),
(214,323,l)
);
},
{
closed = 1;
nodes = (
(288,668,l),
(240,444,l),
(82,444,l)
);
}
);
width = 314;
},
{
background = {
shapes = (
{
closed = 1;
nodes = (
(326,323,l),
(340,390,l),
(386,390,l),
(405,480,l),
(359,480,l),
(408,710,l),
(270,710,l),
(54,474,l),
(36,390,l),
(220,390,l),
(206,323,l)
);
},
{
closed = 1;
nodes = (
(260,578,l),
(239,480,l),
(163,480,l)
);
}
);
};
layerId = "3507EE3D-0D92-4546-A145-3A991F0A2B71";
shapes = (
{
closed = 1;
nodes = (
(326,323,l),
(340,390,l),
(386,390,l),
(405,480,l),
(359,480,l),
(408,710,l),
(268,710,l),
(54,474,l),
(36,390,l),
(220,390,l),
(206,323,l)
);
},
{
closed = 1;
nodes = (
(260,576,l),
(239,480,l),
(170,480,l)
);
}
);
width = 380;
},
{
background = {
shapes = (
{
closed = 1;
nodes = (
(268,323,l),
(287,413,l),
(341,413,l),
(353,471,l),
(299,471,l),
(350,710,l),
(288,710,l),
(52,464,l),
(41,413,l),
(221,413,l),
(202,323,l)
);
},
{
closed = 1;
nodes = (
(264,614,l),
(233,471,l),
(123,471,l)
);
}
);
};
layerId = "6C190511-B94A-4F5A-B519-D6E9DB0E7B93";
shapes = (
{
closed = 1;
nodes = (
(268,323,l),
(287,413,l),
(341,413,l),
(353,471,l),
(299,471,l),
(350,710,l),
(286,710,l),
(52,464,l),
(41,413,l),
(221,413,l),
(202,323,l)
);
},
{
closed = 1;
nodes = (
(264,612,l),
(233,471,l),
(126,471,l)
);
}
);
width = 330;
}
);
metricLeft = "=10";
metricRight = "=20";
unicode = 8308;
}
{
color = 4;
glyphname = fivesuperior;
layers = (
{
background = {
shapes = (
{
closed = 1;
nodes = (
(261,315,o),
(327,371,o),
(343,448,cs),
(360,528,o),
(322,579,o),
(246,579,cs),
(194,579,o),
(150,553,o),
(130,522,c),
(185,682,l),
(370,682,l),
(376,710,l),
(166,710,l),
(90,485,l),
(121,485,l),
(151,528,o),
(188,551,o),
(238,551,cs),
(297,551,o),
(327,512,o),
(313,448,cs),
(300,386,o),
(249,343,o),
(186,343,cs),
(124,343,o),
(98,372,o),
(104,420,c),
(72,417,l),
(67,357,o),
(102,315,o),
(180,315,cs)
);
}
);
};
layerId = "EE2FFE84-06F1-4AFB-BBEC-60D09A436D14";
shapes = (
{
closed = 1;
nodes = (
(277,315,o),
(346,384,o),
(346,484,cs),
(346,543,o),
(310,579,o),
(246,579,cs),
(192,579,o),
(150,553,o),
(130,522,c),
(185,682,l),
(370,682,l),
(376,710,l),
(166,710,l),
(90,485,l),
(121,485,l),
(151,528,o),
(190,551,o),
(240,551,cs),
(292,551,o),
(316,523,o),
(316,478,cs),
(316,396,o),
(260,343,o),
(184,343,cs),
(126,343,o),
(104,362,o),
(104,420,c),
(72,417,l),
(72,351,o),
(106,315,o),
(178,315,cs)
);
}
);
width = 334;
},
{
background = {
shapes = (
{
closed = 1;
nodes = (
(330,315,o),
(397,372,o),
(415,456,cs),
(432,535,o),
(398,580,o),
(307,580,cs),
(271,580,o),
(250,572,o),
(233,560,c),
(254,620,l),
(428,620,l),
(447,710,l),
(172,710,l),
(92,480,l),
(205,480,l),
(216,496,o),
(232,508,o),
(259,508,cs),
(286,508,o),
(302,489,o),
(295,456,cs),
(289,428,o),
(273,403,o),
(235,403,cs),
(209,403,o),
(194,414,o),
(196,435,c),
(74,429,l),
(65,359,o),
(101,315,o),
(218,315,cs)
);
}
);
};
layerId = "3507EE3D-0D92-4546-A145-3A991F0A2B71";
shapes = (
{
closed = 1;
nodes = (
(341,315,o),
(412,376,o),
(412,480,cs),
(412,544,o),
(378,580,o),
(307,580,cs),
(274,580,o),
(249,572,o),
(232,560,c),
(254,620,l),
(421,620,l),
(440,710,l),
(172,710,l),
(92,480,l),
(205,480,l),
(216,496,o),
(231,508,o),
(254,508,cs),
(277,508,o),
(288,494,o),
(288,470,cs),
(288,426,o),
(266,403,o),
(234,403,cs),
(209,403,o),
(196,412,o),
(196,435,c),
(74,429,l),
(74,349,o),
(118,315,o),
(218,315,cs)
);
}
);
width = 402;
},
{
background = {
shapes = (
{
closed = 1;
nodes = (
(269,315,o),
(335,364,o),
(353,448,cs),
(369,523,o),
(341,580,o),
(259,580,cs),
(227,580,o),
(198,570,o),
(178,552,c),
(211,652,l),
(371,652,l),
(383,710,l),
(169,710,l),
(93,485,l),
(154,485,l),
(175,509,o),
(199,524,o),
(237,524,cs),
(283,524,o),
(298,491,o),
(289,448,cs),
(279,399,o),
(243,373,o),
(197,373,cs),
(157,373,o),
(138,388,o),
(136,420,c),
(72,417,l),
(64,352,o),
(107,315,o),
(183,315,cs)
);
}
);
};
layerId = "6C190511-B94A-4F5A-B519-D6E9DB0E7B93";
shapes = (
{
closed = 1;
nodes = (
(294,315,o),
(355,390,o),
(355,478,cs),
(355,544,o),
(322,580,o),
(256,580,cs),
(220,580,o),
(196,570,o),
(176,552,c),
(211,652,l),
(371,652,l),
(383,710,l),
(169,710,l),
(96,485,l),
(154,485,l),
(170,507,o),
(194,524,o),
(232,524,cs),
(277,524,o),
(289,504,o),
(289,472,cs),
(289,404,o),
(252,373,o),
(194,373,cs),
(150,373,o),
(136,388,o),
(136,420,c),
(72,417,l),
(72,345,o),
(110,315,o),
(184,315,cs)
);
}
);
width = 344;
}
);
metricLeft = "=40";
metricRight = "=30";
unicode = 8309;
}
{
color = 4;
glyphname = eightsuperior;
layers = (
{
background = {
shapes = (
{
closed = 1;
nodes = (
(262,315,o),
(326,349,o),
(343,425,cs),
(356,486,o),
(327,519,o),
(278,534,c),
(321,546,o),
(354,570,o),
(365,618,cs),
(378,682,o),
(349,718,o),
(264,718,cs),
(179,718,o),
(134,682,o),
(121,618,cs),
(110,570,o),
(133,546,o),
(172,534,c),
(117,519,o),
(74,486,o),
(61,425,cs),
(44,349,o),
(94,315,o),
(178,315,cs)
);
},
{
closed = 1;
nodes = (
(117,343,o),
(78,367,o),
(91,427,cs),
(103,484,o),
(157,522,o),
(222,522,cs),
(287,522,o),
(325,484,o),
(313,427,cs),
(300,367,o),
(251,343,o),
(184,343,cs)
);
},
{
closed = 1;
nodes = (
(175,548,o),
(140,569,o),
(151,618,cs),
(161,665,o),
(191,690,o),
(258,690,cs),
(325,690,o),
(345,665,o),
(335,618,cs),
(324,569,o),
(281,548,o),
(228,548,cs)
);
}
);
};
layerId = "EE2FFE84-06F1-4AFB-BBEC-60D09A436D14";
shapes = (
{
closed = 1;
nodes = (
(279,315,o),
(349,358,o),
(349,448,cs),
(349,494,o),
(322,522,o),
(278,534,c),
(334,546,o),
(367,582,o),
(367,636,cs),
(367,683,o),
(336,718,o),
(262,718,cs),
(172,718,o),
(119,672,o),
(119,602,cs),
(119,562,o),
(140,544,o),
(172,534,c),
(101,515,o),
(63,470,o),
(63,406,cs),
(63,338,o),
(110,315,o),
(183,315,cs)
);
},
{
closed = 1;
nodes = (
(127,343,o),
(93,360,o),
(93,410,cs),
(93,474,o),
(149,522,o),
(222,522,cs),
(285,522,o),
(319,493,o),
(319,445,cs),
(319,377,o),
(265,343,o),
(187,343,cs)
);
},
{
closed = 1;
nodes = (
(175,548,o),
(149,564,o),
(149,606,cs),
(149,657,o),
(188,690,o),
(256,690,cs),
(320,690,o),
(337,665,o),
(337,632,cs),
(337,575,o),
(291,548,o),
(228,548,cs)
);
}
);
width = 344;
},
{
background = {
shapes = (
{
closed = 1;
nodes = (
(342,315,o),
(396,360,o),
(410,426,cs),
(421,481,o),
(396,514,o),
(334,532,c),
(391,546,o),
(426,571,o),
(436,620,cs),
(449,682,o),
(416,718,o),
(297,718,cs),
(178,718,o),
(129,682,o),
(116,620,cs),
(106,571,o),
(129,546,o),
(180,532,c),
(110,515,o),
(72,482,o),
(60,426,cs),
(46,360,o),
(80,315,o),
(211,315,cs)
);
},
{
closed = 1;
nodes = (
(193,403,o),
(177,415,o),
(184,447,cs),
(190,473,o),
(212,494,o),
(249,494,cs),
(286,494,o),
(300,473,o),
(294,447,cs),
(287,415,o),
(267,403,o),
(230,403,cs)
);
},
{
closed = 1;
nodes = (
(237,560,o),
(220,570,o),
(226,595,cs),
(231,619,o),
(248,630,o),
(278,630,cs),
(308,630,o),
(321,619,o),
(316,595,cs),
(310,570,o),
(289,560,o),
(263,560,cs)
);
}
);
};
layerId = "3507EE3D-0D92-4546-A145-3A991F0A2B71";
shapes = (
{
closed = 1;
nodes = (
(322,315,o),
(415,350,o),
(415,445,cs),
(415,486,o),
(388,515,o),
(337,530,c),
(397,545,o),
(435,567,o),
(435,626,cs),
(435,676,o),
(400,718,o),
(291,718,cs),
(169,718,o),
(107,677,o),
(107,602,cs),
(107,565,o),
(135,542,o),
(177,530,c),
(105,512,o),
(62,472,o),
(62,408,cs),
(62,351,o),
(98,315,o),
(211,315,cs)
);
},
{
closed = 1;
nodes = (
(198,403,o),
(182,417,o),
(182,439,cs),
(182,470,o),
(206,494,o),
(249,494,cs),
(281,494,o),
(295,477,o),
(295,454,cs),
(295,420,o),
(269,403,o),
(229,403,cs)
);
},
{
closed = 1;
nodes = (
(241,560,o),
(225,569,o),
(225,590,cs),
(225,617,o),
(247,630,o),
(278,630,cs),
(304,630,o),
(317,618,o),
(317,600,cs),
(317,572,o),
(293,560,o),
(263,560,cs)
);
}
);
width = 411;
},
{
background = {
shapes = (
{
closed = 1;
nodes = (
(280,315,o),
(340,356,o),
(355,427,cs),
(365,474,o),
(342,512,o),
(299,532,c),
(338,545,o),
(366,569,o),
(376,617,cs),
(390,680,o),
(355,718,o),
(272,718,cs),
(190,718,o),
(138,680,o),
(124,617,cs),
(114,569,o),
(132,545,o),
(165,532,c),
(113,513,o),
(75,474,o),
(65,427,cs),
(50,356,o),
(92,315,o),
(186,315,cs)
);
},
{
closed = 1;
nodes = (
(148,373,o),
(124,392,o),
(132,431,cs),
(140,469,o),
(175,499,o),
(225,499,cs),
(275,499,o),
(298,469,o),
(290,431,cs),
(282,392,o),
(248,373,o),
(198,373,cs)
);
},
{
closed = 1;
nodes = (
(199,559,o),
(182,577,o),
(190,613,cs),
(196,642,o),
(221,660,o),
(260,660,cs),
(299,660,o),
(316,642,o),
(310,613,cs),
(302,577,o),
(277,559,o),
(238,559,cs)
);
}
);
};
layerId = "6C190511-B94A-4F5A-B519-D6E9DB0E7B93";
shapes = (
{
closed = 1;
nodes = (
(300,315,o),
(361,367,o),
(361,446,cs),
(361,483,o),
(339,518,o),
(299,532,c),
(347,542,o),
(379,576,o),
(379,626,cs),
(379,676,o),
(352,718,o),
(269,718,cs),
(169,718,o),
(121,671,o),
(121,596,cs),
(121,563,o),
(138,543,o),
(165,532,c),
(104,518,o),
(64,470,o),
(64,410,cs),
(64,351,o),
(104,315,o),
(186,315,cs)
);
},
{
closed = 1;
nodes = (
(154,373,o),
(132,387,o),
(132,422,cs),
(132,469,o),
(167,499,o),
(223,499,cs),
(270,499,o),
(293,478,o),
(293,442,cs),
(293,395,o),
(257,373,o),
(198,373,cs)
);
},
{
closed = 1;
nodes = (
(204,559,o),
(189,573,o),
(189,600,cs),
(189,636,o),
(209,660,o),
(259,660,cs),
(294,660,o),
(311,648,o),
(311,614,cs),
(311,586,o),
(295,559,o),
(237,559,cs)
);
}
);
width = 356;
}
);
metricLeft = "=30";
metricRight = "=30";
unicode = 8312;
}
{
color = 4;
glyphname = ninesuperior;
layers = (
{
background = {
shapes = (
{
closed = 1;
nodes = (
(189,718,o),
(125,663,o),
(108,581,cs),
(92,505,o),
(133,452,o),
(208,452,cs),
(260,452,o),
(306,481,o),
(336,527,c),
(308,410,o),
(249,341,o),
(178,341,cs),
(128,341,o),
(105,364,o),
(102,413,c),
(73,409,l),
(79,346,o),
(111,315,o),
(172,315,cs),
(266,315,o),
(341,406,o),
(369,538,cs),
(395,661,o),
(355,718,o),
(268,718,cs)
);
},
{
closed = 1;
nodes = (
(322,692,o),
(357,649,o),
(344,585,cs),
(331,525,o),
(271,478,o),
(214,478,cs),
(157,478,o),
(125,521,o),
(138,581,cs),
(152,648,o),
(203,692,o),
(262,692,cs)
);
}
);
};
layerId = "EE2FFE84-06F1-4AFB-BBEC-60D09A436D14";
shapes = (
{
closed = 1;
nodes = (
(286,315,o),
(376,432,o),
(376,608,cs),
(376,683,o),
(337,718,o),
(268,718,cs),
(169,718,o),
(105,644,o),
(105,550,cs),
(105,486,o),
(144,452,o),
(208,452,cs),
(273,452,o),
(321,488,o),
(341,528,c),
(320,416,o),
(257,341,o),
(175,341,cs),
(128,341,o),
(106,361,o),
(102,413,c),
(73,409,l),
(81,345,o),
(112,315,o),
(172,315,cs)
);
},
{
closed = 1;
nodes = (
(164,478,o),
(135,503,o),
(135,555,cs),
(135,628,o),
(185,692,o),
(262,692,cs),
(322,692,o),
(346,657,o),
(346,604,cs),
(346,536,o),
(284,478,o),
(212,478,cs)
);
}
);
width = 354;
},
{
background = {
shapes = (
{
closed = 1;
nodes = (
(205,718,o),
(131,666,o),
(113,581,cs),
(94,495,o),
(137,449,o),
(230,449,cs),
(272,449,o),
(299,463,o),
(316,477,c),
(298,424,o),
(270,399,o),
(227,399,cs),
(202,399,o),
(182,412,o),
(183,428,c),
(74,415,l),
(72,352,o),
(121,315,o),
(204,315,cs),
(333,315,o),
(414,394,o),
(442,528,cs),
(471,660,o),
(421,718,o),
(310,718,cs)
);
},
{
closed = 1;
nodes = (
(319,630,o),
(339,610,o),
(331,577,cs),
(323,545,o),
(297,525,o),
(266,525,cs),
(233,525,o),
(214,543,o),
(221,579,cs),
(228,610,o),
(255,630,o),
(288,630,cs)
);
}
);
};
layerId = "3507EE3D-0D92-4546-A145-3A991F0A2B71";
shapes = (
{
closed = 1;
nodes = (
(377,315,o),
(450,434,o),
(450,586,cs),
(450,671,o),
(404,718,o),
(304,718,cs),
(177,718,o),
(107,653,o),
(107,548,cs),
(107,486,o),
(148,449,o),
(227,449,cs),
(275,449,o),
(308,466,o),
(321,480,c),
(303,420,o),
(267,399,o),
(226,399,cs),
(199,399,o),
(186,410,o),
(184,428,c),
(71,415,l),
(73,350,o),
(116,315,o),
(205,315,cs)
);
},
{
closed = 1;
nodes = (
(236,525,o),
(221,537,o),
(221,564,cs),
(221,604,o),
(245,630,o),
(288,630,cs),
(314,630,o),
(330,615,o),
(330,590,cs),
(330,551,o),
(308,525,o),
(264,525,cs)
);
}
);
width = 432;
},
{
background = {
shapes = (
{
closed = 1;
nodes = (
(199,718,o),
(126,668,o),
(108,581,cs),
(88,489,o),
(138,445,o),
(215,445,cs),
(257,445,o),
(293,463,o),
(312,487,c),
(292,415,o),
(249,373,o),
(197,373,cs),
(157,373,o),
(141,387,o),
(140,417,c),
(77,411,l),
(78,347,o),
(105,315,o),
(185,315,cs),
(297,315,o),
(363,416,o),
(389,538,cs),
(413,655,o),
(369,718,o),
(283,718,cs)
);
},
{
closed = 1;
nodes = (
(320,660,o),
(343,628,o),
(331,579,cs),
(320,531,o),
(282,503,o),
(235,503,cs),
(182,503,o),
(161,531,o),
(171,579,cs),
(182,628,o),
(218,660,o),
(270,660,cs)
);
}
);
};
layerId = "6C190511-B94A-4F5A-B519-D6E9DB0E7B93";
shapes = (
{
closed = 1;
nodes = (
(315,315,o),
(395,432,o),
(395,590,cs),
(395,670,o),
(363,718,o),
(274,718,cs),
(163,718,o),
(105,648,o),
(105,548,cs),
(105,482,o),
(150,445,o),
(215,445,cs),
(257,445,o),
(298,462,o),
(316,488,c),
(298,412,o),
(252,373,o),
(195,373,cs),
(157,373,o),
(142,389,o),
(140,417,c),
(77,411,l),
(79,351,o),
(109,315,o),
(185,315,cs)
);
},
{
closed = 1;
nodes = (
(188,503,o),
(169,522,o),
(169,556,cs),
(169,620,o),
(207,660,o),
(264,660,cs),
(314,660,o),
(331,637,o),
(331,602,cs),
(331,552,o),
(295,503,o),
(230,503,cs)
);
}
);
width = 376;
}
);
metricLeft = nineinferior;
metricRight = nineinferior;
unicode = 8313;
}
{
color = 4;
glyphname = euro;
layers = (
{
background = {
shapes = (
{
closed = 1;
nodes = (
(534,-16,o),
(631,86,o),
(681,226,c),
(647,229,l),
(602,98,o),
(510,16,o),
(393,16,cs),
(242,16,o),
(165,156,o),
(207,354,cs),
(249,554,o),
(386,694,o),
(537,694,cs),
(645,694,o),
(702,618,o),
(700,497,c),
(735,500,l),
(736,639,o),
(669,726,o),
(544,726,cs),
(368,726,o),
(217,560,o),
(173,354,cs),
(129,149,o),
(211,-16,o),
(386,-16,cs)
);
},
{
closed = 1;
nodes = (
(473,265,l),
(483,295,l),
(66,295,l),
(60,265,l)
);
},
{
closed = 1;
nodes = (
(528,419,l),
(539,449,l),
(99,449,l),
(93,419,l)
);
}
);
};
guides = (
{
pos = (89,388);
}
);
layerId = "EE2FFE84-06F1-4AFB-BBEC-60D09A436D14";
shapes = (
{
closed = 1;
nodes = (
(534,-16,o),
(631,86,o),
(681,226,c),
(647,229,l),
(602,98,o),
(510,16,o),
(393,16,cs),
(270,16,o),
(195,96,o),
(195,252,cs),
(195,472,o),
(315,694,o),
(533,694,cs),
(649,694,o),
(702,618,o),
(700,497,c),
(735,500,l),
(736,639,o),
(669,726,o),
(538,726,cs),
(296,726,o),
(161,504,o),
(161,250,cs),
(161,82,o),
(242,-16,o),
(386,-16,cs)
);
},
{
closed = 1;
nodes = (
(473,265,l),
(483,295,l),
(66,295,l),
(60,265,l)
);
},
{
closed = 1;
nodes = (
(528,419,l),
(539,449,l),
(99,449,l),
(93,419,l)
);
}
);
width = 734;
},
{
background = {
shapes = (
{
closed = 1;
nodes = (
(539,-16,o),
(684,84,o),
(752,253,c),
(550,262,l),
(523,187,o),
(473,141,o),
(416,141,cs),
(331,141,o),
(301,226,o),
(329,354,cs),
(356,483,o),
(422,569,o),
(507,569,cs),
(562,569,o),
(593,526,o),
(592,456,c),
(796,465,l),
(799,629,o),
(696,726,o),
(546,726,cs),
(358,726,o),
(174,568,o),
(129,354,cs),
(83,140,o),
(201,-16,o),
(388,-16,cs)
);
},
{
closed = 1;
nodes = (
(453,235,l),
(482,320,l),
(61,320,l),
(43,235,l)
);
},
{
closed = 1;
nodes = (
(505,383,l),
(536,468,l),
(93,468,l),
(75,383,l)
);
}
);
};
layerId = "3507EE3D-0D92-4546-A145-3A991F0A2B71";
shapes = (
{
closed = 1;
nodes = (
(539,-16,o),
(680,48,o),
(752,253,c),
(550,262,l),
(528,176,o),
(473,141,o),
(416,141,cs),
(352,141,o),
(319,189,o),
(319,269,cs),
(319,443,o),
(392,569,o),
(507,569,cs),
(562,569,o),
(592,530,o),
(592,456,c),
(796,465,l),
(796,639,o),
(700,726,o),
(534,726,cs),
(276,726,o),
(119,540,o),
(119,264,cs),
(119,83,o),
(228,-16,o),
(388,-16,cs)
);
},
{
closed = 1;
nodes = (
(453,235,l),
(482,320,l),
(61,320,l),
(43,235,l)
);
},
{
closed = 1;
nodes = (
(505,383,l),
(536,468,l),
(93,468,l),
(75,383,l)
);
}
);
width = 791;
},
{
background = {
shapes = (
{
closed = 1;
nodes = (
(509,-16,o),
(625,85,o),
(679,224,c),
(588,230,l),
(549,136,o),
(472,68,o),
(390,68,cs),
(258,68,o),
(214,191,o),
(249,354,cs),
(284,518,o),
(379,642,o),
(512,642,cs),
(589,642,o),
(637,582,o),
(641,496,c),
(732,502,l),
(730,632,o),
(655,726,o),
(530,726,cs),
(354,726,o),
(205,570,o),
(159,354,cs),
(113,139,o),
(197,-16,o),
(372,-16,cs)
);
},
{
closed = 1;
nodes = (
(439,235,l),
(466,309,l),
(65,309,l),
(49,235,l)
);
},
{
closed = 1;
nodes = (
(492,389,l),
(519,463,l),
(98,463,l),
(82,389,l)
);
}
);
};
layerId = "6C190511-B94A-4F5A-B519-D6E9DB0E7B93";
shapes = (
{
closed = 1;
nodes = (
(522,-16,o),
(629,74,o),
(679,224,c),
(588,230,l),
(548,118,o),
(472,68,o),
(390,68,cs),
(287,68,o),
(237,130,o),
(237,254,cs),
(237,428,o),
(315,642,o),
(510,642,cs),
(601,642,o),
(637,582,o),
(641,496,c),
(732,502,l),
(730,628,o),
(667,726,o),
(524,726,cs),
(288,726,o),
(147,518,o),
(147,243,cs),
(147,66,o),
(229,-16,o),
(372,-16,cs)
);
},
{
closed = 1;
nodes = (
(439,235,l),
(466,309,l),
(65,309,l),
(49,235,l)
);
},
{
closed = 1;
nodes = (
(492,389,l),
(519,463,l),
(98,463,l),
(82,389,l)
);
}
);
width = 728;
}
);
metricLeft = S;
metricRight = C;
unicode = 8364;
}
{
color = 4;
glyphname = published;
layers = (
{
background = {
shapes = (
{
closed = 1;
nodes = (
(455,187,o),
(600,308,o),
(632,456,cs),
(664,606,o),
(569,726,o),
(420,726,cs),
(270,726,o),
(125,606,o),
(93,456,cs),
(61,308,o),
(156,187,o),
(306,187,cs)
);
},
{
closed = 1;
nodes = (
(177,211,o),
(90,323,o),
(118,456,cs),
(146,590,o),
(281,702,o),
(415,702,cs),
(549,702,o),
(635,590,o),
(607,456,cs),
(579,323,o),
(445,211,o),
(311,211,cs)
);
},
{
closed = 1;
nodes = (
(274,300,l),
(302,431,l),
(375,431,ls),
(445,431,o),
(495,464,o),
(506,520,cs),
(518,576,o),
(483,611,o),
(413,611,cs),
(313,611,l),
(247,300,l)
);
},
{
closed = 1;
nodes = (
(335,586,l),
(416,586,ls),
(465,586,o),
(490,561,o),
(482,522,cs),
(473,479,o),
(437,458,o),
(388,458,cs),
(307,458,l)
);
}
);
};
layerId = "EE2FFE84-06F1-4AFB-BBEC-60D09A436D14";
shapes = (
{
closed = 1;
nodes = (
(274,300,l),
(302,431,l),
(375,431,ls),
(453,431,o),
(507,465,o),
(507,537,cs),
(507,581,o),
(474,611,o),
(413,611,cs),
(313,611,l),
(247,300,l)
);
},
{
closed = 1;
nodes = (
(335,586,l),
(412,586,ls),
(459,586,o),
(481,570,o),
(481,536,cs),
(481,481,o),
(447,458,o),
(384,458,cs),
(307,458,l)
);
},
{
closed = 1;
nodes = (
(502,187,o),
(638,323,o),
(638,513,cs),
(638,639,o),
(549,726,o),
(420,726,cs),
(224,726,o),
(87,590,o),
(87,400,cs),
(87,274,o),
(176,187,o),
(306,187,cs)
);
},
{
closed = 1;
nodes = (
(194,211,o),
(113,292,o),
(113,407,cs),
(113,577,o),
(245,702,o),
(415,702,cs),
(532,702,o),
(612,621,o),
(612,506,cs),
(612,336,o),
(483,211,o),
(311,211,cs)
);
}
);
width = 644;
},
{
background = {
shapes = (
{
closed = 1;
nodes = (
(468,148,o),
(624,277,o),
(658,438,cs),
(692,597,o),
(590,726,o),
(430,726,cs),
(270,726,o),
(114,597,o),
(80,438,cs),
(46,277,o),
(148,148,o),
(308,148,cs)
);
},
{
closed = 1;
nodes = (
(205,218,o),
(129,319,o),
(154,438,cs),
(179,556,o),
(299,656,o),
(416,656,cs),
(535,656,o),
(609,556,o),
(584,438,cs),
(559,319,o),
(441,218,o),
(322,218,cs)
);
},
{
closed = 1;
nodes = (
(319,290,l),
(340,390,l),
(380,390,ls),
(465,390,o),
(515,434,o),
(527,491,cs),
(540,550,o),
(508,590,o),
(423,590,cs),
(289,590,l),
(225,290,l)
);
},
{
closed = 1;
nodes = (
(365,515,l),
(390,515,ls),
(415,515,o),
(432,508,o),
(428,487,cs),
(423,466,o),
(403,460,o),
(378,460,cs),
(353,460,l)
);
}
);
};
layerId = "3507EE3D-0D92-4546-A145-3A991F0A2B71";
shapes = (
{
closed = 1;
nodes = (
(319,290,l),
(340,390,l),
(380,390,ls),
(477,390,o),
(530,434,o),
(530,507,cs),
(530,559,o),
(496,590,o),
(423,590,cs),
(289,590,l),
(225,290,l)
);
},
{
closed = 1;
nodes = (
(365,515,l),
(395,515,ls),
(415,515,o),
(428,510,o),
(428,492,cs),
(428,468,o),
(409,460,o),
(384,460,cs),
(353,460,l)
);
},
{
closed = 1;
nodes = (
(512,148,o),
(666,268,o),
(666,498,cs),
(666,638,o),
(578,726,o),
(430,726,cs),
(222,726,o),
(73,607,o),
(73,377,cs),
(73,237,o),
(164,148,o),
(308,148,cs)
);
},
{
closed = 1;
nodes = (
(202,218,o),
(149,284,o),
(149,390,cs),
(149,550,o),
(248,656,o),
(416,656,cs),
(540,656,o),
(590,589,o),
(590,483,cs),
(590,323,o),
(492,218,o),
(322,218,cs)
);
}
);
width = 668;
},
{
background = {
shapes = (
{
closed = 1;
nodes = (
(454,179,o),
(601,302,o),
(633,453,cs),
(665,604,o),
(570,726,o),
(419,726,cs),
(267,726,o),
(120,604,o),
(88,453,cs),
(56,302,o),
(151,179,o),
(303,179,cs)
);
},
{
closed = 1;
nodes = (
(187,236,o),
(120,335,o),
(145,453,cs),
(170,571,o),
(279,668,o),
(407,668,cs),
(534,668,o),
(601,571,o),
(576,453,cs),
(551,335,o),
(442,236,o),
(315,236,cs)
);
},
{
closed = 1;
nodes = (
(294,303,l),
(319,420,l),
(362,420,ls),
(439,420,o),
(491,449,o),
(504,510,cs),
(516,567,o),
(478,601,o),
(401,601,cs),
(302,601,l),
(238,303,l)
);
},
{
closed = 1;
nodes = (
(348,554,l),
(399,554,ls),
(438,554,o),
(456,539,o),
(451,512,cs),
(445,484,o),
(419,466,o),
(380,466,cs),
(329,466,l)
);
}
);
};
layerId = "6C190511-B94A-4F5A-B519-D6E9DB0E7B93";
shapes = (
{
closed = 1;
nodes = (
(294,303,l),
(319,420,l),
(362,420,ls),
(446,420,o),
(506,451,o),
(506,522,cs),
(506,569,o),
(480,601,o),
(401,601,cs),
(302,601,l),
(238,303,l)
);
},
{
closed = 1;
nodes = (
(348,554,l),
(399,554,ls),
(434,554,o),
(452,542,o),
(452,518,cs),
(452,481,o),
(419,466,o),
(380,466,cs),
(329,466,l)
);
},
{
closed = 1;
nodes = (
(511,179,o),
(638,315,o),
(638,511,cs),
(638,639,o),
(559,726,o),
(419,726,cs),
(211,726,o),
(82,591,o),
(82,395,cs),
(82,267,o),
(163,179,o),
(303,179,cs)
);
},
{
closed = 1;
nodes = (
(205,236,o),
(140,293,o),
(140,405,cs),
(140,561,o),
(237,668,o),
(407,668,cs),
(516,668,o),
(580,613,o),
(580,501,cs),
(580,345,o),
(485,236,o),
(315,236,cs)
);
}
);
width = 640;
}
);
metricLeft = O;
metricRight = O;
unicode = 8471;
}
